<?xml version="1.0" encoding="UTF-8"?>
<svg width="24" height="24" viewBox="0 0 24 24" fill="none" xmlns="http://www.w3.org/2000/svg">
<path d="M12.0533 4.34449C13.8273 4.34449 15.4971 4.74216 17.0626 5.53749C18.6281 6.33282 19.9192 7.45907 20.9359 8.91624C21.0975 9.14674 21.1487 9.35816 21.0893 9.55049C21.0299 9.74299 20.9193 9.89032 20.7576 9.99249C20.6054 10.0947 20.4373 10.1392 20.2533 10.126C20.0693 10.113 19.9143 10.0091 19.7881 9.81424C18.9164 8.54241 17.7976 7.56233 16.4316 6.87399C15.0656 6.18549 13.6062 5.83657 12.0533 5.82724C10.5243 5.82724 9.08285 6.17141 7.72885 6.85974C6.37485 7.54824 5.27143 8.53774 4.4186 9.82824C4.2736 10.0492 4.09843 10.1662 3.8931 10.1792C3.6876 10.1924 3.50877 10.1526 3.3566 10.0597C3.1951 9.95757 3.08643 9.81499 3.0306 9.63199C2.97477 9.44899 3.00985 9.26474 3.13585 9.07924C4.15035 7.59157 5.44385 6.43057 7.01635 5.59624C8.58885 4.76174 10.2678 4.34449 12.0533 4.34449ZM12.0533 6.75874C14.265 6.75874 16.1386 7.53116 17.6741 9.07599C19.2096 10.621 19.9774 12.4909 19.9774 14.6857C19.9774 15.5736 19.678 16.3381 19.0793 16.9792C18.4808 17.6206 17.7425 17.9412 16.8643 17.9412C15.9765 17.9412 15.231 17.6324 14.6278 17.0147C14.0245 16.3969 13.7228 15.6489 13.7228 14.7707C13.7228 14.2896 13.5625 13.8787 13.2418 13.538C12.9212 13.1975 12.5298 13.0272 12.0676 13.0272C11.6124 13.0272 11.2287 13.1975 10.9163 13.538C10.604 13.8787 10.4478 14.2896 10.4478 14.7707C10.4478 16.3664 10.8653 17.7274 11.7001 18.8537C12.5349 19.9802 13.8053 20.7247 15.5111 21.087C15.7226 21.137 15.8706 21.2446 15.9551 21.4097C16.0394 21.5749 16.0603 21.7514 16.0176 21.9392C15.9748 22.1174 15.8773 22.2724 15.7251 22.4042C15.5729 22.5362 15.3638 22.5772 15.0978 22.5272C13.0827 22.1294 11.5568 21.2228 10.5201 19.8075C9.4836 18.3923 8.96535 16.7134 8.96535 14.7707C8.96535 13.8807 9.2646 13.1206 9.8631 12.4902C10.4616 11.8597 11.1964 11.5445 12.0676 11.5445C12.9458 11.5445 13.6883 11.8503 14.2951 12.462C14.9021 13.0735 15.2056 13.8147 15.2056 14.6857C15.2056 15.1647 15.3623 15.5823 15.6756 15.9385C15.9891 16.2947 16.3853 16.4727 16.8643 16.4727C17.3338 16.4727 17.7253 16.2947 18.0386 15.9385C18.3521 15.5823 18.5088 15.1647 18.5088 14.6857C18.5088 12.8902 17.8795 11.3672 16.6208 10.1167C15.362 8.86641 13.8395 8.24124 12.0533 8.24124C10.265 8.24124 8.75268 8.87824 7.51635 10.1522C6.28018 11.4261 5.6621 12.9656 5.6621 14.7707C5.6621 15.5199 5.70193 16.1918 5.7816 16.7865C5.86127 17.381 5.96668 17.8786 6.09785 18.2792C6.18335 18.5097 6.18993 18.7142 6.1176 18.8925C6.0451 19.0707 5.91502 19.1942 5.72735 19.263C5.49902 19.3558 5.2916 19.3498 5.1051 19.245C4.91843 19.1403 4.78127 18.9801 4.6936 18.7642C4.5051 18.1939 4.37227 17.5772 4.2951 16.9142C4.21793 16.2511 4.17935 15.5366 4.17935 14.7707C4.17935 12.5474 4.9406 10.6562 6.4631 9.09724C7.9856 7.53824 9.84902 6.75874 12.0533 6.75874ZM12.0676 1.95874C13.1676 1.95874 14.2408 2.09382 15.2871 2.36399C16.3334 2.63432 17.3399 3.02782 18.3066 3.54449C18.5131 3.64666 18.6401 3.79216 18.6876 3.98099C18.7351 4.16982 18.7124 4.34499 18.6196 4.50649C18.5174 4.66816 18.3748 4.78991 18.1918 4.87174C18.009 4.95357 17.8034 4.93041 17.5751 4.80224C16.7346 4.33557 15.8458 3.98974 14.9088 3.76474C13.9718 3.53974 13.0248 3.42724 12.0676 3.42724C11.0936 3.42724 10.1376 3.54749 9.1996 3.78799C8.2616 4.02866 7.35927 4.38232 6.4926 4.84899C6.28593 4.96049 6.08043 4.99491 5.8761 4.95224C5.67177 4.90941 5.51852 4.78691 5.41635 4.58474C5.32368 4.42541 5.30935 4.24482 5.37335 4.04299C5.43752 3.84116 5.56343 3.68916 5.7511 3.58699C6.7106 3.00866 7.72352 2.59266 8.78985 2.33899C9.85618 2.08549 10.9488 1.95874 12.0676 1.95874ZM12.0676 9.15874C13.6031 9.15874 14.9076 9.69549 15.9811 10.769C17.0546 11.8425 17.5913 13.1481 17.5913 14.6857C17.5913 14.9162 17.5278 15.1068 17.4006 15.2575C17.2734 15.4083 17.0947 15.4837 16.8643 15.4837C16.6243 15.4837 16.4384 15.4083 16.3066 15.2575C16.1748 15.1068 16.1088 14.9162 16.1088 14.6857C16.1088 13.5569 15.7175 12.5982 14.9348 11.8097C14.1522 11.0214 13.1964 10.6272 12.0676 10.6272C10.9458 10.6272 9.99535 11.0332 9.21635 11.845C8.43735 12.657 8.04785 13.6322 8.04785 14.7707C8.04785 15.8801 8.20802 16.9505 8.52835 17.982C8.84868 19.0135 9.46968 20.0032 10.3913 20.951C10.5363 21.096 10.613 21.2623 10.6213 21.45C10.6297 21.6377 10.5791 21.8112 10.4696 21.9707C10.3319 22.1584 10.1354 22.2392 9.8801 22.213C9.6246 22.187 9.41968 22.1015 9.26535 21.9565C8.24352 20.9253 7.54043 19.8002 7.1561 18.581C6.7716 17.3618 6.57935 16.0917 6.57935 14.7707C6.57935 13.2236 7.1096 11.9014 8.1701 10.8042C9.2306 9.70724 10.5298 9.15874 12.0676 9.15874ZM12.0676 13.9445C12.2979 13.9445 12.4808 14.0152 12.6163 14.1565C12.7518 14.2978 12.8196 14.4837 12.8196 14.7142C12.8196 16.1019 13.2363 17.1419 14.0696 17.8342C14.9029 18.5266 15.9649 18.8727 17.2556 18.8727C17.4868 18.8727 17.6933 18.8561 17.8751 18.8227C18.0569 18.7894 18.2432 18.7727 18.4338 18.7727C18.6527 18.7822 18.8262 18.8506 18.9543 18.9777C19.0827 19.1049 19.1468 19.2576 19.1468 19.4357C19.1374 19.6424 19.0798 19.8027 18.9741 19.9167C18.8683 20.0309 18.7309 20.1177 18.5621 20.1772C18.3881 20.2366 18.1875 20.2812 17.9603 20.311C17.7332 20.3407 17.4983 20.3555 17.2556 20.3555C15.5658 20.3555 14.1592 19.8691 13.0358 18.8962C11.9127 17.9234 11.3511 16.5294 11.3511 14.7142C11.3511 14.4837 11.4153 14.2978 11.5436 14.1565C11.6718 14.0152 11.8464 13.9445 12.0676 13.9445Z" fill="black"/>
</svg>