<?xml version="1.0" encoding="UTF-8"?>
<svg id="Ikony" xmlns="http://www.w3.org/2000/svg" viewBox="0 0 24 24">
  <path d="m20.37,3.79c-2.38-2.38-6.26-2.38-8.65,0-1.57,1.56-2.16,3.85-1.57,5.95l-2.22,2.21h-1.49c-.72,0-1.31.59-1.31,1.31v1.12h-1.16c-.36,0-.71.15-.95.41-.25.26-.38.61-.36.97l.17,3.07c.06,1.12.75,2.07,1.8,2.48.33.13.68.19,1.02.19.74,0,1.45-.29,1.98-.83l6.74-6.71c2.11.6,4.42.01,5.99-1.55,1.16-1.15,1.79-2.68,1.79-4.31s-.64-3.16-1.79-4.31Zm-1.06,7.57c-1.3,1.29-3.16,1.7-4.88,1.06l-.45-.17-7.4,7.38c-.37.37-.91.49-1.41.3s-.81-.62-.84-1.16l-.16-2.88h2.46v-2.43h1.92l3.33-3.32-.17-.45c-.62-1.67-.2-3.57,1.07-4.84,1.8-1.8,4.73-1.79,6.53,0,.87.87,1.35,2.02,1.35,3.25s-.48,2.38-1.35,3.25Zm-2.87-6.1c-1.28,0-2.31,1.04-2.31,2.31s1.04,2.31,2.31,2.31,2.31-1.04,2.31-2.31-1.04-2.31-2.31-2.31Zm0,3.13c-.45,0-.81-.37-.81-.81s.37-.81.81-.81.81.37.81.81-.37.81-.81.81Z"/>
</svg>