<?xml version="1.0" encoding="UTF-8"?>
<svg version="1.1" id="Ikony" xmlns="http://www.w3.org/2000/svg" xmlns:xlink="http://www.w3.org/1999/xlink" x="0px" y="0px" viewBox="0 0 24 24" style="enable-background:new 0 0 24 24;" xml:space="preserve">
<path d="M21.4,10.6l-3-2.5c-3.7-3.2-9.1-3.2-12.8,0l-3,2.5C2.2,11,2,11.5,2,12c0,0.5,0.2,1,0.6,1.4l3,2.5c1.9,1.6,4.1,2.4,6.4,2.4  s4.6-0.8,6.4-2.4l3-2.5c0,0,0,0,0,0C21.8,13,22,12.5,22,12S21.8,11,21.4,10.6z M20.4,12.2l-3,2.5c-3.2,2.7-7.7,2.7-10.9,0l-3-2.5  C3.5,12.1,3.5,12,3.5,12c0-0.1,0-0.1,0.1-0.2l3-2.5c1.6-1.3,3.5-2,5.4-2s3.9,0.7,5.4,2l3,2.5c0.1,0.1,0.1,0.2,0.1,0.2  S20.5,12.1,20.4,12.2z M12,8.8c-1.8,0-3.2,1.5-3.2,3.2s1.5,3.2,3.2,3.2s3.2-1.5,3.2-3.2S13.8,8.8,12,8.8z M12,13.8  c-1,0-1.8-0.8-1.8-1.8s0.8-1.8,1.8-1.8s1.8,0.8,1.8,1.8S13,13.8,12,13.8z"/>
</svg>