<?xml version="1.0" encoding="UTF-8"?>
<svg version="1.1" id="Ikony" xmlns="http://www.w3.org/2000/svg" xmlns:xlink="http://www.w3.org/1999/xlink" x="0px" y="0px" viewBox="0 0 24 24" style="enable-background:new 0 0 24 24;" xml:space="preserve">
<style type="text/css">
	.st0{fill:#010101;}
</style>
<path class="st0" d="M20,12c0,0.8-0.7,1.5-1.5,1.5S17,12.8,17,12s0.7-1.5,1.5-1.5S20,11.2,20,12z M12,10.5c-0.8,0-1.5,0.7-1.5,1.5  s0.7,1.5,1.5,1.5s1.5-0.7,1.5-1.5S12.8,10.5,12,10.5z M5.5,10.5C4.7,10.5,4,11.2,4,12s0.7,1.5,1.5,1.5S7,12.8,7,12  S6.3,10.5,5.5,10.5z"/>
</svg>