<?xml version="1.0" encoding="UTF-8"?>
<svg width="24" height="24" viewBox="0 0 24 24" fill="none" xmlns="http://www.w3.org/2000/svg">
<path fill-rule="evenodd" clip-rule="evenodd" d="M12.591 4.53132L11.9999 4.46831L11.4088 4.53122C8.64968 4.82489 6.49944 7.16233 6.49944 10V12.619C6.49944 13.4762 6.18487 14.3036 5.61537 14.9443L4.08333 16.6678C3.79671 16.9903 4.02561 17.5 4.45704 17.5H11.5497L11.5527 17.5C11.8499 17.4987 12.1509 17.4987 12.4482 17.5L12.4501 17.5L12.4531 17.5H19.5458C19.9772 17.5 20.2061 16.9903 19.9195 16.6678L18.3835 14.9399C17.814 14.2992 17.4994 13.4718 17.4994 12.6146V10C17.4994 7.16263 15.3497 4.82538 12.591 4.53132ZM12.4531 19L12.4436 19C12.15 18.9987 11.8528 18.9987 11.5592 19L11.5497 19H9.5V19.5C9.5 19.8842 9.64443 20.2346 9.88195 20.5C10.1566 20.8069 10.5557 21 11 21H13C13.4443 21 13.8434 20.8069 14.1181 20.5C14.3556 20.2346 14.5 19.8842 14.5 19.5V19H12.4531ZM11.25 3.03965C7.73641 3.41362 4.99944 6.38718 4.99944 10V12.619C4.99944 13.1088 4.81968 13.5816 4.49426 13.9477L2.96222 15.6713C1.81573 16.9611 2.73134 19 4.45704 19H8V19.5C8 21.1569 9.34314 22.5 11 22.5H13C14.6569 22.5 16 21.1569 16 19.5V19H19.5458C21.2715 19 22.1871 16.9611 21.0406 15.6713L19.5046 13.9433C19.1792 13.5772 18.9994 13.1044 18.9994 12.6146V10C18.9994 6.38757 16.2631 3.41425 12.75 3.03977V2C12.75 1.58579 12.4142 1.25 12 1.25C11.5858 1.25 11.25 1.58579 11.25 2V3.03965Z" fill="black"/>
</svg>