<?xml version="1.0" encoding="UTF-8"?>
<svg width="24" height="24" viewBox="0 0 24 24" fill="none" xmlns="http://www.w3.org/2000/svg">
<path d="M12.75 2C12.75 1.58579 12.4142 1.25 12 1.25C11.5858 1.25 11.25 1.58579 11.25 2V3.03809C7.73641 3.41206 4.99944 6.38562 4.99944 9.99844V12.6174C4.99944 13.1073 4.81968 13.5801 4.49426 13.9462L2.96222 15.6697C1.81573 16.9595 2.73134 18.9984 4.45704 18.9984H11.5497L11.5592 18.9984C11.8528 18.9971 12.15 18.9971 12.4436 18.9984L12.4531 18.9984H19.5458C21.2715 18.9984 22.1871 16.9595 21.0406 15.6697L19.5046 13.9418C19.1792 13.5757 18.9994 13.1029 18.9994 12.613V12.25C18.9994 11.8358 18.6637 11.5 18.2494 11.5C17.8352 11.5 17.4994 11.8358 17.4994 12.25V12.613C17.4994 13.4702 17.814 14.2976 18.3835 14.9383L19.9195 16.6663C20.2061 16.9887 19.9772 17.4984 19.5458 17.4984H12.4531L12.4501 17.4984C12.1522 17.4971 11.8506 17.4971 11.5527 17.4984L11.5497 17.4984H4.45704C4.02561 17.4984 3.79671 16.9887 4.08333 16.6663L5.61537 14.9427C6.18487 14.302 6.49944 13.4746 6.49944 12.6174V9.99844C6.49944 6.96087 8.96188 4.49844 11.9994 4.49844C12.3977 4.49844 12.75 4.19459 12.75 3.79637V2Z" fill="#52575F"/>
<path d="M9.5 19H8V19.5C8 21.1569 9.34315 22.5 11 22.5H13C14.6569 22.5 16 21.1569 16 19.5V19H14.5V19.5C14.5 20.3284 13.8284 21 13 21H11C10.1716 21 9.5 20.3284 9.5 19.5V19Z" fill="#52575F"/>
<circle cx="18" cy="6" r="4" fill="#CD291C"/>
</svg>