<?xml version="1.0" encoding="UTF-8"?>
<svg version="1.1" id="Ikony" xmlns="http://www.w3.org/2000/svg" xmlns:xlink="http://www.w3.org/1999/xlink" x="0px" y="0px" viewBox="0 0 24 24" style="enable-background:new 0 0 24 24;" xml:space="preserve">
<path d="M19.2,7.7l-5.2-4.9C13.6,2.2,12.9,2,12.2,2H5.8C4.8,2,4,2.8,4,3.7l0,16.5c0,1,0.8,1.8,1.8,1.8h6c0.4,0,0.8-0.3,0.8-0.8  c0-0.4-0.3-0.8-0.8-0.8h-6c-0.1,0-0.2-0.1-0.2-0.2l0-16.5c0-0.1,0.1-0.2,0.2-0.2h6.4c0,0,0,0,0,0v4.3c0,1,0.8,1.8,1.8,1.8h4.4  c0,0,0.1,0,0.1,0c0,0,0,0,0,0l0,1.7c0,0.4,0.3,0.8,0.7,0.8h0c0.4,0,0.8-0.3,0.8-0.7l0-1.7C20,8.8,19.8,8.2,19.2,7.7z M13.7,7.8V4.5  L17.4,8H14C13.8,8,13.7,7.9,13.7,7.8z M16,14.4c-0.2-0.2-0.2-0.5-0.2-0.5s0.1-0.3,0.3-0.5c0.2-0.1,0.4-0.1,0.6,0l0.2,0.1  c0.1,0,0.1,0.1,0.1,0.2c0.1,0.4,0.6,0.6,1,0.5c0.4-0.1,0.6-0.6,0.5-1c-0.1-0.4-0.4-0.7-0.7-0.9l-0.2-0.1c-0.6-0.4-1.4-0.5-2.1-0.2  c-0.7,0.3-1.1,0.9-1.2,1.6c-0.1,0.4,0,0.8,0.2,1.1c-0.4,0.3-0.7,0.8-0.7,1.4c-0.1,0.7,0.2,1.4,0.8,1.9l2,1.5  c0.2,0.2,0.2,0.4,0.2,0.5s-0.1,0.3-0.3,0.5c-0.2,0.1-0.4,0.1-0.6,0l-0.2-0.1c-0.1,0-0.1-0.1-0.1-0.2c-0.1-0.4-0.6-0.6-1-0.5  s-0.6,0.6-0.5,1c0.1,0.4,0.4,0.7,0.7,0.9l0.2,0.1c0.3,0.2,0.8,0.4,1.2,0.4l0,0c0.3,0,0.6-0.1,0.9-0.2c0.6-0.3,1.1-0.9,1.2-1.6  c0.1-0.4,0-0.8-0.2-1.1c0.4-0.3,0.7-0.8,0.8-1.4c0.1-0.7-0.2-1.4-0.8-1.9L16,14.4z M15.4,16.9c-0.2-0.2-0.2-0.4-0.2-0.5  c0-0.1,0.1-0.3,0.3-0.4l1.6,1.2c0.2,0.2,0.2,0.4,0.2,0.5c0,0.1-0.1,0.3-0.3,0.4L15.4,16.9z"/>
</svg>