<?xml version="1.0" encoding="UTF-8"?>
<svg id="Ikony" xmlns="http://www.w3.org/2000/svg" viewBox="0 0 24 24">
  <defs>
    <style>
      .cls-1 {
        fill: #010101;
      }
    </style>
  </defs>
  <path class="cls-1" d="m20,4H4c-1.1,0-2,.9-2,2v12c0,1.1.9,2,2,2h16c1.1,0,2-.9,2-2V6c0-1.1-.9-2-2-2Zm.5,14c0,.28-.22.5-.5.5H4c-.28,0-.5-.22-.5-.5V6c0-.28.22-.5.5-.5h16c.28,0,.5.22.5.5v12Zm-6.75-1.37c0,.41-.34.75-.75.75s-.75-.34-.75-.75c0-1.28-1-2.28-2.28-2.28h-1.8c-1.28,0-2.28,1-2.28,2.28,0,.41-.34.75-.75.75s-.75-.34-.75-.75c0-2.12,1.66-3.78,3.78-3.78h1.8c2.12,0,3.78,1.66,3.78,3.78Zm-4.68-4.42c1.33,0,2.42-1.08,2.42-2.42s-1.08-2.42-2.42-2.42-2.42,1.08-2.42,2.42,1.08,2.42,2.42,2.42Zm0-3.33c.5,0,.92.41.92.92s-.41.92-.92.92-.92-.41-.92-.92.41-.92.92-.92Zm9.93.13c0,.41-.34.75-.75.75h-3.72c-.41,0-.75-.34-.75-.75s.34-.75.75-.75h3.72c.41,0,.75.34.75.75Zm-1.34,2.5c0,.41-.34.75-.75.75h-2.38c-.41,0-.75-.34-.75-.75s.34-.75.75-.75h2.38c.41,0,.75.34.75.75Z"/>
</svg>