<?xml version="1.0" encoding="UTF-8"?>
<svg id="Ikony" xmlns="http://www.w3.org/2000/svg" viewBox="0 0 24 24">
  <path d="m7.71,20.51h-2c-.14,0-.25-.11-.25-.25l.04-16.53c0-.14.11-.25.25-.25h6.44s.04.01.06.01v4.27c0,.96.79,1.75,1.75,1.75h4.44s.06-.01.09-.02c0,0,0,.01,0,.02v1.97c-.01.41.32.75.74.75h0c.41,0,.75-.33.75-.75v-1.98c0-.69-.28-1.37-.79-1.86l-5.16-4.93c-.51-.49-1.18-.75-1.89-.75h-6.44c-.96,0-1.75.79-1.75,1.75l-.04,16.53c0,.96.79,1.75,1.75,1.75h2c.41,0,.75-.34.75-.75s-.34-.75-.75-.75Zm9.72-12.49h-3.43c-.14,0-.25-.11-.25-.25v-3.27l3.68,3.52Zm1.45,7.84c-.18-.08-.28-.26-.26-.45.08-.78-.28-1.5-.96-1.89-.67-.39-1.49-.35-2.12.11,0,0,0,0,0,0-.15.11-.36.11-.52,0-.63-.46-1.44-.5-2.12-.11-.68.39-1.04,1.11-.96,1.89.02.19-.08.37-.26.45-.71.31-1.16,1-1.16,1.77s.44,1.46,1.16,1.78c.18.08.28.26.26.45-.08.78.28,1.5.96,1.89.31.18.64.26.97.26.4,0,.8-.13,1.14-.38.16-.11.36-.11.52,0,.63.46,1.44.5,2.12.12.67-.39,1.04-1.11.96-1.89-.02-.19.08-.37.26-.45.71-.31,1.16-1,1.16-1.78s-.44-1.46-1.16-1.77Zm-.61,2.18c-.78.34-1.24,1.14-1.15,1.98.03.26-.14.38-.22.43s-.27.13-.48-.03c-.68-.5-1.6-.5-2.29,0-.21.15-.4.07-.48.03-.07-.04-.24-.17-.22-.43.09-.84-.37-1.64-1.15-1.98-.24-.1-.26-.32-.26-.4s.03-.3.26-.4c.78-.34,1.24-1.14,1.14-1.98-.03-.26.14-.38.22-.43.04-.02.12-.06.22-.06.08,0,.17.02.25.09.69.5,1.61.5,2.29,0,.21-.15.41-.07.48-.03.08.04.25.17.22.43-.09.84.37,1.64,1.14,1.99.24.1.26.32.26.4s-.03.3-.26.4Z"/>
</svg>