<?xml version="1.0" encoding="UTF-8"?>
<svg id="Ikony" xmlns="http://www.w3.org/2000/svg" viewBox="0 0 24 24">
  <defs>
    <style>
      .cls-1 {
        fill: #010101;
      }
    </style>
  </defs>
  <path class="cls-1" d="m2.6,8v-2.64c0-1.52,1.24-2.75,2.75-2.75h2.64c.41,0,.75.34.75.75s-.34.75-.75.75h-2.64c-.69,0-1.25.56-1.25,1.25v2.64c0,.41-.34.75-.75.75s-.75-.34-.75-.75Zm5.4,11.9h-2.64c-.69,0-1.25-.56-1.25-1.25v-2.64c0-.41-.34-.75-.75-.75s-.75.34-.75.75v2.64c0,1.52,1.24,2.75,2.75,2.75h2.64c.41,0,.75-.34.75-.75s-.34-.75-.75-.75Zm12.65-4.65c-.41,0-.75.34-.75.75v2.64c0,.69-.56,1.25-1.25,1.25h-2.64c-.41,0-.75.34-.75.75s.34.75.75.75h2.64c1.52,0,2.75-1.24,2.75-2.75v-2.64c0-.41-.34-.75-.75-.75Zm-2-12.65h-2.64c-.41,0-.75.34-.75.75s.34.75.75.75h2.64c.69,0,1.25.56,1.25,1.25v2.64c0,.41.34.75.75.75s.75-.34.75-.75v-2.64c0-1.52-1.24-2.75-2.75-2.75Zm-2.16,6.22c-.29-.29-.77-.29-1.06,0l-4.76,4.76-2.09-2.09c-.29-.29-.77-.29-1.06,0s-.29.77,0,1.06l2.62,2.62c.14.14.33.22.53.22s.39-.08.53-.22l5.29-5.29c.29-.29.29-.77,0-1.06Z"/>
</svg>