<svg width="24" height="24" viewBox="0 0 24 24" fill="none" xmlns="http://www.w3.org/2000/svg">
<path d="M16.65 6.48H15.39C15.39 6.43 15.41 6.38 15.41 6.33V2.94C15.41 2.42 14.99 2 14.47 2C13.95 2 13.53 2.42 13.53 2.94V6.33C13.53 6.38 13.53 6.43 13.55 6.48H10.4C10.4 6.43 10.42 6.38 10.42 6.33V2.94C10.42 2.42 10 2 9.48001 2C8.96001 2 8.54001 2.42 8.54001 2.94V6.33C8.54001 6.38 8.54001 6.43 8.56001 6.48H7.35001C6.49001 6.48 5.79001 7.18 5.79001 8.04V9.5C5.79001 12.45 7.96001 14.9 10.79 15.35H10.14C9.45001 15.35 8.89001 15.91 8.89001 16.6C8.89001 17.29 9.45001 17.85 10.14 17.85H10.75V20.75C10.75 21.44 11.31 22 12 22C12.69 22 13.25 21.44 13.25 20.75V17.85H13.86C14.55 17.85 15.11 17.29 15.11 16.6C15.11 15.91 14.55 15.35 13.86 15.35H13.12C13.2 15.35 13.29 15.35 13.37 15.33C16.12 14.82 18.22 12.41 18.22 9.51V8.05C18.22 7.19 17.52 6.49 16.66 6.49L16.65 6.48Z" fill="black"/>
</svg>
