<?xml version="1.0" encoding="UTF-8"?>
<svg width="32" height="32" viewBox="0 0 32 32" fill="none" xmlns="http://www.w3.org/2000/svg">
<path d="M1 16C1 31 1 31 16 31C31 31 31 31 31 16C31 1 31 1 16 1C1 1 1 1 1 16Z" fill="#DDDDDD" fill-opacity="0.3"/>
<path fill-rule="evenodd" clip-rule="evenodd" d="M14.3506 5.19776C14.7042 5.81342 14.8412 6.40293 15.0366 6.95993C15.3586 6.91752 15.7283 7.00234 16.0924 7.0292C16.5092 7.10908 16.8368 7.14583 17.1482 7.09847C17.338 6.21703 17.5017 5.77667 17.882 5.161C17.7133 5.27763 17.3598 5.32004 17.2171 5.53281C17.0062 5.3469 16.8424 5.46353 16.737 5.66004C16.7742 5.501 16.7264 5.36811 16.5205 5.35185C16.6421 5.12354 16.4516 5.00691 16.2569 5.10799C16.2513 4.90654 16.0931 4.90654 16.0826 4.7998C16.0559 4.92209 15.9139 4.86342 15.935 5.161C15.7768 5.03377 15.6179 5.11859 15.6819 5.34125C15.4865 5.34125 15.4338 5.50029 15.4549 5.70245C15.3227 5.39426 15.0746 5.48474 14.9853 5.59642C14.8321 5.28824 14.7112 5.48474 14.3569 5.19847L14.3506 5.19776Z" fill="white"/>
<path fill-rule="evenodd" clip-rule="evenodd" d="M17.4547 6.76904C17.2333 7.1564 17.1327 7.18326 16.1508 7.02916C15.3748 6.94929 14.6725 6.73158 14.6409 7.43772C14.8996 7.46953 15.2742 7.49639 15.4324 8.04844L14.9572 8.45699C14.6191 8.51001 14.0912 8.96098 13.7433 8.54182C13.6484 8.93482 14.0069 9.0458 14.3872 9.03025C14.6508 9.00339 14.7358 8.92917 15.2264 8.83374L15.3586 8.97723C16.103 9.04085 16.4882 10.1075 15.2792 10.7394C15.2314 10.8829 15.3108 11.0582 15.4219 11.0794C15.0732 11.5784 14.4926 12.199 14.2866 11.7905C14.2388 11.8386 14.1018 12.1778 14.3661 12.3637C14.1657 12.6133 14.0919 12.9052 14.1025 13.2395C13.3054 13.1123 12.7831 12.9794 12.9624 12.2309C13.8066 12.2683 14.0392 11.2434 13.9127 10.7231C13.4221 8.64219 10.751 6.97049 8.80814 6.91748C8.91358 7.48579 9.26222 7.89434 9.65796 8.27109C9.14062 8.01663 8.54455 7.77206 7.91614 7.90495C7.98995 8.35097 8.22753 8.87121 9.24605 9.71518C8.51221 9.27977 7.84234 8.85 7.60475 8.50506C7.49931 8.64855 7.44097 9.23241 8.06375 9.65722C7.86342 9.57735 6.88637 9.583 6.59115 9.80071C6.77039 10.2093 7.58858 10.926 8.25916 11.1487C7.62022 11.0532 7.02415 10.7981 6.48009 10.3316C6.40066 10.4058 6.48009 11.1649 7.16121 11.4618C6.9398 11.4781 6.18979 11.6901 6 11.929C6.39082 12.4542 7.39317 12.9165 7.88943 12.9165C7.21393 13.007 6.46955 12.8684 6.16308 12.773C6.1687 12.9483 6.02601 13.6488 7.87889 13.5322C7.21885 13.8453 6.2165 14.5034 6.05764 15.0766C6.70151 15.3636 7.85218 15.1247 8.44895 14.9388C6.68604 16.0217 6.4112 16.1334 6.08435 16.0584C6.51172 16.966 7.54149 16.3504 8.42786 15.8464C7.33554 17.3166 7.15559 18.0652 7.1823 19.1106C8.06375 19.0046 9.33603 17.7358 10.0172 16.6529C9.23059 18.2822 8.76104 19.5884 7.9056 19.9758C8.88195 20.3631 9.72122 19.1318 10.3124 17.8206C10.0853 18.6483 9.99536 20.4055 10.2807 20.8353C11.1622 20.2352 11.8328 18.8978 12.2812 17.364C12.128 18.1175 12.0176 18.8766 11.7379 19.6301C12.3079 19.7362 12.5982 18.7119 12.788 18.1118C12.8042 18.1436 12.8253 18.1705 12.8829 18.2235C13.6006 17.6983 13.8276 16.4825 13.8804 16.0104C14.5348 16.1963 14.8251 15.9574 14.9889 15.8351C15.1316 16.0365 15.1421 16.3447 15.1843 16.3871C14.4715 15.8033 13.7117 16.3871 13.68 17.3583C13.6006 17.7619 13.3897 18.2292 12.8513 18.5897C12.8829 18.6321 12.9624 18.6533 13.0573 18.6483C12.9624 18.813 12.878 18.9509 12.7192 19.0993C12.7613 19.1262 12.8091 19.1262 12.8618 19.1368C12.7402 19.3382 12.5448 19.5241 12.3445 19.6252C12.3923 19.6733 12.4183 19.6888 12.5659 19.7263C12.4338 19.9016 12.2173 20.0663 12.012 20.1511C12.4028 20.3843 12.6981 20.4112 12.9413 20.39C12.788 20.6982 12.5399 20.8516 12.2974 20.9901C12.3712 21.0594 12.4661 21.0749 12.5399 21.0537C12.3185 21.282 12.0858 21.4623 11.8799 21.5316C11.9171 21.5584 11.9431 21.6008 12.0802 21.5902C11.9326 21.7761 11.7477 21.9564 11.4258 22.0412C11.4891 22.1635 11.6212 22.1472 11.7323 22.1472C11.6423 22.3381 11.3682 22.4017 11.0884 22.4604C11.2993 22.519 11.442 22.6357 11.3154 22.6038C11.2311 22.7049 11.1467 22.7579 10.9668 22.7897C10.7819 22.8166 10.1113 22.5777 9.84283 22.6675C9.76902 22.5134 9.58416 22.4073 9.38875 22.4073C9.14062 22.4073 8.89811 22.5664 8.88195 22.7897C8.84469 22.7629 8.68162 22.7417 8.70762 22.9332C8.76597 23.0449 8.77089 23.1403 9.12445 23.2782C9.18279 23.305 9.25098 23.3156 9.34095 23.3156C9.46747 23.31 9.61016 23.2464 9.7156 23.1509C9.89484 23.1884 10.0903 23.2202 10.1957 23.2626C9.91593 23.2838 9.81541 23.4429 9.65726 23.5546C9.58837 23.5546 9.53566 23.5333 9.47239 23.5227C9.43514 23.5171 9.39859 23.5121 9.36133 23.5121C9.161 23.5227 8.95505 23.7511 8.93396 24.0112C8.93396 24.0642 8.9445 24.1123 8.96559 24.1596V24.202C8.90233 24.2762 8.92834 24.3349 8.98668 24.3773C9.23481 24.4727 9.3775 24.4148 9.46677 24.3985C9.68819 24.3717 9.87868 24.1865 9.87868 23.9794C10.1423 23.9313 10.4009 23.8571 10.5493 23.7511C10.5549 23.7673 10.5598 23.7829 10.5598 23.8041C10.4698 23.8571 10.3173 23.9476 10.2379 24.2126C10.2112 24.2126 10.1901 24.2126 10.169 24.2126C9.86813 24.2126 9.79433 24.4197 9.79925 24.595C9.79925 24.7597 9.86251 24.8707 9.95248 24.935C9.93632 25.0411 9.94686 25.1259 10.053 25.1577C10.4122 25.2164 10.5015 25.0248 10.5703 25.0304C10.5703 24.9824 10.576 24.9506 10.5914 24.9188C10.7025 24.8658 10.7763 24.8233 10.7868 24.6162C10.7974 24.489 10.7763 24.4091 10.7341 24.3561H10.7447C11.0722 24.0748 11.2831 23.8521 11.4258 23.6606C11.5523 23.6924 11.8377 23.6818 11.9748 23.6337V23.6867C11.8377 23.814 11.927 24.1165 12.1013 24.1059C12.0957 24.1328 12.0957 24.1589 12.1013 24.1907C12.2124 24.26 12.4232 24.2119 12.5814 24.2494C12.6657 24.2388 12.703 24.1858 12.6819 24.0741C12.8084 23.9942 12.8984 23.8564 12.8773 23.6867C12.8773 23.4478 12.6924 23.257 12.4605 23.2407C12.2124 23.2139 11.9804 23.3891 12.0275 23.0075C12.703 22.2059 13.6217 20.9901 13.8747 20.8473C13.8537 20.8205 13.8431 20.7887 13.8269 20.7519C13.9275 21.017 14.3021 21.2983 14.7035 21.2721C14.6297 21.1343 14.5502 21.012 14.5242 20.6459C14.5826 20.7307 14.6824 20.7731 14.8096 20.8C14.6248 19.9454 14.8996 19.2392 15.4697 18.5974C15.4219 19.4251 15.322 20.2585 14.8202 21.0975C15.0788 21.1774 15.4113 20.9173 15.4591 20.7576C15.5118 21.5005 14.8096 22.4618 14.2606 21.9995C13.9176 22.7636 14.7358 23.1297 15.2475 22.6894C15.1576 23.1509 14.804 23.4217 14.4139 23.5277C14.0231 23.6337 13.6168 23.469 13.8754 22.8378C13.8227 22.806 13.0362 22.7848 13.0151 23.6443C13.0362 24.1377 13.3743 24.3293 13.4003 24.3342C12.2812 25.1831 13.4108 26.1338 14.3295 25.9529C15.0577 25.8412 15.4753 25.2418 15.7389 24.8113C15.6594 25.1245 15.327 26.1169 16.1719 27.1998C17.0055 25.8886 16.652 25.0078 16.6309 24.8693C17.2853 25.8829 17.9348 25.9571 18.3143 25.9359C18.9688 25.9465 19.8924 24.9166 18.7157 24.2536C19.3174 23.9666 19.3596 22.7671 18.5098 22.7092C18.6841 23.1813 18.3143 23.4683 17.9081 23.4309C17.5018 23.3934 17.1271 23.1601 16.9844 22.6293C17.7865 23.0166 18.1562 22.2525 17.8821 21.844C17.2009 22.4123 16.8741 21.499 16.7841 20.9576C16.9584 21.0905 17.1117 21.1378 17.402 21.0954C16.8481 20.3787 16.7159 19.4131 16.6681 18.5105C17.0484 19.1155 17.4174 19.8535 17.4069 20.5808C17.4969 20.5384 17.5756 20.5278 17.7288 20.209C17.745 20.7505 17.681 20.8247 17.4969 21.053C17.7977 21.1803 18.1885 20.9364 18.3734 20.6127C18.954 21.398 19.5824 22.2101 20.189 22.8364C20.3212 22.9742 20.3683 23.1121 20.1201 23.1601C19.3392 22.8682 19.2541 23.691 19.5817 23.8027C19.555 23.8769 19.5501 23.9567 19.5712 24.0359C19.7244 24.084 20.0407 23.956 20.125 23.9511C20.1623 23.9136 20.1623 23.8394 20.1623 23.7652C20.2417 23.7652 20.2945 23.7171 20.331 23.6535C20.4842 23.6853 20.6318 23.7016 20.8273 23.5418L21.4079 24.1257C21.4395 24.1419 21.3762 24.2056 21.4606 24.2162C21.3973 24.6035 21.5449 24.6459 21.6715 24.747C21.6447 25.1188 22.1993 24.906 22.2521 24.9272C22.3104 24.8898 22.3153 24.853 22.3048 24.8106C22.368 24.7414 22.3364 24.7095 22.3153 24.6622C22.5895 24.2374 22.1993 23.9136 21.9829 23.9511C21.7509 23.6966 21.5871 23.5899 21.4022 23.4365C21.7825 23.58 22.368 23.7447 22.5374 23.8663C22.6007 24.3017 22.981 24.1207 23.2607 24.137C23.3451 24.0147 23.3029 23.978 23.2607 23.9355C23.6249 23.4577 22.8545 23.0704 22.5269 23.3517C22.3315 23.1714 22.1628 23.1396 21.9885 23.0647C22.0623 22.9905 22.2155 22.9318 22.5691 22.9106C22.7272 23.0166 22.8805 23.0541 23.0386 22.9375C23.1075 23.0859 23.239 23.0492 23.2868 23.0223C23.4027 22.8894 23.4027 22.688 23.4344 22.5021C23.4027 22.4328 23.3549 22.3904 23.2657 22.396C23.0281 21.9875 22.5691 22.237 22.5424 22.4172C22.1466 22.449 21.7931 22.5021 21.3755 22.6668C21.2385 22.7092 21.1063 22.5607 20.9903 22.4702C21.0958 22.4278 21.1907 22.3798 21.1857 22.29C21.017 22.2737 20.8533 22.29 20.6579 22.0829L20.7106 21.9451C20.5573 21.897 20.3992 21.786 20.1989 21.4729C20.241 21.446 20.2783 21.4036 20.3148 21.335C20.0878 21.282 19.9029 21.1598 19.7553 20.9845C19.808 20.9576 19.8608 20.9102 19.9086 20.836C19.6977 20.7088 19.4966 20.5971 19.0904 20.0663V20.0606C19.5177 20.1299 19.9613 20.0924 20.2199 19.8959C20.0091 19.8372 19.6443 19.7157 19.4756 19.3969C19.555 19.3912 19.6021 19.3757 19.6548 19.3594C19.3378 19.1474 19.2534 19.0357 19.1691 18.8604C19.238 18.866 19.3329 18.8335 19.3645 18.7911C19.1585 18.6957 19.0686 18.5684 18.9948 18.4299C19.0791 18.4299 19.1691 18.4462 19.2373 18.3981C18.4247 18.032 18.5407 16.1206 17.6641 16.1157C17.2733 16.1475 17.2051 16.2323 17.0041 16.3334C17.0625 16.1687 17.1623 16.0146 17.2677 15.8662C17.7429 16.0888 18.1232 15.9616 18.2497 15.8499C18.3129 16.6197 18.5611 17.4424 19.089 17.851C19.1789 17.798 19.2893 17.7344 19.3525 17.6601C19.4474 18.3712 19.7117 19.3106 20.3078 19.2315C20.0337 18.5465 20.0386 17.8567 20.007 17.1668C20.2551 19.1785 20.8729 20.3518 21.379 20.7074C21.611 20.3942 21.7853 18.9289 21.675 18.0426C22.1761 18.9501 22.7307 19.7941 23.1954 19.7892C23.4062 19.7892 23.6389 19.6139 23.7816 19.5715C23.0534 19.2739 22.5571 17.9259 22.1136 17.0876C22.9529 18.4094 23.9503 19.0039 24.4206 19.0943C24.4367 18.6858 24.526 17.5442 23.4808 15.9574C25.3491 16.9498 25.7455 16.308 25.8559 15.968C25.0117 16.2655 23.8765 15.172 23.1166 14.8264L23.1061 14.7946C24.2195 15.3042 25.3126 15.4795 25.9937 15.0491C25.4131 14.1464 24.8479 13.8177 24.2357 13.5838C25.4447 13.7166 25.8404 13.3081 25.8664 12.8515C25.4229 12.9999 25.0166 13.0268 24.4887 12.9419C25.645 12.7087 25.8559 12.2146 25.8454 12.1672C25.5494 11.934 24.9899 11.6739 24.4838 11.6258C25.877 11.1218 25.4342 10.644 25.3814 10.4955C24.9484 10.9041 24.1935 11.196 24.0564 11.1854C24.7059 10.8454 25.2704 9.94844 25.2338 9.84807C24.9063 9.67843 24.2364 9.68903 23.9616 9.7682C24.2308 9.47061 24.59 8.95603 24.2624 8.53121C23.9454 8.98218 23.6445 9.21615 23.3493 9.45506C23.6234 9.11012 23.9355 8.71217 24.0459 7.9C23.6396 7.95301 23.2699 7.91626 22.742 8.26615C23.0428 7.88374 23.2326 7.51265 23.2699 7.05602C21.4486 7.18326 19.316 8.14386 18.2869 10.5436C17.9861 11.2497 18.2237 12.4436 19.1578 12.3058C19.3055 12.9108 18.9097 13.277 18.0444 13.2508C18.0283 13.0494 18.0866 12.6458 17.8441 12.4387C18.055 12.4224 18.0971 12.3164 18.14 12.2266C17.5749 12.0937 17.6649 11.9078 17.7703 10.8999C17.8441 10.9317 17.9284 10.9105 17.9917 10.8518C17.7597 10.6341 17.8336 10.2361 17.9545 8.97794C17.9755 8.43155 17.8645 8.15517 17.7436 8.05975C17.8174 8.02228 17.8652 7.96432 17.8279 7.82649C18.0866 7.77842 17.9755 7.46034 17.8701 7.35431C17.8174 7.4978 17.596 7.55082 17.3844 7.39178C17.6431 7.27515 17.6431 6.98322 17.4476 6.78106L17.4547 6.76904ZM18.5105 20.2995C18.5105 20.2995 18.5266 20.3207 18.5372 20.3313C18.5266 20.3207 18.521 20.3151 18.5105 20.3045V20.2995ZM13.1789 20.3363C13.1521 20.4317 13.1999 20.6918 13.2056 20.8615C13.2899 20.9039 13.4432 20.8615 13.6175 20.7922C13.6069 20.7922 13.5964 20.8028 13.5908 20.8028C13.4586 20.8509 13.3005 20.9039 13.2056 20.8615L13.1739 20.4741C13.1683 20.4317 13.1683 20.3836 13.1796 20.3306L13.1789 20.3363ZM13.1156 20.3525C13.1156 20.3525 13.084 20.3631 13.0734 20.3631C13.0896 20.3631 13.1051 20.3575 13.1156 20.3525ZM18.6208 20.3999C18.8162 20.5434 19.0538 20.5434 19.1382 20.5222C19.1382 20.5116 19.1487 20.501 19.1543 20.4904C19.1543 20.501 19.1487 20.5172 19.1438 20.5278C18.9638 20.554 18.7846 20.5271 18.6208 20.3999ZM16.9212 23.85C17.1004 24.0409 17.8026 24.5611 18.6103 24.3116C18.6792 24.7732 18.2883 24.9435 17.9819 24.8848C17.681 24.8212 17.2326 24.5823 16.9212 23.855V23.85ZM15.3115 23.9666C15.0479 24.4706 14.6149 24.8954 14.2241 24.9965C13.8389 25.0976 13.4748 24.906 13.6168 24.3964C14.4561 24.6777 15.1372 24.1787 15.3115 23.961V23.9666Z" fill="white"/>
<path fill-rule="evenodd" clip-rule="evenodd" d="M11.4476 14.6463C11.1622 14.312 11.2051 14.0999 11.2156 13.9776C10.9042 13.7387 10.9836 13.6482 10.9302 13.5528C11.0413 13.7436 11.1467 13.8716 11.2578 13.8871C11.4637 14.078 11.6697 14.1416 11.8756 14.2639C10.6139 13.5684 10.9625 12.7194 10.978 12.4749C10.7826 12.4805 10.635 12.4431 10.5296 12.3632C10.5668 12.0182 10.746 11.7419 11.1263 11.551C11.0785 11.5673 11.0314 11.5885 10.9836 11.5991C10.9415 11.5885 10.8304 11.3071 10.9675 11.1212C11.0469 11.0732 11.2578 11.052 11.4743 11.1375C11.6008 10.8774 11.7646 10.6491 12.1076 10.5586C12.1919 10.6491 12.3346 10.9092 12.2341 11.3651C12.3768 11.4181 12.5139 11.4817 12.6249 11.6521C12.5877 11.7956 12.5561 11.838 12.5195 11.8747C13.0734 11.8804 13.1268 11.1 12.509 11.0202C12.6095 10.2879 11.6753 9.85245 11.2683 10.7551C10.519 10.5536 10.318 11.1375 10.6034 11.5991C10.5134 11.6683 9.7697 12.2147 10.4768 13C10.4768 13.3874 10.5717 13.7641 11.0947 14.0935C11.2423 14.5396 11.3372 14.5396 11.4483 14.635V14.6463H11.4476Z" fill="#DFDDE2"/>
<path fill-rule="evenodd" clip-rule="evenodd" d="M20.7218 10.5536L20.8223 10.3627C21.4978 10.2567 21.9041 10.7077 21.6405 11.2442C22.1839 11.7114 21.883 12.3214 21.5562 12.4387C21.947 12.1468 21.7305 12.0563 21.6672 12.062C21.6883 12.0514 21.7199 12.0351 21.7466 12.009C21.7256 11.7545 21.625 11.51 21.2349 11.218C21.4303 11.0003 21.4093 10.7989 21.3825 10.6554C21.166 10.5967 20.9763 10.6179 20.8069 10.7034L20.7225 10.5444L20.7218 10.5536Z" fill="#DFDDE2"/>
<path fill-rule="evenodd" clip-rule="evenodd" d="M19.7876 11.8753C19.8192 11.7693 19.8459 11.5996 20.0357 11.4399C19.9774 11.4823 19.9092 11.5353 19.8354 11.5989C19.5929 11.4978 19.434 11.2752 19.3974 11.1374C19.5451 10.9408 19.9042 10.9727 19.9513 10.9833C19.8459 10.5903 19.983 10.2983 20.0779 10.1873C20.3998 10.2192 20.5685 10.3839 20.7006 10.5323L20.7955 10.357C20.7056 10.0813 20.4364 9.87422 20.12 9.93783C19.8565 9.96469 19.55 10.198 19.6716 10.7443C18.8696 11.0681 19.2126 11.8428 19.7826 11.8696L19.7876 11.8753Z" fill="#DFDDE2"/>
<path fill-rule="evenodd" clip-rule="evenodd" d="M18.0458 13.2504C18.0142 13.5479 17.9558 13.765 17.8926 13.9671C18.98 13.8024 20.5953 13.5211 20.3788 12.3166C20.1785 12.4601 19.983 12.4863 19.782 12.4919C19.7504 12.3223 19.7293 12.1364 19.7876 11.8975C19.6084 12.1413 19.3968 12.2375 19.1754 12.2905C20.1623 12.7308 18.7586 13.5168 18.1723 13.2511H18.0402L18.0458 13.2504Z" fill="#F1EEF0"/>
<path fill-rule="evenodd" clip-rule="evenodd" d="M14.1131 13.7017C14.1447 14.0417 14.2501 14.4552 14.3506 14.8432C14.2825 14.7315 14.0709 14.0629 14.1131 13.7017Z" fill="#E8E6EB"/>
<path fill-rule="evenodd" clip-rule="evenodd" d="M17.3541 13.4622C17.0905 14.5133 18.2518 14.4072 17.4385 13.335C18.23 13.8234 17.7126 14.5507 17.6704 14.7147C17.5439 14.1528 17.0589 14.0093 17.3541 13.4622Z" fill="#C3BDC9"/>
<path fill-rule="evenodd" clip-rule="evenodd" d="M12.1077 10.5854L11.7119 11.7482C11.617 11.7058 11.5221 11.6683 11.3949 11.5199C11.3949 11.1163 11.7541 10.6173 12.102 10.5854H12.1077Z" fill="white"/>
<path fill-rule="evenodd" clip-rule="evenodd" d="M12.419 12.8522L11.7119 11.7538C11.823 11.7538 11.9495 11.7538 12.1077 11.7163C12.3185 11.9128 12.5456 12.4224 12.4247 12.8522H12.419Z" fill="#C3BDC9"/>
<path fill-rule="evenodd" clip-rule="evenodd" d="M12.218 11.3823C12.4289 11.4411 12.5772 11.5841 12.6032 11.6697L12.1021 11.7178C12.1498 11.611 12.1864 11.4991 12.218 11.3823Z" fill="white"/>
<path fill-rule="evenodd" clip-rule="evenodd" d="M10.978 11.6056C10.8831 11.4676 10.8831 11.1909 10.978 11.1328L11.3949 11.5207C11.2838 11.5476 11.0835 11.5582 10.9724 11.6056H10.978Z" fill="white"/>
<path fill-rule="evenodd" clip-rule="evenodd" d="M10.54 12.3591L11.7069 11.7541C11.7069 11.7541 11.5431 11.5576 11.3955 11.5208C11.0834 11.4777 10.566 11.8707 10.54 12.3591Z" fill="white"/>
<path fill-rule="evenodd" clip-rule="evenodd" d="M11.5108 12.3636C10.9091 14.0996 13.5064 14.3703 14.1974 14.4177L14.113 13.9822C12.8569 13.9236 11.6852 13.6479 11.8595 12.6979C11.6324 12.5544 11.5853 12.4908 11.5108 12.3579V12.3636Z" fill="url(#paint0_linear_9437_17188)"/>
<path fill-rule="evenodd" clip-rule="evenodd" d="M11.5108 12.3589C11.3738 12.4282 11.1727 12.46 10.978 12.4861C10.4768 14.5932 13.7229 14.7579 14.3457 14.8378C14.2508 14.6413 14.2241 14.5402 14.1981 14.413C12.5511 14.3063 11.0307 13.6856 11.5108 12.3589Z" fill="url(#paint1_linear_9437_17188)"/>
<path fill-rule="evenodd" clip-rule="evenodd" d="M20.0934 10.1985C20.2726 10.5753 20.468 11.0213 20.6051 11.4405C20.6845 11.3238 20.7583 11.2072 20.9165 11.0743C20.8322 10.6764 20.6311 10.2572 20.0878 10.1929L20.0934 10.1985Z" fill="#C3BDC9"/>
<path fill-rule="evenodd" clip-rule="evenodd" d="M20.0934 10.1934C20.2783 10.5807 20.4892 11.0423 20.6108 11.4409L20.1672 11.3773C19.9037 11.0903 19.8404 10.5171 20.0934 10.1934Z" fill="white"/>
<path fill-rule="evenodd" clip-rule="evenodd" d="M19.413 11.1325C19.529 10.9995 19.7722 10.957 19.9669 10.9945C20.009 11.1063 20.0828 11.2599 20.1623 11.3774L19.4073 11.1332H19.413V11.1325Z" fill="#C3BDC9"/>
<path fill-rule="evenodd" clip-rule="evenodd" d="M21.3657 10.6758L20.9172 11.08L21.2132 11.2343C21.4507 11.0325 21.3819 10.6708 21.3713 10.6765H21.3657V10.6758Z" fill="#C3BDC9"/>
<path fill-rule="evenodd" clip-rule="evenodd" d="M20.9173 11.0737C20.8435 11.09 20.5953 11.4399 20.6108 11.4349L21.7348 12.0138C21.7355 11.8173 21.5611 11.3339 20.9173 11.0737Z" fill="#C3BDC9"/>
<path fill-rule="evenodd" clip-rule="evenodd" d="M20.6058 11.4351L19.7932 12.4911C20.3106 12.4699 20.5214 12.2366 20.7014 11.9496L20.6009 11.44L20.6058 11.4351Z" fill="#C3BDC9"/>
<path fill-rule="evenodd" clip-rule="evenodd" d="M21.3657 10.6758C21.1914 10.617 20.9594 10.6382 20.8005 10.7239C20.8533 10.8357 20.8905 10.9787 20.9165 11.0799L21.3657 10.6758Z" fill="white"/>
<path fill-rule="evenodd" clip-rule="evenodd" d="M20.6058 11.4351L21.741 12.0148C21.5351 12.1847 20.8807 12.0254 20.7014 11.9511L20.6058 11.4351Z" fill="white"/>
<path fill-rule="evenodd" clip-rule="evenodd" d="M20.6059 11.4352L20.1623 11.3716C19.6717 11.5787 19.7561 12.4227 19.7926 12.4863L20.6059 11.4352Z" fill="white"/>
<path fill-rule="evenodd" clip-rule="evenodd" d="M20.1573 11.377L19.413 11.1328C19.4502 11.3133 19.6716 11.5207 19.8354 11.5901C19.872 11.5582 20.0357 11.4039 20.1573 11.377Z" fill="white"/>
<path fill-rule="evenodd" clip-rule="evenodd" d="M20.717 11.9497C20.5799 12.1568 20.5377 12.2098 20.3845 12.3109C20.6481 13.5316 18.9063 13.8342 17.8983 13.9777C17.8877 14.1473 17.835 14.2858 17.7872 14.418C17.9665 14.4074 21.5401 14.3389 20.717 11.9497Z" fill="white"/>
<path fill-rule="evenodd" clip-rule="evenodd" d="M20.738 11.9663C21.2181 13.7391 19.6457 14.2438 17.7928 14.4134C17.745 14.5251 17.7028 14.6417 17.6606 14.769C20.1785 14.5937 21.4929 13.7765 21.1499 12.0674C20.9861 12.0405 20.8589 12.0031 20.738 11.9663Z" fill="url(#paint2_linear_9437_17188)"/>
<path fill-rule="evenodd" clip-rule="evenodd" d="M8.98246 24.3866C9.18279 24.4822 9.43654 24.4184 9.56869 24.376C9.6425 24.4453 9.5476 24.7214 9.75848 24.9182C9.63687 24.9713 8.967 24.7639 8.97754 24.3866H8.98246Z" fill="white"/>
<path fill-rule="evenodd" clip-rule="evenodd" d="M8.69781 22.9272C8.78216 23.198 9.01975 23.2248 9.11464 23.2828C9.11464 23.3839 8.85105 23.3782 8.84542 23.75C8.66618 23.7338 8.41243 23.3097 8.69781 22.9329V22.9272Z" fill="white"/>
<path fill-rule="evenodd" clip-rule="evenodd" d="M10.0439 25.1565C10.3715 25.2096 10.4875 25.0341 10.5613 25.0234C10.5985 25.1296 10.7462 25.2733 10.8888 25.3476C10.82 25.5918 10.0278 25.5387 10.0439 25.1565Z" fill="white"/>
<path fill-rule="evenodd" clip-rule="evenodd" d="M12.5723 24.2541C12.5512 24.2116 12.1766 24.2541 12.1077 24.1953C12.0599 24.2541 12.0444 24.4452 11.9073 24.5195C11.9973 24.6844 12.625 24.6313 12.5723 24.2484V24.2541Z" fill="white"/>
<path fill-rule="evenodd" clip-rule="evenodd" d="M13.2842 20.8883C13.3425 20.8826 13.3953 20.872 13.4424 20.8614C13.2209 21.1265 12.8512 21.5937 12.4815 21.9867C12.1117 22.3797 11.7743 22.7671 11.9009 23.1226C11.6422 22.8681 11.8742 22.613 12.2179 22.1988C12.5982 21.7485 13.0206 21.2332 13.2842 20.8883ZM12.8203 23.739C12.8203 23.9192 12.667 24.0896 12.3029 24.0733C12.7148 23.6223 11.8805 23.5905 12.0815 23.4046C12.6298 23.054 12.8625 23.5955 12.8203 23.739ZM12.4295 24.1369C12.5511 24.1638 12.6249 24.0146 12.6509 24.0889C12.7036 24.2373 12.4344 24.2642 12.4295 24.1369ZM9.64733 22.5656C9.56298 22.5656 9.58899 22.9056 9.08781 22.8893C9.07727 22.8893 9.02947 22.8893 9.00346 22.9374C8.94512 23.0491 9.14615 23.2824 9.33102 23.2717C9.4948 23.2611 9.62695 23.1657 9.7113 23.0491C9.74855 23.0279 10.0121 22.8794 9.99106 22.9431C9.67967 23.0972 9.75909 23.1926 10.2497 23.23C10.5611 23.182 10.8254 22.9113 10.9358 22.8582C10.6188 22.9113 9.94326 22.6992 9.79002 22.6992C9.76893 22.6398 9.72184 22.5925 9.64733 22.5656ZM9.09343 24.3066C9.08289 24.3334 9.06672 24.3546 9.04564 24.3702C9.13561 24.4289 9.36757 24.4126 9.39428 24.3914C9.36757 24.3914 9.17286 24.3808 9.08781 24.3066H9.09343ZM11.4109 22.895C10.9885 23.1021 10.6982 23.8507 9.65295 23.7496C9.62624 23.8401 9.5686 23.8613 9.51589 23.8874C9.29939 23.8874 9.04634 23.9355 9.05126 24.0733C9.05126 24.238 9.30993 24.344 9.47863 24.3228C9.65295 24.3016 9.8322 24.1369 9.8322 23.9722C9.8322 23.9722 9.84836 23.9454 9.86383 23.9454C11.0201 23.6959 11.1994 23.0965 11.4159 22.8893L11.4109 22.895ZM11.5951 22.9162C11.5473 23.1975 10.6342 24.0415 10.592 24.3172C10.5442 24.2797 10.4761 24.2536 10.3285 24.2585C10.4128 24.6833 10.0649 24.8106 9.96927 24.7363C9.96927 24.9272 10.2434 25.0071 10.4233 24.9696C10.6342 24.9272 10.8085 24.6034 10.6869 24.4069C10.7137 24.0563 11.1727 23.956 11.3624 23.5043C11.5311 23.5043 11.5578 23.2392 11.7638 23.1912C11.7216 23.0533 11.5473 23.2336 11.5895 22.9042L11.5951 22.9162ZM8.90365 22.9162C8.93036 23.0809 9.00417 23.1551 9.13069 23.2562C9.03017 23.2187 8.93528 23.1926 8.82422 23.0972C8.92474 23.1283 8.85093 22.8893 8.90365 22.9162ZM11.0883 22.4645C11.2837 22.5069 11.5368 22.5281 11.8798 22.5069C11.3793 22.6822 11.1523 22.6243 11.0883 22.4645ZM11.7223 22.1464C11.7223 22.1733 11.6802 22.2263 11.6429 22.2581C11.8854 22.2581 12.123 22.2051 12.2924 22.0086C12.1342 22.0828 11.9543 22.1415 11.7223 22.1415V22.1464ZM12.0654 21.5887C12.0492 21.6206 11.9859 21.6898 11.9388 21.7372C12.1392 21.7584 12.5356 21.6679 12.7092 21.4721C12.5511 21.5463 12.2973 21.5838 12.0654 21.5838V21.5887ZM12.53 21.053C12.4927 21.0904 12.3767 21.207 12.3346 21.2438C12.5349 21.265 12.9841 21.106 13.1577 20.9144C12.9995 20.9886 12.7619 21.0522 12.5349 21.0522L12.53 21.053ZM13.1738 20.4585C13.1633 20.6868 13.0839 20.8352 12.9995 20.9363C13.0684 20.9151 13.1366 20.8989 13.2055 20.8671C13.1999 20.7398 13.1893 20.5914 13.1682 20.4634L13.1738 20.4585Z" fill="#DFDDE2"/>
<path fill-rule="evenodd" clip-rule="evenodd" d="M19.5922 24.0254C19.7925 24.0735 20.0357 23.9454 20.1517 23.9404C20.2044 24.0466 20.2255 24.1634 20.4476 24.2384C20.3 24.4034 19.751 24.4564 19.5922 24.0204V24.0254Z" fill="white"/>
<path fill-rule="evenodd" clip-rule="evenodd" d="M21.8148 24.9336C21.741 25.0079 21.6616 25.0822 21.5189 25.1672C21.767 25.3958 22.2739 25.1403 22.2528 24.9173C22.205 24.8324 22.063 25.0185 21.8092 24.9336H21.8148Z" fill="white"/>
<path fill-rule="evenodd" clip-rule="evenodd" d="M22.7856 24.1372C22.7856 24.4352 22.7539 24.5145 22.7167 24.6157C22.8594 24.7113 23.2235 24.4826 23.2657 24.1323C23.2291 24.0466 23.0709 24.1953 22.7856 24.1372Z" fill="white"/>
<path fill-rule="evenodd" clip-rule="evenodd" d="M23.4561 22.4961C23.3507 22.523 23.414 22.8834 23.2924 22.9951C23.3929 23.0481 23.4611 23.181 23.5299 23.3033C23.7619 23.128 23.7514 22.624 23.4561 22.4961Z" fill="white"/>
<path fill-rule="evenodd" clip-rule="evenodd" d="M19.846 23.9939C19.9571 23.9621 20.078 23.9035 20.1201 23.9197C20.189 23.6808 20.0302 23.8186 19.846 23.9939ZM19.6872 23.8031C19.9037 23.8031 20.2094 23.8405 20.2888 23.5486C20.6269 23.7133 20.9805 23.4002 20.9011 23.1082C20.9011 23.1082 20.79 23.6073 20.0934 23.2941C19.9507 23.2729 19.761 23.3634 19.7715 23.4588C19.782 23.5811 20.0196 23.6872 19.6872 23.8094V23.8031ZM21.54 23.5585C21.7193 23.7388 21.8303 23.9091 21.7931 24.0413C21.9041 23.8822 21.9147 23.9777 21.9358 24.0413C22.0679 24.1424 22.1628 24.4498 21.8353 24.652C21.9885 24.6944 22.004 24.8323 21.8353 24.8803C21.8409 25.0238 22.231 24.8429 22.2626 24.9015C22.2943 24.8909 22.3048 24.8429 22.3104 24.8004C22.3421 24.758 22.3477 24.705 22.3104 24.6414C22.5586 24.2222 22.2521 23.9939 21.9829 23.9459C21.8191 23.7762 21.6764 23.6751 21.5344 23.5585H21.54ZM21.5506 23.1075C21.8142 23.2772 22.179 23.4101 22.522 23.6327C22.865 23.2878 23.1188 23.8554 22.6274 23.8929C22.754 24.1212 23.2769 24.1049 23.2608 23.9247C23.5883 23.3033 22.7012 23.15 22.5269 23.3726C22.2577 23.2185 22.0152 23.0489 21.6293 22.9796C22.3892 23.309 22.5213 23.4094 22.3892 23.4306C22.2683 23.4475 21.8409 23.203 21.5506 23.1075ZM21.7825 22.6297C21.9934 22.5392 22.4475 22.5498 22.5691 22.4389C22.7694 22.0727 23.1392 22.1681 23.2608 22.4071C23.3451 22.4071 23.4084 22.4233 23.4189 22.4919C23.3395 22.6672 23.3922 23.092 23.1708 22.9853C23.213 22.9534 23.1919 22.9216 23.1708 22.8898C23.0759 22.9853 23.0759 22.8792 23.0759 22.8312C22.9332 22.9959 22.865 22.969 22.7645 22.9428C22.7912 22.9322 22.8018 22.9054 22.7961 22.858C23.208 22.699 22.8489 22.2155 22.5164 22.6672C22.4053 22.699 21.9569 22.5979 21.7882 22.6191L21.7825 22.6297ZM18.4999 20.3105L18.4838 20.3586C18.6525 20.5127 20.1145 22.1314 20.5475 22.8213C20.4843 22.6728 20.5103 22.6142 20.2516 22.301C20.9116 22.6728 21.2385 22.3434 21.1963 22.2692C21.1436 22.2749 21.1063 22.2855 21.0803 22.2692C20.4681 22.5824 20.014 22.0621 19.7448 21.7172C20.0878 21.9928 20.3099 22.0409 20.6684 22.0621C20.7057 21.9985 20.7106 21.9667 20.7162 21.9349C20.6846 21.9292 20.653 21.9186 20.6319 21.9031C20.215 22.0621 19.7188 21.744 19.328 21.2132C19.6977 21.4839 19.9669 21.4571 20.22 21.4571C20.2572 21.409 20.3149 21.3722 20.3205 21.3136C20.2832 21.3136 20.2572 21.303 20.2256 21.2924C19.9669 21.3828 19.323 21.351 19.0166 20.8145C19.2274 20.958 19.465 21.0428 19.7659 20.9686C19.8242 20.9206 19.8924 20.8781 19.9029 20.8251C19.5283 20.9206 19.1642 20.9206 18.8317 20.6237C18.9266 20.6237 19.0271 20.5919 19.1276 20.5438C18.9322 20.5601 18.7263 20.5438 18.4943 20.3105H18.4999Z" fill="#DFDDE2"/>
<path fill-rule="evenodd" clip-rule="evenodd" d="M13.9711 8.78169C14.6993 9.17524 15.5336 8.28196 16.1192 8.76541C16.1824 8.76541 16.193 8.72294 16.1824 8.68047C15.5013 8.06395 14.7731 8.97351 13.9711 8.78169Z" fill="#C3BDC9"/>
<path fill-rule="evenodd" clip-rule="evenodd" d="M13.7068 19.9966L13.6484 20.0553C13.5796 20.3741 13.4109 20.6342 13.2155 20.8781C13.3947 20.9049 13.6112 20.8088 13.8171 20.7134C13.685 20.4695 13.659 20.3048 13.7012 19.9917L13.7068 19.9966Z" fill="#C3BDC9"/>
<path fill-rule="evenodd" clip-rule="evenodd" d="M13.9127 19.5663C14.0132 19.7678 14.2086 19.4391 14.2979 19.3486C14.1763 19.7841 13.9338 20.2244 14.4617 20.633C14.1925 20.6598 14.1186 20.7765 14.3668 21.0472C13.8754 20.8033 13.6013 20.4054 13.9127 19.5663Z" fill="#DFDDE2"/>
<path fill-rule="evenodd" clip-rule="evenodd" d="M14.319 19.3275C14.1503 20.1878 14.4301 20.5271 14.7099 20.6069C14.6044 19.6781 14.9735 19.0095 15.4859 18.5048C15.4543 17.6396 15.3326 17.2466 15.2378 16.626C15.2434 16.9179 15.4486 17.7089 15.3116 18.2609C15.1689 18.8398 14.7577 19.3968 14.3247 19.3332L14.319 19.3275Z" fill="#CECAD5"/>
<path fill-rule="evenodd" clip-rule="evenodd" d="M12.6144 20.2206C13.1001 20.2525 13.4958 20.0982 13.8178 19.769C13.6434 20.1994 13.2421 20.4068 12.646 20.3431C12.8625 20.3056 12.8674 20.2681 12.6144 20.2206Z" fill="#C3BDC9"/>
<path fill-rule="evenodd" clip-rule="evenodd" d="M12.5561 19.7206C12.5083 19.7948 12.4717 19.8266 12.4344 19.8641C13.1999 19.9652 13.6273 19.599 13.9176 19.2746C14.34 19.3014 14.6353 19.0201 14.889 18.7388C14.6036 18.9671 14.3084 19.153 13.9759 19.1106C13.6484 19.5884 13.1845 19.8111 12.5561 19.7156V19.7206Z" fill="#C3BDC9"/>
<path fill-rule="evenodd" clip-rule="evenodd" d="M12.8569 19.1366C12.7986 19.2589 12.7831 19.2532 12.7515 19.2956C13.0101 19.3486 13.3693 19.2476 13.9759 18.7386C14.5776 18.7224 14.8258 18.3301 15.0001 18.1548C14.6831 18.4305 14.3562 18.5796 14.0287 18.5845C13.7116 18.9139 13.3637 19.179 12.8618 19.1366H12.8569Z" fill="#C3BDC9"/>
<path fill-rule="evenodd" clip-rule="evenodd" d="M13.0523 18.6542L12.9413 18.8238C13.1522 18.8132 13.427 18.8238 14.0125 18.2774C14.461 18.182 14.868 17.842 15.2215 17.2476C14.9256 17.6137 14.6564 18.0011 14.0652 18.0541C13.912 18.4047 13.5113 18.5475 13.0516 18.6485V18.6542H13.0523Z" fill="#C3BDC9"/>
<path fill-rule="evenodd" clip-rule="evenodd" d="M17.9931 19.3701C17.9509 19.6833 17.8821 19.9646 17.745 20.1823C17.7612 20.2834 17.7555 20.3894 17.7506 20.4905C17.9615 20.2728 18.114 19.662 17.9931 19.3701Z" fill="#C3BDC9"/>
<path fill-rule="evenodd" clip-rule="evenodd" d="M18.2989 19.5195C18.5259 20.109 18.32 20.8944 17.6023 21.0322C17.8237 21.1276 18.4943 20.8201 18.5892 19.9069L19.1382 20.5282C19.1698 20.3847 19.186 20.2412 19.0854 20.0292C18.6524 19.9387 18.5098 19.7641 18.3045 19.5195H18.2989Z" fill="#C3BDC9"/>
<path fill-rule="evenodd" clip-rule="evenodd" d="M18.6525 19.71C18.9484 19.8374 19.465 20.0341 19.9824 19.8055C20.0618 19.8374 20.1356 19.8643 20.2143 19.8749C20.04 20.061 19.5438 20.1035 19.0904 20.0448C19.7139 19.9598 18.7691 19.8905 18.6525 19.71Z" fill="#C5BDCB"/>
<path fill-rule="evenodd" clip-rule="evenodd" d="M17.6234 18.6587C17.8399 18.8128 18.0775 18.9026 18.3516 18.9026C18.5576 19.2899 19.1487 19.4016 19.4812 19.3804C19.4974 19.4334 19.5339 19.4815 19.5761 19.5239C19.2963 19.5239 18.9372 19.4334 18.3882 19.0835C18.2413 19.0305 17.7183 18.7859 17.6234 18.6587Z" fill="#C4BDCB"/>
<path fill-rule="evenodd" clip-rule="evenodd" d="M17.5123 18.0752C17.7288 18.2554 17.9608 18.3459 18.2145 18.3777C18.4732 18.6534 18.7797 18.7969 19.1803 18.8499L19.2647 18.9983C19.1382 19.0089 18.5309 18.7382 18.3094 18.5311C17.9348 18.4357 17.655 18.2498 17.518 18.0801L17.5123 18.0752Z" fill="#C3BDC9"/>
<path fill-rule="evenodd" clip-rule="evenodd" d="M17.5601 17.6074C17.8082 17.8513 18.088 17.9524 18.315 17.9524C18.4837 18.1326 18.6426 18.3185 19.0011 18.4139C19.0172 18.462 19.0383 18.5044 19.0643 18.5362C18.7951 18.5362 18.4205 18.1538 18.3783 18.0959C18.0142 18.0428 17.6023 17.8569 17.5552 17.6131L17.5601 17.6074Z" fill="#C3BDC9"/>
<path fill-rule="evenodd" clip-rule="evenodd" d="M15.4015 16.5038C15.4809 16.472 15.5175 16.4296 15.5547 16.3872C15.618 16.4777 15.7129 16.4989 15.8029 16.5201C15.6285 16.5144 15.6074 16.5943 15.6918 16.7428C15.729 16.8014 15.7867 17.6666 15.8029 18.1868C15.8029 18.6696 15.8717 18.9828 15.9666 19.1955C15.5864 18.8718 15.7979 16.9294 15.4015 16.5095V16.5038Z" fill="#DFDDE2"/>
<path fill-rule="evenodd" clip-rule="evenodd" d="M16.0348 16.5414C16.2457 16.5202 16.4572 16.5096 16.7103 16.3555L16.8003 16.4615C16.621 16.8595 16.5149 17.7939 16.4045 18.6322C16.4362 18.0964 16.4467 17.6186 16.4207 17.4857C16.3623 17.1832 16.3729 17.0029 16.3785 16.9499C16.4945 16.5308 16.1782 16.6311 16.0355 16.5357L16.0348 16.5414Z" fill="#CECAD5"/>
<path fill-rule="evenodd" clip-rule="evenodd" d="M16.8846 16.5098L16.9113 16.5366C16.5521 17.3219 16.9113 19.1216 16.1409 20.0292L16.1248 19.6786C16.7103 19.2912 16.5627 17.3057 16.8846 16.5098Z" fill="#C3BDC9"/>
<path fill-rule="evenodd" clip-rule="evenodd" d="M15.5912 18.4468C15.5912 19.7311 15.7972 19.9757 14.9263 21.048C15.3326 20.708 15.7866 19.6682 15.7283 20.2627C15.8288 20.0718 15.9286 19.8803 15.9553 19.7163C15.6179 19.1367 15.6334 18.8023 15.5912 18.4468Z" fill="#C3BDC9"/>
<path fill-rule="evenodd" clip-rule="evenodd" d="M16.2983 19.8643L16.1345 20.0608L16.1823 21.7593C16.2034 21.0532 16.2407 20.4057 16.2983 19.8643Z" fill="#C3BDC9"/>
<path fill-rule="evenodd" clip-rule="evenodd" d="M16.6836 18.627C16.6414 18.892 16.6098 19.2059 16.5409 19.3805C16.6569 20.739 17.0266 20.8719 17.3324 20.9942C16.8214 20.2668 16.7208 19.2907 16.6836 18.627Z" fill="#DFDDE2"/>
<path fill-rule="evenodd" clip-rule="evenodd" d="M15.7024 20.4107C15.5442 20.7719 15.5969 21.4618 15.1534 21.9078C15.5231 21.717 15.6651 21.2547 15.6757 20.8942L15.7129 21.2766C15.5913 22.057 15.2377 22.269 14.9952 22.3114C15.0325 22.3008 15.4177 22.3807 15.7762 21.5947C15.7867 21.8817 15.5864 22.1997 15.3277 22.3058C15.5548 22.3114 15.7818 22.1043 15.8978 21.9396C15.7129 21.3826 15.708 20.8942 15.7129 20.4058L15.7024 20.4107Z" fill="#E0DEE2"/>
<path fill-rule="evenodd" clip-rule="evenodd" d="M15.8759 21.5778C15.9131 21.7637 15.9707 22.0344 16.1767 22.2995L16.1929 22.6289C16.2878 22.5016 16.6575 21.4506 16.6624 21.1056C16.6786 20.9939 16.6835 20.8667 16.7629 20.9515C16.7735 20.9572 16.784 20.9572 16.7946 20.9515C16.6835 20.8717 16.5626 20.4949 16.4775 20.3677C16.5464 20.7762 16.5935 21.3601 16.1767 22.2309C16.0502 22.0825 15.9602 21.8379 15.8759 21.5884V21.5778Z" fill="#C3BDC9"/>
<path fill-rule="evenodd" clip-rule="evenodd" d="M17.6606 22.2467C17.2122 22.48 16.827 21.9173 16.6365 21.5724L16.7208 21.1002C16.7208 21.1002 16.7581 21.0734 16.7686 21.0946C16.8424 21.6148 17.17 22.2248 17.6557 22.2517L17.6606 22.2467Z" fill="#DFDDE2"/>
<path fill-rule="evenodd" clip-rule="evenodd" d="M16.5571 21.7534L16.5093 21.8969C16.6836 22.2843 16.8896 22.4171 17.1531 22.5182C16.6309 22.2574 16.5943 22.0086 16.5571 21.7534Z" fill="#DFDDE1"/>
<path fill-rule="evenodd" clip-rule="evenodd" d="M16.0559 22.4175L16.193 22.6564L16.2984 22.4231C16.2773 23.0551 16.2401 23.8135 16.219 24.5147C16.1613 23.8078 16.0819 23.0756 16.0559 22.4175Z" fill="#DFDDE2"/>
<path fill-rule="evenodd" clip-rule="evenodd" d="M16.4622 22.0244C16.4516 22.0619 16.4354 22.0937 16.4249 22.1149C16.8895 23.8453 16.3405 24.7634 16.2189 24.9013C15.897 24.328 15.9019 23.7654 15.8281 23.2826C15.8703 23.718 15.8225 24.2807 16.1979 24.9812V25.2681C16.6569 24.6998 16.9366 23.9039 16.5831 22.1898C16.5303 22.1474 16.5036 22.0838 16.4614 22.0308L16.4622 22.0244Z" fill="#C3BDC9"/>
<path fill-rule="evenodd" clip-rule="evenodd" d="M16.0502 25.1081C16.0874 25.1717 16.124 25.2354 16.2034 25.2884C16.3039 25.1823 16.325 25.1293 16.3672 25.0601C16.2828 25.5167 16.2456 25.9677 16.1823 26.4186C16.1401 25.9726 16.1085 25.4842 16.0502 25.1025V25.1081Z" fill="#DFDDE2"/>
<path fill-rule="evenodd" clip-rule="evenodd" d="M16.8636 25.1824C16.7631 24.9598 16.6471 24.7739 16.7209 24.5293C16.7047 24.4551 16.6731 24.4445 16.6414 24.4282C16.6204 24.5611 16.5726 24.6509 16.536 24.7414C16.7103 25.7924 16.4622 26.3551 16.1768 26.8329C15.7073 26.196 15.7916 25.5111 15.786 24.9223C15.6489 26.1169 15.9336 26.6371 16.1712 26.9071V27.1991C16.8418 26.2116 16.7785 25.2885 16.6302 24.853C16.704 24.9647 16.7729 25.0863 16.8678 25.1874L16.8636 25.1824Z" fill="#C3BDC9"/>
<path fill-rule="evenodd" clip-rule="evenodd" d="M14.3246 22.1677C14.4146 23.0329 15.5069 22.7728 15.9504 22.1147L15.9082 21.998C15.4963 22.5338 14.6149 23.0166 14.3246 22.1677Z" fill="#C4BEC9"/>
<path fill-rule="evenodd" clip-rule="evenodd" d="M15.8499 22.4854C15.4485 23.3237 14.9628 23.9188 14.2979 23.9768C14.7519 24.0143 15.2376 23.6425 15.3902 23.4834C15.5012 23.2926 15.6383 23.2233 15.5012 23.4834C15.4485 23.5739 15.3958 23.6375 15.3115 23.7223C15.4169 23.6799 15.639 23.335 15.6861 23.3032C15.7072 22.942 15.7866 22.7405 15.8499 22.491V22.4854Z" fill="#DFDDE2"/>
<path fill-rule="evenodd" clip-rule="evenodd" d="M15.6861 23.3247C15.6805 23.4201 15.67 23.5156 15.67 23.5954C15.0366 24.2486 14.4926 24.4557 13.912 24.3171C14.3928 24.3277 14.9474 24.3807 15.6861 23.3247Z" fill="#C3BECA"/>
<path fill-rule="evenodd" clip-rule="evenodd" d="M13.6385 23.7017C13.5014 23.3568 13.5541 23.0754 13.7966 22.8634C13.3004 22.8528 12.762 23.7816 13.6807 24.2488C13.221 23.9781 13.1999 23.4154 13.3475 23.2295C13.448 23.0705 13.5956 23.0224 13.4902 23.2027C13.4213 23.4946 13.5485 23.6381 13.6329 23.696L13.6385 23.7017Z" fill="#DFDDE2"/>
<path fill-rule="evenodd" clip-rule="evenodd" d="M16.6097 22.2364C16.7046 22.3848 16.8206 22.5177 16.9689 22.6082C16.9268 23.4571 17.856 24.0148 18.4837 23.7759C18.1245 24.041 16.9373 23.9774 16.6097 22.2314V22.2364Z" fill="#DFDDE2"/>
<path fill-rule="evenodd" clip-rule="evenodd" d="M16.7476 23.3037V23.4048C17.1806 24.1321 17.9144 24.1583 18.1358 24.1321C17.4547 24.1208 17.0273 23.8027 16.7476 23.3037Z" fill="#C5C0CE"/>
<path fill-rule="evenodd" clip-rule="evenodd" d="M18.642 22.7729C19.2177 23.1766 19.0588 23.8028 18.4417 24.0629C18.9168 23.7498 19.1544 23.3405 18.642 22.7729Z" fill="#E1DFE3"/>
<path fill-rule="evenodd" clip-rule="evenodd" d="M17.9664 24.2373C18.5154 24.3384 19.439 23.903 18.9428 22.9424C19.4447 23.5319 18.8851 24.583 17.9664 24.2373Z" fill="#C3BDC9"/>
<path fill-rule="evenodd" clip-rule="evenodd" d="M16.7475 23.8813C16.7475 23.9344 16.7419 23.9718 16.7264 24.0616C17.196 25.001 17.4603 25.0646 17.7611 25.3092C17.1904 24.8851 16.9001 24.3966 16.7475 23.8813Z" fill="#E0DEE3"/>
<path fill-rule="evenodd" clip-rule="evenodd" d="M17.5179 25.6498C17.6185 25.6922 17.6923 25.6604 17.7766 25.6922C18.4943 25.9417 19.3814 25.5169 19.1171 24.6411C19.5866 25.1027 18.7213 26.4245 17.5229 25.6498H17.5179Z" fill="#C5BECC"/>
<path fill-rule="evenodd" clip-rule="evenodd" d="M18.7797 24.3867C19.323 24.9282 18.7635 25.6767 18.0409 25.4215C18.8113 25.5276 19.096 24.8858 18.7797 24.3867Z" fill="#C3BECA"/>
<path fill-rule="evenodd" clip-rule="evenodd" d="M13.5008 24.3807C12.7564 24.874 13.1683 25.4791 13.5113 25.6226C13.3792 25.5272 13.2421 25.1872 13.6484 25.3731C13.7805 25.4317 13.9014 25.4367 14.0181 25.4261C13.2583 25.1766 13.427 24.768 13.5008 24.375V24.3807Z" fill="#DFDDE2"/>
<path fill-rule="evenodd" clip-rule="evenodd" d="M15.6756 23.6968C15.6917 23.9512 15.7234 24.1583 15.7599 24.3181C15.5223 24.7959 15.232 25.1197 14.9368 25.348C15.2854 25.008 15.5547 24.6687 15.6706 24.3131C15.0633 25.2632 14.6465 25.4116 14.2135 25.4328C14.7519 25.3105 15.5385 24.8433 15.6812 23.7024L15.6756 23.6968Z" fill="#DFDDE2"/>
<path fill-rule="evenodd" clip-rule="evenodd" d="M15.7656 24.355C15.7818 24.4292 15.8029 24.5091 15.845 24.567C15.0796 26.0479 14.061 26.0055 13.7124 25.8832C14.3724 25.9525 14.1454 25.8302 13.9289 25.7927C14.7098 25.8196 15.4015 25.2831 15.7656 24.3592V24.355Z" fill="#C3BEC9"/>
<path fill-rule="evenodd" clip-rule="evenodd" d="M15.1372 16.212C15.2377 16.1427 15.2848 16.0634 15.3375 15.9834C15.3586 16.0259 15.3959 16.0577 15.4486 16.0952C15.3059 16.1434 15.2532 16.3557 15.1745 16.3557C15.1639 16.3076 15.1583 16.2545 15.1372 16.2071V16.212Z" fill="#C5BECB"/>
<path fill-rule="evenodd" clip-rule="evenodd" d="M15.459 16.101C15.6755 16.181 15.8969 16.1703 16.1662 15.9785C16.1929 16.0054 16.2245 16.0316 16.2561 16.0635C15.9975 16.2496 15.5701 16.2015 15.4541 16.101H15.459Z" fill="#C3BDC9"/>
<path fill-rule="evenodd" clip-rule="evenodd" d="M16.3828 16.0955C16.5361 16.1224 16.6893 16.1592 16.884 16.0474C16.9107 16.0849 16.9423 16.1167 16.9683 16.1429C16.9051 16.2066 16.5726 16.2017 16.3772 16.0948L16.3828 16.0955Z" fill="#C3BDC9"/>
<path fill-rule="evenodd" clip-rule="evenodd" d="M17.0169 15.6867C17.0647 15.7186 17.1539 15.8092 17.2383 15.8566C17.175 15.9472 17.1118 16.0477 17.0485 16.1652C16.7631 15.9154 16.9634 15.6549 17.0169 15.6867Z" fill="#C3BDC9"/>
<path fill-rule="evenodd" clip-rule="evenodd" d="M14.9417 15.7562C14.9839 15.815 15.0106 15.8518 15.0366 15.8943C15.211 15.7718 15.2686 15.6395 15.3269 15.5113C15.3002 15.4951 15.2791 15.4738 15.2581 15.437C15.121 15.6812 15.0366 15.7131 14.941 15.7612V15.7562H14.9417Z" fill="#C3BDC9"/>
<path fill-rule="evenodd" clip-rule="evenodd" d="M15.3382 15.517L15.3171 15.5545C15.6602 15.7513 16.2197 15.8999 16.9268 15.5382L16.8579 15.3945C16.3989 15.7562 15.8816 15.8199 15.3382 15.517Z" fill="#C3BDC9"/>
<path fill-rule="evenodd" clip-rule="evenodd" d="M16.9845 15.5115C17.1848 15.4741 17.1166 15.2196 17.3064 15.1454C17.6129 15.6069 18.1401 15.4903 18.3517 15.1348L18.3833 15.3949C18.183 15.5221 17.9137 15.7504 17.4646 15.5384C17.4273 15.6126 17.4224 15.7292 17.4168 15.8621C17.2221 15.7985 17.0639 15.6918 16.9845 15.5115Z" fill="#C3BDC9"/>
<path fill-rule="evenodd" clip-rule="evenodd" d="M17.6079 14.6519C17.6873 14.8005 17.6079 15.1459 17.6184 15.2634C17.4708 15.2422 17.3864 15.1197 17.307 15.0192C17.3232 15.0192 17.3337 15.0136 17.3386 14.998C17.3541 14.9017 17.5333 14.8585 17.6079 14.6519Z" fill="#C3BDC9"/>
<path fill-rule="evenodd" clip-rule="evenodd" d="M16.2618 15.0762L16.2456 15.0974C16.4832 15.1823 16.9689 15.2248 17.3168 14.9912L17.2536 14.8794C17.0111 15.0868 16.6997 15.188 16.2618 15.0762Z" fill="#C3BECA"/>
<path fill-rule="evenodd" clip-rule="evenodd" d="M16.1241 14.9966C16.1663 15.0284 16.2085 15.0603 16.2457 15.0709C15.9238 15.3689 15.4543 15.2889 14.984 15.0391C14.984 15.0228 14.984 15.0122 14.984 14.9966C15.5281 15.2939 15.9083 15.2089 16.1241 14.9966Z" fill="#C3BDC9"/>
<path fill-rule="evenodd" clip-rule="evenodd" d="M14.9579 14.9966C15.0739 15.1771 14.7836 15.2358 14.7787 15.5069L14.6627 15.3632C14.6627 15.1877 14.8947 15.2146 14.953 14.9966H14.9579Z" fill="#C3BEC9"/>
<path fill-rule="evenodd" clip-rule="evenodd" d="M14.6409 15.3043L14.4195 14.9643C14.1875 14.6561 14.9579 14.5982 14.8735 14.0249C14.9213 14.0624 14.9741 14.1154 15.0212 14.1415C14.9944 14.6031 14.5882 14.5925 14.5832 14.9056C14.5305 14.8844 14.5038 14.8364 14.4933 14.7727C14.4722 14.789 14.4666 14.789 14.4455 14.8102C14.3506 14.9325 14.4933 15.0011 14.6353 15.2986L14.6409 15.3043Z" fill="#C3BEC9"/>
<path fill-rule="evenodd" clip-rule="evenodd" d="M14.8524 14.6837C15.0795 14.7155 15.3009 14.6837 15.5125 14.4819C15.5497 14.5194 15.5757 14.5563 15.6284 14.5881C15.3592 14.7523 14.9944 14.7736 14.8524 14.6837Z" fill="#C3BDC9"/>
<path fill-rule="evenodd" clip-rule="evenodd" d="M15.6391 14.5932L15.6124 14.6144C15.9871 14.8324 16.51 14.8268 16.7898 14.6356C16.7476 14.6144 16.716 14.5826 16.6844 14.5557C16.3463 14.8055 15.8451 14.7255 15.6391 14.5981V14.5932Z" fill="#C5BECB"/>
<path fill-rule="evenodd" clip-rule="evenodd" d="M16.8003 14.6357L16.7792 14.6626C17.0428 14.7688 17.3759 14.7582 17.6023 14.6308C17.5861 14.5883 17.5707 14.5458 17.539 14.5083C17.2909 14.7051 17.0428 14.6888 16.7946 14.6357H16.8003Z" fill="#C4BEC9"/>
<path fill-rule="evenodd" clip-rule="evenodd" d="M15.0634 14.1688C15.4542 14.3705 15.8815 14.2382 16.1135 14.0308C16.1557 14.0838 16.1929 14.1107 16.2351 14.1369C15.9448 14.3925 15.1955 14.3606 15.0634 14.1688Z" fill="#C4BEC9"/>
<path fill-rule="evenodd" clip-rule="evenodd" d="M16.2457 14.1426L16.2246 14.1589C16.5782 14.4031 17.1166 14.2545 17.2593 14.1589C17.2431 14.1001 17.222 14.0527 17.2066 14.0103C16.9585 14.2226 16.5887 14.292 16.2457 14.1377V14.1426Z" fill="#C3BDC9"/>
<path fill-rule="evenodd" clip-rule="evenodd" d="M14.0709 13.6434L14.1236 13.6702C14.1764 13.5904 14.2242 13.5748 14.2452 13.6066C14.2663 13.6384 14.2242 13.6914 14.2825 13.7444C14.4617 13.601 14.8842 13.5006 14.932 13.2878C15.0114 13.5055 15.2701 13.5105 15.481 13.8823C15.4332 13.601 15.1429 13.5211 15.022 13.3302C14.906 13.1394 14.9742 12.9005 15.0698 12.5923C14.8744 12.8574 15.0276 13.2398 14.7057 13.4094C14.4997 13.5154 14.1145 13.4942 14.0723 13.6377L14.0709 13.6434Z" fill="#C3BDC9"/>
<path fill-rule="evenodd" clip-rule="evenodd" d="M15.76 12.2944L15.7706 12.5489C15.4381 12.6818 15.6968 13.5201 15.5646 13.706C15.5119 12.9893 15.216 12.7291 15.76 12.2994V12.2944Z" fill="#C3BDC9"/>
<path fill-rule="evenodd" clip-rule="evenodd" d="M16.0291 12.9053H16.0713C16.1135 13.3725 16.6041 13.4199 16.6891 13.8821C16.5837 13.5633 16.3089 13.4679 16.1563 13.2983C16.072 13.6595 15.639 13.7655 15.5336 13.967C15.5012 13.8023 16.1296 13.569 16.0291 12.9053Z" fill="#C3BDC9"/>
<path fill-rule="evenodd" clip-rule="evenodd" d="M16.7736 12.454C16.5149 12.8625 17.0266 13.1226 16.7525 13.8019C16.8952 12.9155 16.2773 12.9848 16.6681 12.3423C16.8052 12.4752 17.2698 12.6074 17.312 12.8307C17.1539 12.6081 16.9163 12.5918 16.7736 12.4483V12.454Z" fill="#C3BDC9"/>
<path fill-rule="evenodd" clip-rule="evenodd" d="M17.307 12.8945C17.3548 13.0536 17.397 13.1122 17.4391 13.2183C17.2964 13.6798 16.7425 13.8396 16.7109 14.0092C16.6153 13.7915 17.3119 13.6749 17.307 12.8945Z" fill="#C3BDC9"/>
<path fill-rule="evenodd" clip-rule="evenodd" d="M17.8343 12.4224C17.7443 12.4012 17.6656 12.4224 17.565 12.3213C17.5812 12.4697 17.5545 12.5602 17.5383 12.6507C17.7176 12.7567 17.8392 13.7385 17.913 13.7809C17.8757 13.3618 17.8919 12.8041 17.6388 12.5015L17.6494 12.4485C17.7288 12.4754 17.7872 12.4697 17.8343 12.4224Z" fill="#C3BDC9"/>
<path fill-rule="evenodd" clip-rule="evenodd" d="M14.4299 13.1865C14.6043 12.9264 14.7575 12.6182 14.9789 12.4591C15.2003 12.3001 15.343 12.3637 15.7915 11.9919L15.9602 11.5459C15.5799 12.1029 15.1314 12.491 14.4876 12.3581C14.5248 12.3793 14.5459 12.4323 14.8151 12.4485C14.6781 12.5814 14.5621 12.8734 14.4299 13.1865Z" fill="#C3BDC9"/>
<path fill-rule="evenodd" clip-rule="evenodd" d="M14.3351 11.9499C14.6732 12.1195 15.09 12.21 15.8028 11.1858C15.956 11.1434 16.1036 11.0635 16.2407 10.915C15.781 12.0191 14.4827 12.6984 14.3351 11.9499Z" fill="#DFDDE2"/>
<path fill-rule="evenodd" clip-rule="evenodd" d="M15.8499 12.5862C16.3932 10.5265 18.0401 9.29515 16.6153 8.20166C17.65 10.0013 16.0031 10.7661 15.8499 12.5862Z" fill="#F1EEF0"/>
<path fill-rule="evenodd" clip-rule="evenodd" d="M15.4591 10.8085C15.4858 11.3507 16.1662 10.9466 16.33 10.5962C16.0559 10.7816 15.781 10.9522 15.4591 10.8085Z" fill="#DFDDE2"/>
<path fill-rule="evenodd" clip-rule="evenodd" d="M16.4784 9.96958C16.5416 9.8791 16.5522 9.96392 16.6576 9.98583C16.4095 10.5061 15.9871 10.6496 15.76 10.6602C16.0714 10.4955 16.3568 10.3096 16.4777 9.96463L16.4784 9.96958Z" fill="#DFDDE2"/>
<path fill-rule="evenodd" clip-rule="evenodd" d="M16.3146 9.09382L16.3673 9.14683C16.4411 9.14683 16.5149 9.14683 16.5943 9.07261C16.5943 9.13623 16.5732 9.16803 16.536 9.18429C16.5782 9.56104 16.536 9.78441 16.4833 9.95405C16.5465 9.88478 16.5993 9.98091 16.6625 9.98091C16.7574 9.83247 16.9156 9.31223 16.6625 8.86621C16.6681 8.99344 16.5304 9.12633 16.3195 9.09452L16.3146 9.09382Z" fill="#C3BDC9"/>
<path fill-rule="evenodd" clip-rule="evenodd" d="M15.4275 8.92902C15.8394 8.75938 16.077 9.05625 16.2611 9.08311C16.5571 9.51853 16.2506 9.89528 16.0552 10.1285C16.1873 9.90589 16.3771 8.99829 15.4324 8.92902H15.4275Z" fill="#C3BDC9"/>
<path fill-rule="evenodd" clip-rule="evenodd" d="M15.7972 12.8309C16.2457 13.043 16.4573 12.5284 16.6682 12.3319C16.5627 12.088 16.5943 11.8859 16.5838 11.6738C16.193 11.8859 16.2035 12.6613 15.7972 12.8309Z" fill="#CECAD5"/>
<path fill-rule="evenodd" clip-rule="evenodd" d="M17.3282 9.19482C17.291 9.21108 17.2861 9.35952 17.2383 9.35386C17.2066 10.3943 16.2668 10.9676 16.0454 12.4696C16.1825 12.3106 16.283 11.6737 16.6316 11.0948C17.0014 10.4898 17.3599 10.1448 17.3233 9.19482H17.3282Z" fill="#CECAD5"/>
<path fill-rule="evenodd" clip-rule="evenodd" d="M16.8473 11.1587C16.4727 12.1723 17.2171 12.1829 17.2803 12.5123C16.5099 12.2522 16.4572 11.6895 16.8473 11.1587Z" fill="#DFDDE2"/>
<path fill-rule="evenodd" clip-rule="evenodd" d="M16.9844 8.25C18.23 9.06217 17.1587 10.7021 16.6941 11.1481C16.879 10.7346 17.998 9.59301 16.9844 8.25Z" fill="#DFDDE2"/>
<path fill-rule="evenodd" clip-rule="evenodd" d="M17.4069 7.79883C17.5334 8.03209 17.7394 8.40389 17.4385 8.32967C17.9664 9.50799 17.3858 10.1187 17.0955 10.7768C16.4832 12.3849 17.4969 11.748 17.3809 12.8683C17.7239 12.4647 17.2754 11.8759 17.2965 11.6688C17.2698 11.3712 17.4547 10.74 17.5179 10.3527C17.5917 10.5647 17.7028 10.6927 17.8399 10.7775C17.6023 9.93916 18.3467 8.29362 17.4125 7.79954H17.4069V7.79883Z" fill="#CECAD5"/>
<path fill-rule="evenodd" clip-rule="evenodd" d="M17.5286 10.5698C17.5869 10.6546 17.6291 10.7501 17.7289 10.8087C17.7767 11.1381 17.3226 12.173 18.0087 12.2528C17.4491 12.5342 17.1427 11.7276 17.5286 10.5755V10.5698Z" fill="#CECAD5"/>
<path fill-rule="evenodd" clip-rule="evenodd" d="M17.2277 7.4751C17.3436 7.48572 17.6234 7.68249 17.8877 7.4751C18.0669 7.7193 17.7345 7.9267 17.3809 7.7462C17.2909 7.68745 17.5812 7.66126 17.2277 7.48076V7.4751Z" fill="#C3BDC9"/>
<path fill-rule="evenodd" clip-rule="evenodd" d="M15.1477 7.56592C15.2531 7.68271 15.3586 7.74642 15.4591 8.02813C15.5329 8.02813 15.6067 8.03875 15.6805 8.05999C15.5596 7.86321 15.4064 7.68271 15.1477 7.56592Z" fill="#DFDDE2"/>
<path fill-rule="evenodd" clip-rule="evenodd" d="M16.2828 7.22635C17.3646 7.51868 17.2648 7.014 17.4602 6.93896C17.65 7.24758 17.1221 7.65175 16.2828 7.22635Z" fill="#C3BDC9"/>
<path fill-rule="evenodd" clip-rule="evenodd" d="M14.9579 7.43843C14.8947 7.41719 14.8419 7.42215 14.8047 7.42781C14.8996 6.64636 15.7599 7.14043 16.2246 7.43347C15.6383 7.15175 14.9052 6.79005 14.9579 7.43347V7.43843Z" fill="#C3BEC9"/>
<path fill-rule="evenodd" clip-rule="evenodd" d="M14.9629 7.43828C14.9151 6.55066 16.1873 7.56569 16.7736 7.59754C16.3617 7.64568 15.0156 6.74177 15.0261 7.4489L14.9629 7.43262V7.43828Z" fill="#F1EEF0"/>
<path fill-rule="evenodd" clip-rule="evenodd" d="M15.0424 7.46431L15.1478 7.50672C15.1583 7.42685 15.19 7.34203 15.2272 7.33142C15.4754 7.28336 15.2434 7.4113 15.2856 7.45371C15.3334 7.48552 15.3861 7.52298 15.4388 7.55479C15.4388 7.51733 15.4388 7.47491 15.4444 7.4219C15.4444 7.22045 16.025 7.54419 16.4313 7.67637C16.4735 7.79865 16.2043 7.94709 15.9934 7.90468C16.1832 8.05877 16.5902 7.98455 16.7694 7.73503C17.0808 7.75624 17.1497 7.70817 17.2179 7.62901C16.9803 7.58094 16.8692 7.69828 16.2732 7.53358C15.7235 7.37384 15.0585 6.90661 15.0424 7.46431Z" fill="#C3BDC9"/>
<path fill-rule="evenodd" clip-rule="evenodd" d="M15.5385 7.36384C15.6074 7.35818 15.6651 7.38012 15.7283 7.40631C15.6067 7.59743 15.7867 7.77863 15.8865 7.74678C15.9181 7.77863 15.9554 7.81049 16.0657 7.83738C15.9076 7.86924 15.3691 7.70431 15.5378 7.35889L15.5385 7.36384Z" fill="#B6B1BF"/>
<path fill-rule="evenodd" clip-rule="evenodd" d="M14.1187 8.45667C13.517 7.2939 15.2539 7.0875 15.4331 8.05306C15.4331 8.05306 15.8661 8.06931 16.2457 8.27571C16.9845 8.81716 16.536 9.12464 16.3884 9.10343C16.0454 9.10909 15.9765 8.77404 15.4753 8.90198C15.3537 8.95005 15.3488 9.00801 15.2961 9.00801C14.9952 8.93379 15.5442 8.32307 16.1403 8.76415C16.193 8.80161 16.309 8.72668 16.2091 8.61005C15.8134 8.20644 15.1217 8.42981 14.9741 8.46656C14.7843 8.15343 14.3563 8.2227 14.1299 8.46656L14.1187 8.45667Z" fill="#F1EEF0"/>
<path fill-rule="evenodd" clip-rule="evenodd" d="M15.8442 7.50684C15.918 7.56559 16.3032 7.62929 16.3138 7.6661C16.1929 7.95843 15.7915 7.86854 15.8442 7.50684Z" fill="#AAA3B5"/>
<path fill-rule="evenodd" clip-rule="evenodd" d="M18.41 15.3846C18.41 15.3846 18.3994 15.3952 18.41 15.4058C18.4999 15.4539 18.6159 15.48 18.7481 15.4906L19.0651 17.3539C19.0384 16.8711 19.0067 16.3664 18.9962 15.9049C18.9589 15.8144 18.9329 15.6504 18.9118 15.4857C18.954 15.4857 18.9913 15.4751 19.0334 15.4645C19.2338 16.6428 19.7195 16.8761 19.8144 16.9722C19.5557 16.7015 19.2071 16.3191 19.0967 15.4383C19.271 15.3429 19.3498 15.2263 19.4032 15.2051C19.4193 15.157 19.4088 15.0354 19.387 14.9824C19.2127 15.1471 19.0595 15.3436 18.7059 15.3168C18.6848 15.3168 18.7059 15.3486 18.7059 15.3486C18.843 15.5288 18.5688 15.4178 18.4205 15.386L18.41 15.3846Z" fill="#C3BDC9"/>
<path fill-rule="evenodd" clip-rule="evenodd" d="M19.0806 17.5498L19.0967 17.8312C19.2711 17.7195 19.4348 17.6827 19.6668 17.1462C19.7617 18.1019 19.7722 19.0307 20.3268 19.2215C20.0414 18.5634 20.0414 17.8467 20.0204 17.1512C19.9887 17.1936 19.9515 17.2254 19.9198 17.2572C19.6928 17.1243 19.6239 17.0183 19.503 16.896C19.4292 17.1349 19.387 17.3844 19.0862 17.5491L19.0806 17.5498Z" fill="#CECAD5"/>
<path fill-rule="evenodd" clip-rule="evenodd" d="M19.4918 15.2402C19.5656 15.2671 19.6556 15.2777 19.7449 15.2777L19.8398 16.6631L19.4918 15.2402Z" fill="#DFDDE2"/>
<path fill-rule="evenodd" clip-rule="evenodd" d="M20.1518 15.1397L20.1996 15.1079C20.3107 15.3624 20.4632 15.5857 20.6853 15.761L21.2821 19.7844L20.4217 15.7504C20.4217 16.446 20.2263 16.9075 19.9149 17.2207L19.8833 16.9556C20.2109 16.5096 20.4056 15.9738 20.1574 15.1404L20.1518 15.1397Z" fill="#C3BDC9"/>
<path fill-rule="evenodd" clip-rule="evenodd" d="M21.0599 16.0693C21.1499 16.1223 21.2553 16.1704 21.3713 16.2022C21.7305 17.418 21.8676 19.8114 21.3924 20.6766L21.3502 20.3472C20.5215 19.7103 20.3106 17.9319 20.1469 16.9338L20.1736 16.8857C20.3317 17.7933 20.5222 19.5449 21.3348 20.256C21.4824 19.7888 21.7994 18.4458 21.2293 16.2114C21.1865 16.1648 21.1176 16.1167 21.0599 16.0693Z" fill="#C4BEC9"/>
<path fill-rule="evenodd" clip-rule="evenodd" d="M20.5532 14.7735C20.627 14.7629 20.6643 14.7735 20.7803 14.7417L21.5717 15.9306L20.5532 14.7735Z" fill="#DFDDE2"/>
<path fill-rule="evenodd" clip-rule="evenodd" d="M21.4029 16.2119C21.5189 16.2494 21.6616 16.2861 21.8092 16.3179C21.8092 16.3554 22.9655 19.3383 23.7724 19.5666C22.7434 19.7737 22.226 17.9585 21.5555 16.8862C21.5077 16.6579 21.4549 16.4353 21.4022 16.2176L21.4029 16.2119Z" fill="#DFDDE2"/>
<path fill-rule="evenodd" clip-rule="evenodd" d="M21.2659 14.418C21.2659 14.418 21.2448 14.4498 21.2286 14.4604C21.6982 15.1927 21.7087 15.6387 21.6455 16.0366L21.8353 16.2862C21.9301 15.7292 21.8296 15.315 21.6926 14.922L24.0312 18.3353L21.9674 15.0124L22.4053 15.076C22.0412 14.9545 21.6722 14.9121 21.2659 14.418Z" fill="#C3BDC9"/>
<path fill-rule="evenodd" clip-rule="evenodd" d="M22.6752 15.0818C22.7652 15.0818 22.8439 15.0818 22.9072 15.0605C23.3718 15.8197 24.5647 17.1945 24.422 19.0733L24.2743 18.7863C23.1659 18.5319 22.3955 17.1302 22.0046 16.5626C22.6541 17.4228 23.3873 18.5425 24.2476 18.7178C24.3165 17.3161 23.2713 15.9469 22.6752 15.0818Z" fill="#C3BDC9"/>
<path fill-rule="evenodd" clip-rule="evenodd" d="M22.9177 15.0543L22.9599 15.1236C23.984 15.67 25.1347 16.7586 25.8475 15.957C25.1087 16.2546 23.9159 15.2084 23.1293 14.8154L23.1666 14.9851C23.0822 15.0275 23.0028 15.0381 22.9241 15.0543H22.9177Z" fill="#DFDDE2"/>
<path fill-rule="evenodd" clip-rule="evenodd" d="M21.4662 13.7706C21.4662 13.8025 21.4662 13.8237 21.4606 13.8449L22.7328 14.6408L21.5716 13.707C21.5456 13.7388 21.5027 13.7494 21.4662 13.7706Z" fill="#DFDDE2"/>
<path fill-rule="evenodd" clip-rule="evenodd" d="M23.0548 14.519C23.0759 14.6039 23.1026 14.6887 23.1181 14.7792C24.6434 15.4903 25.5565 15.315 26 15.0336L25.7624 14.9488C25.0926 15.3948 23.4667 14.7947 23.0548 14.519Z" fill="#C3BDC9"/>
<path fill-rule="evenodd" clip-rule="evenodd" d="M21.8409 13.3091C21.8409 13.3091 21.8303 13.3515 21.8247 13.3727C22.4742 13.7177 22.9227 14.3545 22.9065 14.7956L23.1279 14.9759C23.0436 14.2436 22.7793 13.9672 22.5157 13.6965L25.6141 14.9172L22.6056 13.5C23.007 13.4095 23.4238 13.3833 23.7725 12.9642L24.4796 12.9373C25.0869 12.8419 25.773 12.4913 25.8412 12.1626L25.6141 12.1895C25.3238 12.8369 24.1781 12.8157 23.582 12.8369C23.3079 13.3572 22.4313 13.3939 21.8345 13.3148L21.8409 13.3091Z" fill="#C3BDC9"/>
<path fill-rule="evenodd" clip-rule="evenodd" d="M23.5722 13.1657C23.4928 13.2293 23.4141 13.2717 23.3297 13.3092C23.6516 13.3784 23.9525 13.4682 24.2323 13.5742C25.0343 13.6591 25.8265 13.5368 25.863 12.8525C25.5249 13.3989 24.5647 13.2986 23.5771 13.1657H23.5722Z" fill="#DFDDE2"/>
<path fill-rule="evenodd" clip-rule="evenodd" d="M21.8303 12.687C21.8514 12.7564 21.862 12.8144 21.8725 12.8781L23.5138 12.8357C22.955 12.7882 22.3793 12.7458 21.8303 12.687Z" fill="#DFDDE2"/>
<path fill-rule="evenodd" clip-rule="evenodd" d="M22.6218 12.0239C22.9543 12.1782 23.2608 12.3481 23.5033 12.5449L23.2868 12.3432C23.989 12.2844 24.7017 12.2264 25.4932 12.1839L22.9965 12.1676L22.6218 12.0239Z" fill="#C3BDC9"/>
<path fill-rule="evenodd" clip-rule="evenodd" d="M22.0945 12.0826C22.0889 12.1201 22.0678 12.1519 22.0524 12.1887L22.6013 12.0296C23.4245 11.4352 23.4617 11.1432 23.5671 10.8195L24.8183 10.0342L23.3928 10.7453C22.6224 10.7509 22.4214 10.8619 22.1894 10.9255C22.8438 10.782 23.2768 10.7608 23.5144 10.835L23.3612 10.9305C23.1658 11.5885 22.427 11.9709 22.0889 12.0876L22.0945 12.0826Z" fill="#C3BDC9"/>
<path fill-rule="evenodd" clip-rule="evenodd" d="M22.089 11.5417C22.1101 11.5842 22.1157 11.6373 22.1262 11.6854C22.5171 11.4731 22.8861 11.2388 23.2502 10.9995C22.865 11.1906 22.4742 11.3874 22.089 11.5467V11.5417Z" fill="#DFDDE2"/>
<path fill-rule="evenodd" clip-rule="evenodd" d="M23.1448 11.6257C23.5883 11.5883 24.0319 11.5776 24.4958 11.6151C24.6012 11.5564 25.7203 11.2278 25.451 10.6333C25.1291 11.2864 23.9363 11.5091 23.8414 11.5621C23.6516 11.5833 23.1919 11.5996 23.1448 11.6314V11.6257Z" fill="#DFDDE2"/>
<path fill-rule="evenodd" clip-rule="evenodd" d="M24.9871 9.9488L25.2352 9.84277C25.2619 9.89084 25.082 10.2301 24.7657 10.5857C24.3489 11.0472 24.1057 11.2494 23.3191 11.3922C23.3353 11.371 23.3507 11.3498 23.3613 11.3286C23.9735 11.1639 24.8128 10.5645 24.9871 9.95375V9.9488Z" fill="#DFDCE1"/>
<path fill-rule="evenodd" clip-rule="evenodd" d="M22.3631 10.6018L22.2893 10.7135C22.9915 10.2039 23.551 9.89072 23.9728 9.75783C24.3952 9.31181 24.4901 8.86579 24.3158 8.61133C24.3425 9.43905 23.033 10.0604 22.3575 10.6018H22.3631Z" fill="#DFDDE2"/>
<path fill-rule="evenodd" clip-rule="evenodd" d="M21.9098 10.9197L21.8831 11.1318C22.4054 10.7494 22.6851 10.0546 22.6113 9.4707L22.4265 9.66155L21.6139 10.3253C21.6561 10.3627 21.7039 10.4052 21.7355 10.4419L22.4272 9.68276C22.4743 10.3097 22.0518 10.7982 21.9098 10.9197Z" fill="#C3BEC9"/>
<path fill-rule="evenodd" clip-rule="evenodd" d="M22.6169 9.93754L22.5691 10.1128C22.9072 9.90078 23.1392 9.67742 23.35 9.44911C23.9306 8.76983 24.0044 8.18032 24.0572 7.89404L23.809 8.09549C23.8512 8.96068 22.8854 9.78839 22.6267 9.93188L22.6169 9.93754Z" fill="#DFDDE2"/>
<path fill-rule="evenodd" clip-rule="evenodd" d="M22.3315 9.44896C22.4264 9.44896 22.527 9.44331 22.6218 9.44896L23.762 8.13281L22.3315 9.44896Z" fill="#C3BDC9"/>
<path fill-rule="evenodd" clip-rule="evenodd" d="M21.4923 8.70654L21.3496 8.87124C21.4079 9.19497 21.4079 9.63039 20.9327 10.1612L20.9489 10.1881L20.9805 10.1775C21.3608 9.70532 21.7566 9.58303 22.1523 9.4664C21.9203 9.52507 21.6877 9.56183 21.429 9.69966C21.6082 9.15822 21.5295 8.88255 21.4923 8.7122V8.70654Z" fill="#C3BDC9"/>
<path fill-rule="evenodd" clip-rule="evenodd" d="M21.5456 9.13642V9.24245C21.9519 8.98798 22.3638 8.68545 22.7385 8.26558C22.955 7.98426 23.2347 7.5863 23.2713 7.0498L23.0548 7.21945C23.0126 8.11644 21.8619 8.88619 21.5449 9.14066L21.5456 9.13642Z" fill="#DFDDE2"/>
<path fill-rule="evenodd" clip-rule="evenodd" d="M20.6214 9.01977C20.9539 8.87628 21.2758 8.73845 21.4979 8.69604L22.934 7.35303C22.5488 7.63435 21.7411 8.33484 21.3608 8.62182C21.2287 8.7229 21.0972 8.71724 20.6165 9.01977H20.6214Z" fill="#DFDDE2"/>
<path fill-rule="evenodd" clip-rule="evenodd" d="M23.0125 7.22559C19.3757 7.86246 17.359 12.2732 19.7925 11.8752L19.6554 11.8434C19.1697 11.8858 19.0432 11.461 19.0903 11.1903C19.1325 10.8984 19.4122 10.7337 19.4916 10.7075C19.4706 10.4474 19.46 10.1873 19.7131 9.97522C19.8136 9.73136 19.9296 9.60342 20.0455 9.47619C20.4258 8.08582 22.3574 7.39028 23.0118 7.23124L23.0125 7.22559Z" fill="#F1EEF0"/>
<path fill-rule="evenodd" clip-rule="evenodd" d="M21.3185 8.86084C20.8645 8.93011 20.2417 9.43409 20.1468 9.64615C20.1362 9.66735 20.1468 9.69916 19.9886 9.78398V9.81084C20.1524 9.74157 20.5749 9.81084 20.1784 9.90627C20.4371 9.90061 20.6641 10.0017 20.8174 10.3523C21.6566 10.2251 21.8675 10.8407 21.6566 11.2493C22.2105 11.7321 21.8626 12.3534 21.5561 12.47C21.741 12.8842 21.8359 13.4306 21.2707 13.6434C21.2707 14.0095 21.218 14.5828 20.352 14.5778C20.2466 14.8273 19.9401 15.2522 19.4179 15.0238C19.4179 15.0238 19.4179 15.0401 19.4179 15.0557C19.4073 15.0825 19.6344 15.1405 19.6393 15.1299C19.8185 15.1511 19.8396 15.2677 19.6231 15.2147C19.5437 15.1935 19.4755 15.1723 19.4172 15.1454C19.4172 15.1454 19.4172 15.1829 19.4066 15.2041C19.9718 15.4006 20.2986 15.0557 20.4729 14.7637C21.1484 14.7263 21.4233 14.3552 21.4598 13.7713C22.0088 13.4264 21.935 12.9005 21.7663 12.54C22.2569 12.1682 22.2204 11.5207 21.8506 11.2182C22.1037 10.3636 21.3495 10.1353 20.9481 10.194C20.816 9.96564 20.7267 9.93383 20.6311 9.87022L21.3438 8.89901L20.4779 9.796C20.3935 9.76419 20.2775 9.75359 20.1398 9.75854C20.3246 9.29697 21.0423 8.94142 21.3277 8.86155H21.3185V8.86084Z" fill="#C3BDC9"/>
<path fill-rule="evenodd" clip-rule="evenodd" d="M14.6993 7.84196C14.8048 8.00689 14.9896 7.79383 15.2905 8.11802L15.3277 8.10174C15.2589 7.82568 15.0747 7.66076 14.7999 7.62891C14.9158 7.73013 14.8315 7.73508 14.8266 7.80445C14.8259 7.8632 14.8259 7.93257 14.6993 7.84196Z" fill="#D0CCD5"/>
<path fill-rule="evenodd" clip-rule="evenodd" d="M14.2192 8.341C14.383 8.2504 14.7415 8.11803 14.9685 8.43656C15.6862 8.22421 16.193 8.42028 16.2619 8.70766C16.3041 8.62768 16.1037 8.19236 15.2855 8.26668C14.589 7.77261 14.1932 8.21855 14.2143 8.341H14.2192Z" fill="#AAA3B5"/>
<path fill-rule="evenodd" clip-rule="evenodd" d="M15.3115 8.96265C15.185 8.96265 15.5751 8.49478 16.2091 8.93576C16.4361 9.02636 16.5472 8.90886 16.505 8.71774C16.4889 8.57972 16.4151 8.49973 16.368 8.39355C16.6899 8.6328 16.7272 8.93576 16.5107 9.05255C16.1726 9.22243 15.935 8.62219 15.3122 8.95699L15.3115 8.96265Z" fill="#C3BDC9"/>
<path fill-rule="evenodd" clip-rule="evenodd" d="M14.7836 15.5327L14.9263 15.7342L14.8891 15.7073C14.4877 15.8982 14.2817 15.824 14.087 15.7342L14.0659 15.7179C13.654 15.7978 13.3954 15.6911 13.1739 15.5271C13.1901 15.6494 13.2745 15.7448 13.3848 15.8296L12.9518 17.7247L13.1578 15.9463C12.9097 16.6418 12.5877 16.9655 12.1442 17.162L12.1758 16.9655C12.5821 16.7584 12.9307 16.3605 13.0945 15.5002C12.9307 15.5214 12.767 15.5426 12.6039 15.5002L12.1976 16.9069L12.393 15.4522C12.2187 15.3355 12.0711 15.1871 11.9235 15.038V15.0111C11.9656 15.0747 12.0134 14.8839 12.0078 14.8252C12.3143 15.3242 12.7417 15.4147 13.1641 15.2712C13.1641 15.3193 13.1641 15.3617 13.143 15.4303H13.1641C13.1641 15.4303 13.1908 15.3822 13.2014 15.3454C13.1908 15.3348 13.1852 15.3186 13.1803 15.303V15.2868C13.4179 15.7059 13.9928 15.5094 14.0673 15.5469C14.0568 15.5681 14.0673 15.6317 14.0835 15.6847L14.0941 15.701C14.0941 15.701 14.1046 15.6423 14.0941 15.5999L14.073 15.5624L14.0891 15.573C14.2845 15.7215 14.5538 15.7109 14.7808 15.525L14.7836 15.5327Z" fill="#C3BDC9"/>
<path fill-rule="evenodd" clip-rule="evenodd" d="M13.4481 15.8667C13.5802 15.9303 13.7173 15.9784 13.8705 16.0102C13.8017 16.9022 13.3532 17.9159 12.878 18.2184L12.8886 17.9689C12.7726 17.7724 12.6826 17.4649 12.6566 16.8273L12.6939 16.7898C12.7044 17.2359 12.7522 17.6388 12.8998 17.9526C13.1269 17.783 13.6126 17.2147 13.6913 16.1268C13.6913 16.0575 13.6751 16.0208 13.6386 15.9996C13.5486 15.9515 13.4959 15.9091 13.4432 15.8724L13.4481 15.8667Z" fill="#C1C1C9"/>
<path fill-rule="evenodd" clip-rule="evenodd" d="M11.7379 19.6302C12.2496 19.768 12.5877 18.7756 12.7775 18.1118C12.6876 17.9316 12.561 17.7457 12.5505 16.9385L12.5083 16.9809C12.4556 18.0214 12.4451 19.1679 11.7323 19.6294L11.7379 19.6302Z" fill="#C3BDC9"/>
<path fill-rule="evenodd" clip-rule="evenodd" d="M11.9811 15.1079L12.0127 15.1397C11.9755 15.3362 11.7119 16.0473 12.0394 16.7428C11.8546 16.4721 11.707 16.0424 11.9867 15.1079H11.9811Z" fill="#DFDDE3"/>
<path fill-rule="evenodd" clip-rule="evenodd" d="M11.7062 15.543L11.6057 15.702L10.5239 20.129L11.6746 16.4456C11.7329 16.6577 11.8011 16.881 12.102 17.2309C11.6795 18.733 11.0096 20.076 10.4396 20.4315L10.4923 20.2513C10.2498 19.5084 10.4445 17.942 10.862 16.3657C10.5928 17.2309 10.0438 19.1154 10.3925 20.4902L10.2814 20.8302C11.4166 20.0498 12.0865 18.0912 12.3402 17.0931C12.277 17.1412 12.2081 17.1673 12.1399 17.1942C11.7807 16.8704 11.612 16.3558 11.7069 15.5486L11.7062 15.543Z" fill="#C3BDC9"/>
<path fill-rule="evenodd" clip-rule="evenodd" d="M11.0251 14.3062C11.0518 14.444 11.21 14.6037 11.2887 14.7416C11.3309 14.8108 11.3787 14.8426 11.4363 14.7578L11.4841 14.678C11.6001 14.8108 11.7639 14.8851 12.0015 14.8427L11.7161 15.5064C11.3836 16.1539 10.9457 16.2917 10.5071 16.4458L10.6441 16.1913C11.2142 16.1383 11.6205 15.57 11.8321 15.0498C11.6894 15.0179 11.5523 14.9593 11.3942 14.8589L10.7236 16.0323L11.1671 14.8434C11.2578 14.6567 11.0202 14.5083 11.0251 14.3062Z" fill="#C3BDC9"/>
<path fill-rule="evenodd" clip-rule="evenodd" d="M10.751 16.3663C10.6715 16.3981 10.5872 16.4299 10.4979 16.4511C9.76406 18.1016 9.35778 19.5725 8.04895 20.0341C9.23125 20.2624 10.0284 18.3518 10.3187 17.7786C10.5295 17.2583 10.6568 16.7755 10.7517 16.3613V16.3663H10.751Z" fill="#CECAD5"/>
<path fill-rule="evenodd" clip-rule="evenodd" d="M10.9148 14.3543C10.7827 14.5133 10.3286 15.1502 10.614 16.2119L10.6407 16.1801C10.4347 15.4739 10.6512 14.6886 10.9148 14.3486V14.3543Z" fill="#E0DEE4"/>
<path fill-rule="evenodd" clip-rule="evenodd" d="M10.429 15.2938C10.3917 15.5694 10.4023 15.7871 10.4184 16.0048C9.53137 17.5868 8.04822 19.0464 7.19348 19.1044C8.28581 17.6341 9.37322 16.1158 10.4662 14.6194C10.5351 14.5876 10.6089 14.5395 10.6771 14.4922C10.5611 14.6618 10.5084 14.8004 10.4873 14.9276L7.48941 18.7969C8.49247 18.7121 10.1338 16.3236 10.3819 15.6811C10.3819 15.4903 10.4086 15.3835 10.4346 15.2938H10.429Z" fill="#C3BDC9"/>
<path fill-rule="evenodd" clip-rule="evenodd" d="M7.37284 18.8496L7.44173 18.7648C7.35738 17.2733 9.03594 15.5006 9.49002 14.9429C9.41621 15.1019 7.27303 16.997 7.37354 18.8546V18.8496H7.37284Z" fill="#DFDCE1"/>
<path fill-rule="evenodd" clip-rule="evenodd" d="M6.15332 16.1796C6.40637 16.5776 6.82882 16.8222 8.41811 15.8559C8.73512 15.5053 9.05143 15.1448 9.36845 14.8423H9.28902C8.75621 15.06 7.37288 16.514 6.15332 16.1853V16.1796Z" fill="#DFDDE2"/>
<path fill-rule="evenodd" clip-rule="evenodd" d="M10.2814 13.377C10.0755 13.4618 9.29452 13.7488 9.21509 14.6351L9.04639 14.7306C10.1176 15.0861 10.9309 14.2739 11.0891 14.1255C10.9204 14.0195 10.751 13.929 10.609 13.6745L10.4663 13.7438C10.1233 14.0308 9.70642 14.3121 9.30506 14.5821L10.5506 13.9453C10.6244 14.0251 10.7039 14.11 10.8782 14.216C10.1233 14.7362 9.5321 14.7094 9.24742 14.6351C9.28889 14.1206 9.59466 13.6851 10.2814 13.377Z" fill="#C3BDC9"/>
<path fill-rule="evenodd" clip-rule="evenodd" d="M9.07736 14.4341C9.05628 14.5403 9.02464 14.6571 9.02956 14.737C8.69146 14.8701 8.31189 14.9812 7.88944 15.0506C7.86273 15.0563 7.75237 15.0987 7.7102 15.0188C7.6624 14.9869 7.60476 14.9812 7.55204 14.9869C7.5415 14.96 7.48878 14.9706 7.48315 14.9494C8.51784 14.7689 8.98739 14.519 9.07736 14.439V14.4341Z" fill="#CECAD5"/>
<path fill-rule="evenodd" clip-rule="evenodd" d="M7.92177 13.6694C7.64763 13.8023 6.51243 14.4074 6.31702 14.9912C6.87091 15.1609 7.28282 15.0124 7.53657 14.9912C7.52603 14.975 7.47823 14.9806 7.47331 14.9538C7.0614 15.0124 6.56515 15.0443 6.42808 14.9594L6.52859 14.9064C6.56022 14.413 7.73198 13.7974 7.91685 13.6694H7.92177Z" fill="#DFDDE1"/>
<path fill-rule="evenodd" clip-rule="evenodd" d="M6.5968 14.8854C8.44406 14.1955 9.34168 13.6434 10.3286 13.3091V13.3409C10.2491 13.389 9.60035 13.5423 9.3466 13.9141L6.5968 14.8854Z" fill="#C3BDC9"/>
<path fill-rule="evenodd" clip-rule="evenodd" d="M10.0123 13.4091C9.88575 13.4622 9.75922 13.5046 9.62707 13.5788C9.02538 13.4883 8.92486 13.3399 8.66619 13.2126L8.71891 13.1914C8.8138 13.2607 8.93541 13.3137 9.04647 13.3717C9.22571 13.4303 9.26788 13.3611 9.08864 13.2975C8.87777 13.2282 8.74562 13.1384 8.62964 13.0479C8.83559 12.6443 9.32623 12.4478 9.38949 12.416C9.12027 12.5913 8.80326 12.7504 8.72453 13.0211C9.14698 12.9575 9.59544 12.8832 10.1444 12.761C10.1866 12.8352 10.2238 12.9094 10.3026 13.0105L10.2864 13.0267L10.2021 12.9257L8.72945 13.0373C9.13574 13.3187 9.57365 13.3455 10.0066 13.3929L10.0123 13.4091Z" fill="#C3BDC9"/>
<path fill-rule="evenodd" clip-rule="evenodd" d="M6.22217 12.8418C6.39087 13.4159 7.8213 13.2672 8.6662 13.2085L8.70837 13.1922C8.63949 13.144 8.58185 13.0966 8.54459 13.0485C8.19595 12.9749 6.59682 13.3146 6.22217 12.8418Z" fill="#DFDDE2"/>
<path fill-rule="evenodd" clip-rule="evenodd" d="M8.91427 12.5283L8.93044 12.5445C8.82992 12.6293 8.73011 12.7036 8.62959 12.8258C7.31022 12.8258 6.47587 12.3007 6.23828 11.9925C6.56584 11.7274 6.97704 11.6313 7.41566 11.5889C7.04101 11.7005 6.60309 11.7642 6.40206 12.0031H6.30646C6.9187 12.693 8.55508 13.0011 8.90865 12.5339L8.91427 12.5283Z" fill="#DFDDE2"/>
<path fill-rule="evenodd" clip-rule="evenodd" d="M6.48572 12.0239C7.36225 12.1464 8.22262 12.2575 9.12516 12.4012C9.24676 12.295 9.46818 12.2207 9.80628 12.1995C9.6903 12.1995 9.59541 12.1832 9.41054 12.2101C8.40748 12.2264 7.45714 12.099 6.48572 12.0239Z" fill="#C3BDC9"/>
<path fill-rule="evenodd" clip-rule="evenodd" d="M10.249 11.8857C10.1647 11.9705 10.1225 12.0977 10.0909 12.2363C9.12506 11.9175 8.9669 11.3124 8.93457 11.2488C9.51518 10.8452 9.86382 10.9943 10.3439 10.9837C9.31977 10.9357 9.05055 11.2064 9.00838 11.2594C9.39357 11.3654 9.66279 11.4609 10.4866 11.5994C10.4072 11.6581 10.3601 11.7054 10.3228 11.7585C10.0058 11.6256 9.41466 11.4453 8.99783 11.2806C9.06672 11.5619 9.49409 11.9811 9.8582 12.0928C9.95872 12.1197 10.0691 12.1727 10.1112 12.0398C10.1274 11.9868 10.2061 11.9019 10.2434 11.8857H10.249Z" fill="#C3BDC9"/>
<path fill-rule="evenodd" clip-rule="evenodd" d="M6.57569 10.6118C6.76056 10.7977 7.46277 11.4134 8.75051 11.2593C8.7983 11.3865 8.85102 11.4346 8.89812 11.4819C8.5551 11.4289 8.21207 11.3915 7.86343 11.4183C7.29829 11.2487 6.78165 11.0416 6.57007 10.6118H6.57569Z" fill="#DFDDE2"/>
<path fill-rule="evenodd" clip-rule="evenodd" d="M9.20459 10.8774C9.20459 10.8774 9.24184 10.9042 9.26785 10.9092C9.05698 10.994 8.8932 11.0845 8.76667 11.1799C8.11718 10.9784 7.19918 10.495 6.8667 9.8899C7.26806 9.70965 7.94848 9.79447 8.34493 9.8899C7.90701 9.8899 7.37912 9.79447 7.12045 9.96977L6.92012 9.9005C6.99955 10.1606 8.38218 11.3707 9.20037 10.8774H9.20459Z" fill="#DFDDE2"/>
<path fill-rule="evenodd" clip-rule="evenodd" d="M7.18799 10.0068C8.0111 10.2988 8.79766 10.5857 9.45278 10.8614C9.65873 10.8133 9.85906 10.824 10.0601 10.8614C10.0123 10.8133 9.9652 10.7766 9.92795 10.713H9.91178L9.99613 10.8296C8.87709 10.4472 8.05398 10.2351 7.19361 10.0125L7.18799 10.0068Z" fill="#C3BDC9"/>
<path fill-rule="evenodd" clip-rule="evenodd" d="M9.78525 10.3362C9.72199 10.2196 9.66365 10.0923 9.65873 9.91702C9.34733 10.0655 7.93237 9.44485 7.59497 8.66943C7.61606 9.34871 8.82507 9.88521 9.78525 10.3305V10.3362Z" fill="#DFDDE2"/>
<path fill-rule="evenodd" clip-rule="evenodd" d="M10.6034 10.7605C10.5612 10.8086 10.5239 10.8665 10.4712 10.8934C10.4445 10.9096 10.4185 10.9096 10.3918 10.8934C9.8906 10.5696 9.79008 10.0119 9.80555 9.90097C10.1907 9.83735 10.7243 9.8423 11.463 10.3046C11.2992 10.2671 10.7559 9.86421 9.87935 9.93843C9.86319 10.241 10.0902 10.8199 10.597 10.7612L10.6034 10.7605Z" fill="#C3BDC9"/>
<path fill-rule="evenodd" clip-rule="evenodd" d="M9.94824 9.99072L10.8353 10.6391C10.9513 10.6448 11.0624 10.6391 11.1783 10.6978C11.184 10.6766 11.1945 10.6448 11.2156 10.6023C10.7299 10.4006 10.3707 10.1932 9.94824 9.99072Z" fill="#C3BDC9"/>
<path fill-rule="evenodd" clip-rule="evenodd" d="M7.95337 7.91553L8.19095 8.05902C8.15932 8.59481 9.10966 9.64589 10.1654 9.72576C9.99112 9.74202 9.80133 9.73637 9.66426 9.79998C9.16308 9.48685 8.8306 9.15746 8.55085 8.86553C8.4925 8.87613 8.44541 8.72769 8.35052 8.77505C8.0813 8.42446 7.97586 8.15373 7.9597 7.92048L7.95337 7.91553Z" fill="#DFDDE2"/>
<path fill-rule="evenodd" clip-rule="evenodd" d="M9.49489 8.33474C9.14133 8.19691 8.81939 8.03716 8.20715 8.06402C9.16241 8.75956 9.67976 9.19427 10.382 9.74137C10.7039 9.78943 11.0104 9.93222 11.3218 10.0545C11.2796 9.96968 11.248 9.88486 11.2318 9.79438C11.2318 9.8686 11.2318 9.93787 11.2796 10.0121C10.8628 9.8898 9.15257 8.66908 8.31329 8.12269C8.6289 8.02161 9.07736 8.20751 9.49489 8.33474Z" fill="#C5BECB"/>
<path fill-rule="evenodd" clip-rule="evenodd" d="M9.98055 8.3663C9.59536 8.03196 9.16798 7.64956 9.07239 7.11377C9.52085 7.16678 10.3974 7.46931 11.0785 7.96269C10.4452 7.59655 9.8484 7.32582 9.36269 7.33077C9.32052 7.77679 9.7268 8.06872 9.98547 8.3656H9.98055V8.3663Z" fill="#DFDDE2"/>
<path fill-rule="evenodd" clip-rule="evenodd" d="M9.38876 7.34814L9.36768 7.3644C10.0172 7.84718 10.4867 8.3038 10.9984 8.77103C11.1411 8.89331 11.125 9.02549 11.1411 9.15838C11.1938 9.09476 11.125 8.88766 11.236 8.8608C11.3415 8.83959 11.7477 9.05165 11.7745 9.01984C10.8192 8.59502 10.1802 7.9108 9.39368 7.34814H9.38876Z" fill="#C3BDC9"/>
<path fill-rule="evenodd" clip-rule="evenodd" d="M11.4264 9.92252C11.3365 9.77409 11.1945 9.31746 11.2837 9.00928C12.5138 9.27435 12.7247 10.2512 12.7458 10.4477C12.5666 9.74157 11.896 9.09975 11.4313 9.18458C11.7111 9.4447 12.0598 9.98049 12.2706 10.2088C12.1701 10.2088 12.0647 10.2194 12.0014 10.2463C11.8271 10.2251 11.7484 10.2625 11.6584 10.2887C11.5635 10.177 11.5262 10.0922 11.4686 10.0017C11.5951 10.177 11.7751 10.1501 11.9592 10.0971C11.7694 9.75217 11.579 9.50266 11.3892 9.20507C11.2943 9.27435 11.3892 9.64544 11.4159 9.92182L11.4264 9.92252Z" fill="#E0DEE4"/>
<path fill-rule="evenodd" clip-rule="evenodd" d="M11.9227 8.60547C14.0181 10.0064 14.1763 12.3051 12.6931 11.9284C14.4722 11.7163 12.3874 9.05714 11.9227 8.60547Z" fill="#DFDDE2"/>
<path fill-rule="evenodd" clip-rule="evenodd" d="M12.0232 10.2514C12.1975 10.1772 12.6565 10.1878 12.6776 10.9045L12.5244 11.0212C12.5244 10.8247 12.556 10.3843 12.0232 10.2571V10.2514Z" fill="#C3BDC9"/>
<path fill-rule="evenodd" clip-rule="evenodd" d="M12.5245 11.0317L12.6827 10.915C13.4482 11.207 13.0735 12.0347 12.54 11.9025C13.174 11.8389 13.0363 11.0211 12.5245 11.0317Z" fill="#C3BDC9"/>
<path fill-rule="evenodd" clip-rule="evenodd" d="M14.984 5.65471C15.0894 5.83496 14.7991 6.38206 15.2954 6.30218C15.4641 6.40821 15.6124 6.35025 15.6911 6.35025C16.0187 6.23362 16.0082 6.00531 16.0292 5.94664C15.7439 5.54303 16.0665 5.46386 16.0981 5.44266C16.2724 5.46386 16.3673 5.79325 16.1298 5.89363C16.1508 5.90988 16.1776 5.90423 16.2141 5.88797C16.2141 6.41316 16.5838 6.45062 16.8369 6.3658C17.3437 6.50364 17.0956 5.91483 17.3381 5.47941C17.0689 5.96219 17.2432 6.39761 16.8474 6.33965C16.9479 6.09013 16.6787 5.89928 16.8158 5.62856C16.6098 5.80386 16.9529 6.13254 16.8158 6.30289C16.6787 6.42518 16.5417 6.3241 16.536 6.27108C16.4777 6.09084 16.8847 5.87808 16.6415 5.54939C16.7258 5.72469 16.6942 5.80386 16.652 5.92119C16.6098 6.03287 16.4355 6.13325 16.515 6.36156C16.3357 6.3241 16.2457 6.1177 16.2935 5.94735C16.3413 5.78265 16.4257 5.50698 16.1143 5.4165C15.7235 5.53313 15.9245 5.84627 15.9716 5.89928C16.0665 6.00531 15.8922 6.31844 15.6708 6.31844C15.7713 6.16435 15.6497 6.13254 15.5021 5.88302C15.4915 6.01591 15.798 6.19121 15.6237 6.29724C15.5337 6.37145 15.4072 6.32904 15.3544 6.27603C15.2539 6.16435 15.4915 6.03217 15.4493 5.8088C15.3861 6.12759 15.2912 6.11133 15.3066 6.25977C15.1907 6.29158 15.0691 6.33399 15.0325 6.11133C15.0318 5.8088 15.0318 5.6229 14.984 5.65471Z" fill="#F1EEF0"/>
<path fill-rule="evenodd" clip-rule="evenodd" d="M17.0168 6.89109V6.92294C16.4151 6.96046 15.7972 6.84296 15.2061 6.83234V6.80615C15.8077 6.82172 16.2829 6.9279 17.0168 6.89109Z" fill="#DFDDE2"/>
<path fill-rule="evenodd" clip-rule="evenodd" d="M16.0819 6.99268V7.01957C16.4306 7.07266 16.7785 7.13141 17.0688 7.09956V7.07195C16.7209 7.11442 16.4038 7.04576 16.0819 6.99268Z" fill="#DFDDE2"/>
<path fill-rule="evenodd" clip-rule="evenodd" d="M15.2531 6.49286C15.1582 6.52471 15.2004 6.6684 15.2531 6.66274C15.3642 6.6684 15.4746 6.68398 15.5856 6.66274C15.6489 6.63089 15.67 6.51905 15.5962 6.47658C15.4802 6.4603 15.3642 6.4603 15.2531 6.4872V6.49286ZM15.232 6.47163C15.4218 6.43411 15.5962 6.46101 15.6967 6.47729C15.7866 6.49852 15.7866 6.65779 15.6967 6.68964C15.5962 6.70026 15.3797 6.6953 15.232 6.68398C15.1372 6.60399 15.185 6.50348 15.232 6.47163Z" fill="#C3BDC9"/>
<path fill-rule="evenodd" clip-rule="evenodd" d="M15.9189 6.64658C16.167 6.67843 16.3779 6.69966 16.3252 6.50289C16.2563 6.50359 15.7706 6.39742 15.9189 6.64658ZM15.9133 6.67347C15.8817 6.63596 15.8339 6.56164 15.9238 6.46608C16.0609 6.45546 16.2036 6.46608 16.3512 6.48731C16.4833 6.5404 16.4728 6.66286 16.3617 6.71028C16.1298 6.71099 16.0033 6.69471 15.9133 6.67347Z" fill="#C3BDC9"/>
<path fill-rule="evenodd" clip-rule="evenodd" d="M16.5943 6.67974C16.8424 6.73283 17.0484 6.78096 17.0111 6.57852C16.9422 6.57852 16.4727 6.41926 16.5943 6.67974ZM16.5838 6.70593C16.5521 6.66842 16.5149 6.58914 16.6105 6.49854C16.964 6.51482 16.9064 6.51977 17.0329 6.55162C17.1594 6.61533 17.1384 6.73778 17.0273 6.77459C16.7208 6.78025 16.6681 6.73212 16.5838 6.70027V6.70593Z" fill="#C3BDC9"/>
<path fill-rule="evenodd" clip-rule="evenodd" d="M12.102 10.5854L11.7112 11.7482C11.8222 11.7482 11.9115 11.7539 12.102 11.7164C12.2819 11.3503 12.3185 10.83 12.102 10.5854Z" fill="#C3BDC9"/>
<path fill-rule="evenodd" clip-rule="evenodd" d="M12.4191 12.8521L11.7119 11.748C11.7119 11.748 11.5327 12.2047 11.5116 12.3531C11.6009 12.597 12.0177 12.8465 12.4191 12.8521Z" fill="white"/>
<path fill-rule="evenodd" clip-rule="evenodd" d="M12.303 12.0032C12.5511 11.9126 12.5989 11.7639 12.6038 11.6733L12.1027 11.7158C12.1708 11.8071 12.2446 11.897 12.303 12.0032Z" fill="#C3BDC9"/>
<path fill-rule="evenodd" clip-rule="evenodd" d="M11.4743 11.1641C11.3738 11.0948 11.0469 11.0735 10.978 11.1323L11.3949 11.5202C11.411 11.4083 11.437 11.276 11.4743 11.1641Z" fill="#C3BDC9"/>
<path fill-rule="evenodd" clip-rule="evenodd" d="M10.5345 12.3587L11.7013 11.7536C11.728 11.743 11.5586 12.2152 11.5059 12.3587C11.3688 12.4329 10.7882 12.5707 10.5295 12.3587H10.5345Z" fill="#C3BDC9"/>
<defs>
<linearGradient id="paint0_linear_9437_17188" x1="11.3854" y1="12.5799" x2="13.7072" y2="14.4039" gradientUnits="userSpaceOnUse">
<stop stop-color="#C3BDC9"/>
<stop offset="1" stop-color="#C3BDC9" stop-opacity="0"/>
</linearGradient>
<linearGradient id="paint1_linear_9437_17188" x1="18.3241" y1="16.7614" x2="11.3032" y2="13.1469" gradientUnits="userSpaceOnUse">
<stop stop-color="#C3BDC9"/>
<stop offset="1" stop-color="#C3BDC9" stop-opacity="0"/>
</linearGradient>
<linearGradient id="paint2_linear_9437_17188" x1="22.0718" y1="11.8546" x2="17.8635" y2="15.0538" gradientUnits="userSpaceOnUse">
<stop stop-color="#C3BDC9"/>
<stop offset="1" stop-color="#C3BDC9" stop-opacity="0"/>
</linearGradient>
</defs>
</svg>