<?xml version="1.0" encoding="UTF-8"?>
<svg width="40" height="24" viewBox="0 0 40 24" fill="none" xmlns="http://www.w3.org/2000/svg">
<rect width="40" height="24" rx="2" fill="url(#paint0_linear_9421_3805)"/>
<path d="M2.1875 5C2.1875 7.8125 2.1875 7.8125 5 7.8125C7.8125 7.8125 7.8125 7.8125 7.8125 5C7.8125 2.1875 7.8125 2.1875 5 2.1875C2.1875 2.1875 2.1875 2.1875 2.1875 5Z" fill="#DDDDDD" fill-opacity="0.3"/>
<path fill-rule="evenodd" clip-rule="evenodd" d="M4.69067 2.97452C4.75697 3.08996 4.78267 3.20049 4.81931 3.30493C4.87967 3.29697 4.94899 3.31288 5.01727 3.31791C5.09542 3.33289 5.15684 3.33978 5.21522 3.3309C5.25081 3.16563 5.28152 3.08306 5.35282 2.96763C5.32119 2.9895 5.25489 2.99745 5.22814 3.03734C5.1886 3.00248 5.15789 3.02435 5.13812 3.0612C5.14511 3.03138 5.13615 3.00646 5.09753 3.00341C5.12033 2.9606 5.08461 2.93873 5.04811 2.95769C5.04705 2.91991 5.0174 2.91991 5.01542 2.8999C5.01041 2.92283 4.98379 2.91183 4.98774 2.96763C4.95809 2.94377 4.9283 2.95968 4.9403 3.00142C4.90366 3.00142 4.89377 3.03124 4.89773 3.06915C4.87295 3.01136 4.82642 3.02833 4.80969 3.04927C4.78095 2.99148 4.75829 3.02833 4.69186 2.97465L4.69067 2.97452Z" fill="white"/>
<path fill-rule="evenodd" clip-rule="evenodd" d="M5.27275 3.26904C5.23124 3.34167 5.21239 3.34671 5.02827 3.31782C4.88277 3.30284 4.7511 3.26202 4.74517 3.39442C4.79367 3.40038 4.86392 3.40542 4.89357 3.50893L4.80448 3.58553C4.74109 3.59547 4.64211 3.68003 4.57687 3.60144C4.55908 3.67513 4.62629 3.69593 4.69759 3.69302C4.74702 3.68798 4.76296 3.67407 4.85496 3.65617L4.87974 3.68308C5.01931 3.69501 5.09153 3.895 4.86484 4.01349C4.85588 4.04039 4.87077 4.07326 4.8916 4.07723C4.82623 4.1708 4.71736 4.28717 4.67875 4.21056C4.66978 4.21958 4.64408 4.28319 4.69364 4.31805C4.65608 4.36483 4.64224 4.41957 4.64422 4.48226C4.49476 4.4584 4.39683 4.43349 4.43044 4.29313C4.58873 4.30016 4.63235 4.10798 4.60863 4.01044C4.51664 3.62026 4.01581 3.30682 3.65153 3.29688C3.6713 3.40343 3.73667 3.48004 3.81087 3.55068C3.71387 3.50297 3.6021 3.45711 3.48428 3.48202C3.49812 3.56565 3.54266 3.6632 3.73364 3.82144C3.59604 3.7398 3.47044 3.65922 3.42589 3.59455C3.40612 3.62145 3.39518 3.73092 3.51195 3.81058C3.47439 3.7956 3.2912 3.79666 3.23584 3.83748C3.26945 3.91409 3.42286 4.04847 3.54859 4.09022C3.42879 4.07233 3.31703 4.02449 3.21502 3.93701C3.20012 3.95093 3.21502 4.09327 3.34273 4.14894C3.30121 4.15198 3.16058 4.19174 3.125 4.23654C3.19828 4.33501 3.38622 4.42169 3.47927 4.42169C3.35261 4.43865 3.21304 4.41268 3.15558 4.39479C3.15663 4.42765 3.12988 4.559 3.47729 4.53713C3.35353 4.59584 3.16559 4.71923 3.13581 4.82671C3.25653 4.88052 3.47228 4.83573 3.58418 4.80087C3.25363 5.00391 3.2021 5.02485 3.14082 5.0108C3.22095 5.18098 3.41403 5.06554 3.58022 4.97104C3.37541 5.24671 3.34167 5.38707 3.34668 5.58309C3.51195 5.56321 3.75051 5.32531 3.87822 5.12226C3.73074 5.42776 3.6427 5.67268 3.4823 5.74531C3.66536 5.81794 3.82273 5.58706 3.93357 5.34121C3.891 5.49641 3.87413 5.82589 3.92764 5.90647C4.09291 5.79395 4.21865 5.54319 4.30273 5.25559C4.274 5.39687 4.25331 5.53922 4.20085 5.6805C4.30774 5.70038 4.36217 5.50834 4.39776 5.39581C4.40079 5.40178 4.40474 5.40681 4.41555 5.41675C4.55011 5.31828 4.59268 5.09032 4.60257 5.00179C4.72527 5.03665 4.7797 4.99185 4.81041 4.96892C4.83717 5.0067 4.83914 5.06448 4.84705 5.07243C4.71341 4.96296 4.57094 5.07243 4.56501 5.25453C4.55011 5.33021 4.51057 5.41782 4.40962 5.48541C4.41555 5.49336 4.43044 5.49734 4.44823 5.49641C4.43044 5.52729 4.41463 5.55313 4.38484 5.58096C4.39275 5.586 4.40171 5.586 4.4116 5.58799C4.38879 5.62576 4.35216 5.66062 4.31459 5.67957C4.32356 5.68858 4.32843 5.6915 4.35611 5.69852C4.33133 5.73139 4.29074 5.76227 4.25225 5.77818C4.32553 5.82191 4.38089 5.82695 4.42649 5.82297C4.39776 5.88076 4.35123 5.90952 4.30576 5.93549C4.3196 5.94848 4.33739 5.9514 4.35123 5.94742C4.30972 5.99023 4.26609 6.02403 4.22748 6.03701C4.23446 6.04205 4.23934 6.05 4.26504 6.04801C4.23736 6.08287 4.2027 6.11667 4.14234 6.13257C4.1542 6.1555 4.17897 6.15245 4.1998 6.15245C4.18293 6.18824 4.13153 6.20016 4.07907 6.21116C4.11861 6.22216 4.14537 6.24403 4.12164 6.23807C4.10583 6.25702 4.09001 6.26696 4.05627 6.27292C4.02161 6.27796 3.89588 6.23316 3.84553 6.25C3.83169 6.2211 3.79703 6.20122 3.76039 6.20122C3.71387 6.20122 3.6684 6.23104 3.66536 6.27292C3.65838 6.26789 3.6278 6.26391 3.63268 6.29983C3.64362 6.32077 3.64454 6.33866 3.71083 6.36451C3.72177 6.36954 3.73456 6.37153 3.75143 6.37153C3.77515 6.37047 3.80191 6.35854 3.82168 6.34065C3.85528 6.34767 3.89192 6.35364 3.91169 6.36159C3.85924 6.36557 3.84039 6.39539 3.81074 6.41633C3.79782 6.41633 3.78794 6.41235 3.77607 6.41036C3.76909 6.4093 3.76223 6.40837 3.75525 6.40837C3.71769 6.41036 3.67907 6.45317 3.67512 6.50194C3.67512 6.51188 3.67709 6.5209 3.68105 6.52978V6.53773C3.66919 6.55164 3.67406 6.56264 3.685 6.5706C3.73153 6.58849 3.75828 6.57762 3.77502 6.57457C3.81654 6.56954 3.85225 6.53481 3.85225 6.49598C3.90168 6.48697 3.95018 6.47305 3.97799 6.45317C3.97904 6.45622 3.97996 6.45913 3.97996 6.46311C3.96309 6.47305 3.93449 6.49002 3.9196 6.53972C3.91459 6.53972 3.91064 6.53972 3.90668 6.53972C3.85027 6.53972 3.83644 6.57855 3.83736 6.61142C3.83736 6.6423 3.84922 6.6631 3.86609 6.67516C3.86306 6.69504 3.86504 6.71095 3.88494 6.71691C3.95229 6.72791 3.96902 6.692 3.98194 6.69306C3.98194 6.68404 3.98299 6.67808 3.98589 6.67212C4.00672 6.66218 4.02056 6.65422 4.02253 6.61539C4.02451 6.59154 4.02056 6.57656 4.01265 6.56662H4.01462C4.07604 6.51387 4.11558 6.47212 4.14234 6.43621C4.16606 6.44217 4.21957 6.44018 4.24527 6.43117V6.44111C4.21957 6.46497 4.23631 6.52169 4.26899 6.5197C4.26794 6.52474 4.26794 6.52964 4.26899 6.53561C4.28982 6.54859 4.32935 6.53958 4.35901 6.54661C4.37482 6.54462 4.38181 6.53468 4.37786 6.51374C4.40158 6.49876 4.41845 6.47292 4.41449 6.44111C4.41449 6.39631 4.37983 6.36053 4.33634 6.35748C4.28982 6.35244 4.24632 6.38531 4.25515 6.31374C4.38181 6.16345 4.55407 5.93549 4.60151 5.90872C4.59756 5.90368 4.59558 5.89772 4.59255 5.89083C4.6114 5.94053 4.68165 5.99328 4.7569 5.98837C4.74306 5.96253 4.72817 5.9396 4.72329 5.87095C4.73423 5.88685 4.75295 5.8948 4.7768 5.89984C4.74214 5.73961 4.79367 5.60721 4.90056 5.48687C4.8916 5.64206 4.87288 5.79832 4.77878 5.95564C4.82728 5.97061 4.88962 5.92184 4.89858 5.89189C4.90847 6.03118 4.7768 6.21143 4.67387 6.12475C4.60955 6.26802 4.76296 6.33667 4.85891 6.2541C4.84204 6.34065 4.77575 6.39141 4.7026 6.41129C4.62932 6.43117 4.55314 6.40029 4.60165 6.28194C4.59176 6.27597 4.44428 6.272 4.44033 6.43316C4.44428 6.52567 4.50767 6.56158 4.51255 6.56251C4.30273 6.72168 4.51453 6.89994 4.68679 6.86601C4.82333 6.84507 4.90161 6.73268 4.95104 6.65197C4.93614 6.71068 4.87381 6.89676 5.03222 7.0998C5.18853 6.85395 5.12224 6.68882 5.11829 6.66284C5.24099 6.85289 5.36277 6.86681 5.43394 6.86283C5.55664 6.86482 5.72982 6.67172 5.50919 6.5474C5.62201 6.49359 5.62992 6.26868 5.47058 6.25782C5.50326 6.34635 5.43394 6.40016 5.35776 6.39313C5.28158 6.38611 5.21134 6.34237 5.18458 6.24284C5.33496 6.31547 5.40428 6.1722 5.35288 6.09559C5.22517 6.20215 5.16389 6.03092 5.14702 5.9294C5.1797 5.95431 5.20844 5.96319 5.26287 5.95524C5.15901 5.82085 5.13423 5.63981 5.12527 5.47056C5.19657 5.58401 5.26577 5.72238 5.26379 5.85876C5.28066 5.8508 5.29542 5.84882 5.32415 5.78904C5.32718 5.89056 5.31519 5.90448 5.28066 5.94729C5.33707 5.97114 5.41035 5.92542 5.44501 5.86472C5.55387 6.01196 5.6717 6.16425 5.78544 6.28167C5.81022 6.30752 5.81905 6.33336 5.77252 6.34237C5.6261 6.28764 5.61015 6.44191 5.67157 6.46285C5.66656 6.47676 5.66564 6.49174 5.66959 6.50658C5.69832 6.51559 5.75763 6.49161 5.77345 6.49068C5.78043 6.48365 5.78043 6.46974 5.78043 6.45582C5.79532 6.45582 5.80521 6.44681 5.81206 6.43488C5.84079 6.44085 5.86847 6.44389 5.90511 6.41394L6.01397 6.52341C6.01991 6.52646 6.00804 6.53839 6.02386 6.54038C6.012 6.61301 6.03967 6.62096 6.0634 6.63991C6.05839 6.70962 6.16238 6.66973 6.17226 6.67371C6.1832 6.66668 6.18412 6.65979 6.18215 6.65184C6.19401 6.63885 6.18808 6.63289 6.18412 6.62401C6.23552 6.54435 6.16238 6.48365 6.12178 6.49068C6.07829 6.44297 6.04758 6.42295 6.01292 6.39419C6.08422 6.4211 6.19401 6.45198 6.22577 6.47477C6.23763 6.55641 6.30893 6.52249 6.36139 6.52553C6.37721 6.50261 6.3693 6.49571 6.36139 6.48776C6.42966 6.39817 6.28521 6.32554 6.22379 6.37829C6.18715 6.34449 6.15552 6.33853 6.12284 6.32448C6.13668 6.31056 6.16541 6.29956 6.2317 6.29559C6.26136 6.31547 6.29009 6.32249 6.31974 6.30062C6.33266 6.32846 6.3573 6.32156 6.36627 6.31653C6.38801 6.29161 6.38801 6.25384 6.39394 6.21898C6.38801 6.20599 6.37905 6.19804 6.36231 6.1991C6.31776 6.1225 6.2317 6.16928 6.22669 6.20308C6.15249 6.20904 6.0862 6.21898 6.00791 6.24986C5.98221 6.25782 5.95743 6.22998 5.93569 6.21302C5.95546 6.20507 5.97325 6.19605 5.97233 6.17922C5.9407 6.17617 5.90999 6.17922 5.87335 6.14039L5.88323 6.11455C5.8545 6.10553 5.82485 6.08473 5.78729 6.02601C5.79519 6.02098 5.80218 6.01303 5.80903 6.00017C5.76646 5.99023 5.7318 5.9673 5.70412 5.93443C5.71401 5.9294 5.72389 5.92052 5.73285 5.9066C5.69331 5.88274 5.65562 5.8618 5.57944 5.76227V5.76121C5.65957 5.7742 5.74274 5.76717 5.79124 5.73033C5.7517 5.71933 5.6833 5.69653 5.65167 5.63676C5.66656 5.6357 5.67539 5.63279 5.68527 5.62974C5.62583 5.58998 5.61002 5.56904 5.5942 5.53617C5.60712 5.53723 5.62491 5.53113 5.63084 5.52318C5.59223 5.50529 5.57536 5.48143 5.56152 5.45546C5.57733 5.45546 5.5942 5.4585 5.60699 5.44949C5.45463 5.38084 5.47638 5.02247 5.31203 5.02154C5.23875 5.0275 5.22596 5.04341 5.18827 5.06236C5.19921 5.03148 5.21793 5.00259 5.23769 4.97475C5.32679 5.0165 5.39809 4.99265 5.42181 4.97171C5.43368 5.11604 5.4802 5.27031 5.57918 5.34691C5.59605 5.33697 5.61674 5.32504 5.6286 5.31113C5.64639 5.44445 5.69595 5.62059 5.80771 5.60575C5.75631 5.47732 5.75724 5.34797 5.7513 5.21862C5.79783 5.59581 5.91368 5.81581 6.00857 5.88248C6.05206 5.82377 6.08475 5.54902 6.06406 5.38283C6.15803 5.553 6.26202 5.71125 6.34913 5.71032C6.38867 5.71032 6.4323 5.67745 6.45905 5.6695C6.32251 5.6137 6.22946 5.36096 6.1463 5.20377C6.30366 5.45161 6.49068 5.56307 6.57885 5.58004C6.58188 5.50343 6.59862 5.28939 6.40264 4.99185C6.75296 5.17793 6.82729 5.05759 6.84798 4.99384C6.68969 5.04964 6.47684 4.84461 6.33437 4.7798L6.33239 4.77383C6.54116 4.86939 6.7461 4.90226 6.87381 4.82155C6.76495 4.6523 6.65899 4.59067 6.54419 4.5468C6.77088 4.57172 6.84508 4.49511 6.84996 4.4095C6.76679 4.43733 6.69062 4.44237 6.59164 4.42646C6.80844 4.38273 6.84798 4.29008 6.846 4.2812C6.79052 4.23747 6.68561 4.1887 6.59072 4.17968C6.85194 4.08519 6.7689 3.99559 6.75902 3.96776C6.67783 4.04437 6.53628 4.0991 6.51058 4.09711C6.63236 4.03337 6.73819 3.86518 6.73134 3.84636C6.66992 3.81455 6.54432 3.81654 6.49279 3.83138C6.54327 3.77559 6.61062 3.6791 6.5492 3.59945C6.48976 3.68401 6.43335 3.72788 6.378 3.77267C6.4294 3.708 6.48791 3.63338 6.50861 3.4811C6.43243 3.49104 6.3631 3.48415 6.26412 3.54975C6.32053 3.47805 6.35612 3.40847 6.3631 3.32285C6.02162 3.34671 5.62175 3.52682 5.4288 3.97677C5.37239 4.10918 5.41694 4.33303 5.59209 4.30718C5.61977 4.42063 5.54557 4.48928 5.38333 4.48438C5.3803 4.44661 5.39124 4.37093 5.34577 4.3321C5.38531 4.32905 5.39321 4.30917 5.40125 4.29234C5.29529 4.26742 5.31216 4.23256 5.33193 4.04357C5.34577 4.04954 5.36158 4.04556 5.37344 4.03456C5.32995 3.99374 5.34379 3.91912 5.36646 3.68321C5.37041 3.58076 5.34959 3.52894 5.32692 3.51105C5.34076 3.50403 5.34972 3.49316 5.34274 3.46731C5.39124 3.4583 5.37041 3.39866 5.35064 3.37878C5.34076 3.40569 5.29924 3.41563 5.25957 3.38581C5.30807 3.36394 5.30807 3.3092 5.27143 3.2713L5.27275 3.26904ZM5.47071 5.80601C5.47071 5.80601 5.47374 5.80998 5.47572 5.81197C5.47374 5.80998 5.47269 5.80892 5.47071 5.80693V5.80601ZM4.47104 5.8129C4.46603 5.83079 4.47499 5.87956 4.47604 5.91137C4.49186 5.91932 4.52059 5.91137 4.55328 5.89838C4.5513 5.89838 4.54932 5.90037 4.54827 5.90037C4.52349 5.90938 4.49384 5.91932 4.47604 5.91137L4.47011 5.83874C4.46906 5.83079 4.46906 5.82178 4.47117 5.81184L4.47104 5.8129ZM4.45917 5.81595C4.45917 5.81595 4.45324 5.81794 4.45127 5.81794C4.4543 5.81794 4.4572 5.81687 4.45917 5.81595ZM5.4914 5.82483C5.52804 5.85173 5.57259 5.85173 5.5884 5.84776C5.5884 5.84577 5.59038 5.84378 5.59144 5.84179C5.59144 5.84378 5.59038 5.84683 5.58946 5.84882C5.55572 5.85372 5.52211 5.84868 5.4914 5.82483ZM5.17272 6.47173C5.20633 6.50751 5.33799 6.60505 5.48943 6.55827C5.50234 6.64481 5.42906 6.67676 5.3716 6.66576C5.31519 6.65383 5.2311 6.60903 5.17272 6.47265V6.47173ZM4.87091 6.49359C4.82148 6.58809 4.7403 6.66774 4.66702 6.6867C4.59479 6.70565 4.52652 6.66973 4.55314 6.57417C4.71051 6.62692 4.83822 6.53335 4.87091 6.49253V6.49359Z" fill="white"/>
<path fill-rule="evenodd" clip-rule="evenodd" d="M4.14638 4.74615C4.09287 4.68346 4.10091 4.6437 4.10289 4.62077C4.0445 4.57598 4.05939 4.55901 4.04938 4.54112C4.0702 4.5769 4.08997 4.60089 4.11079 4.60381C4.14941 4.63959 4.18803 4.65152 4.22664 4.67445C3.99007 4.54404 4.05544 4.38486 4.05834 4.33901C4.0217 4.34007 3.99402 4.33304 3.97425 4.31807C3.98124 4.25339 4.01485 4.20157 4.08615 4.16578C4.07719 4.16883 4.06836 4.17281 4.05939 4.1748C4.05149 4.17281 4.03066 4.12006 4.05636 4.0852C4.07125 4.07619 4.11079 4.07221 4.15139 4.08825C4.17511 4.03948 4.20582 3.99667 4.27014 3.97971C4.28595 3.99667 4.31271 4.04544 4.29386 4.13093C4.32061 4.14087 4.34631 4.1528 4.36714 4.18474C4.36015 4.21164 4.35422 4.21959 4.34737 4.22648C4.45122 4.22754 4.46124 4.08123 4.34539 4.06625C4.36424 3.92895 4.18908 3.8473 4.11277 4.01655C3.97228 3.97878 3.93458 4.08825 3.98809 4.1748C3.97122 4.18778 3.83178 4.29023 3.96437 4.43748C3.96437 4.51011 3.98216 4.58075 4.08022 4.64251C4.10789 4.72614 4.12569 4.72614 4.14651 4.74403V4.74615H4.14638Z" fill="#DFDDE2"/>
<path fill-rule="evenodd" clip-rule="evenodd" d="M5.88538 3.97865L5.90422 3.94286C6.03088 3.92298 6.10706 4.00754 6.05763 4.10813C6.15951 4.19574 6.1031 4.31011 6.04182 4.33211C6.1151 4.27738 6.0745 4.26041 6.06264 4.26147C6.0666 4.25948 6.07253 4.25644 6.07753 4.25153C6.07358 4.20382 6.05473 4.15796 5.98159 4.10323C6.01823 4.06241 6.01427 4.02463 6.00926 3.99773C5.96867 3.98673 5.93309 3.99071 5.90132 4.00674L5.88551 3.97692L5.88538 3.97865Z" fill="#DFDDE2"/>
<path fill-rule="evenodd" clip-rule="evenodd" d="M5.71021 4.22677C5.71614 4.20689 5.72115 4.17508 5.75674 4.14513C5.7458 4.15308 5.73302 4.16302 5.71918 4.17495C5.67371 4.156 5.64392 4.11425 5.63707 4.08841C5.66474 4.05156 5.73209 4.05753 5.74092 4.05951C5.72115 3.98583 5.74685 3.93109 5.76465 3.91028C5.82501 3.91624 5.85664 3.94713 5.88142 3.97496L5.89921 3.94209C5.88234 3.8904 5.83186 3.85157 5.77255 3.8635C5.72313 3.86853 5.66567 3.91227 5.68847 4.01472C5.53809 4.07542 5.6024 4.22068 5.70929 4.22571L5.71021 4.22677Z" fill="#DFDDE2"/>
<path fill-rule="evenodd" clip-rule="evenodd" d="M5.38359 4.48463C5.37766 4.54042 5.36672 4.58111 5.35486 4.61902C5.55875 4.58814 5.86162 4.53539 5.82102 4.30955C5.78346 4.33645 5.74682 4.34136 5.70913 4.34242C5.7032 4.31061 5.69924 4.27575 5.71018 4.23096C5.67657 4.27668 5.6369 4.29471 5.59539 4.30465C5.78043 4.38721 5.51723 4.53459 5.40731 4.48476H5.38254L5.38359 4.48463Z" fill="#F1EEF0"/>
<path fill-rule="evenodd" clip-rule="evenodd" d="M4.64617 4.56885C4.65211 4.6326 4.67188 4.71013 4.69072 4.78289C4.67794 4.76195 4.63827 4.63657 4.64617 4.56885Z" fill="#E8E6EB"/>
<path fill-rule="evenodd" clip-rule="evenodd" d="M5.25391 4.52434C5.20448 4.72142 5.42221 4.70154 5.26972 4.50049C5.41813 4.59207 5.32112 4.72845 5.31322 4.75919C5.28949 4.65383 5.19855 4.62693 5.25391 4.52434Z" fill="#C3BDC9"/>
<path fill-rule="evenodd" clip-rule="evenodd" d="M4.27024 3.98486L4.19604 4.20288C4.17824 4.19493 4.16045 4.18791 4.1366 4.16007C4.1366 4.0844 4.20394 3.99083 4.26918 3.98486H4.27024Z" fill="white"/>
<path fill-rule="evenodd" clip-rule="evenodd" d="M4.32863 4.40976L4.19604 4.2038C4.21687 4.2038 4.24059 4.2038 4.27025 4.19678C4.30979 4.23362 4.35236 4.32918 4.32969 4.40976H4.32863Z" fill="#C3BDC9"/>
<path fill-rule="evenodd" clip-rule="evenodd" d="M4.29091 4.13428C4.33045 4.14529 4.35826 4.1721 4.36314 4.18816L4.26917 4.19719C4.27813 4.17715 4.28498 4.15618 4.29091 4.13428Z" fill="white"/>
<path fill-rule="evenodd" clip-rule="evenodd" d="M4.05839 4.17606C4.0406 4.15018 4.0406 4.09829 4.05839 4.0874L4.13654 4.16013C4.11572 4.16518 4.07816 4.16717 4.05733 4.17606H4.05839Z" fill="white"/>
<path fill-rule="evenodd" clip-rule="evenodd" d="M3.97632 4.31746L4.1951 4.20401C4.1951 4.20401 4.16439 4.16717 4.13671 4.16028C4.0782 4.15219 3.98119 4.22588 3.97632 4.31746Z" fill="white"/>
<path fill-rule="evenodd" clip-rule="evenodd" d="M4.1583 4.31795C4.04548 4.64346 4.53247 4.69422 4.66202 4.7031L4.64621 4.62146C4.41069 4.61046 4.19098 4.55877 4.22367 4.38064C4.1811 4.35374 4.17227 4.34181 4.1583 4.31689V4.31795Z" fill="url(#paint1_linear_9421_3805)"/>
<path fill-rule="evenodd" clip-rule="evenodd" d="M4.1583 4.31738C4.1326 4.33037 4.09491 4.33634 4.0584 4.34124C3.96443 4.73632 4.57307 4.7672 4.68984 4.78218C4.67205 4.74533 4.66704 4.72638 4.66216 4.70253C4.35336 4.68251 4.06829 4.56615 4.1583 4.31738Z" fill="url(#paint2_linear_9421_3805)"/>
<path fill-rule="evenodd" clip-rule="evenodd" d="M5.76753 3.91219C5.80114 3.98283 5.83778 4.06646 5.86348 4.14506C5.87837 4.12319 5.89221 4.10132 5.92187 4.0764C5.90605 4.00179 5.86836 3.92319 5.76648 3.91113L5.76753 3.91219Z" fill="#C3BDC9"/>
<path fill-rule="evenodd" clip-rule="evenodd" d="M5.76747 3.91113C5.80213 3.98376 5.84167 4.07031 5.86447 4.14506L5.78131 4.13313C5.73188 4.07932 5.72002 3.97183 5.76747 3.91113Z" fill="white"/>
<path fill-rule="evenodd" clip-rule="evenodd" d="M5.63997 4.08741C5.66172 4.06246 5.70732 4.0545 5.74383 4.06153C5.75173 4.0825 5.76557 4.1113 5.78047 4.13333L5.63892 4.08754H5.63997V4.08741Z" fill="#C3BDC9"/>
<path fill-rule="evenodd" clip-rule="evenodd" d="M6.00608 4.00146L5.922 4.07725L5.97748 4.10618C6.02203 4.06836 6.00911 4.00054 6.00714 4.0016H6.00608V4.00146Z" fill="#C3BDC9"/>
<path fill-rule="evenodd" clip-rule="evenodd" d="M5.92197 4.07617C5.90813 4.07922 5.86161 4.14482 5.86451 4.1439L6.07525 4.25244C6.07538 4.2156 6.0427 4.12494 5.92197 4.07617Z" fill="#C3BDC9"/>
<path fill-rule="evenodd" clip-rule="evenodd" d="M5.86354 4.14404L5.71118 4.34205C5.80818 4.33807 5.84772 4.29434 5.88146 4.24053L5.86262 4.14497L5.86354 4.14404Z" fill="#C3BDC9"/>
<path fill-rule="evenodd" clip-rule="evenodd" d="M6.00611 4.00183C5.97343 3.99081 5.92993 3.99479 5.90015 4.01085C5.91003 4.03182 5.91702 4.05863 5.92189 4.07761L6.00611 4.00183Z" fill="white"/>
<path fill-rule="evenodd" clip-rule="evenodd" d="M5.86365 4.14404L6.0765 4.25274C6.03788 4.28459 5.91518 4.25473 5.88157 4.2408L5.86365 4.14404Z" fill="white"/>
<path fill-rule="evenodd" clip-rule="evenodd" d="M5.86357 4.14425L5.78041 4.13232C5.68841 4.17116 5.70423 4.3294 5.71108 4.34133L5.86357 4.14425Z" fill="white"/>
<path fill-rule="evenodd" clip-rule="evenodd" d="M5.77946 4.13319L5.63989 4.0874C5.64688 4.12125 5.68839 4.16013 5.7191 4.17314C5.72596 4.16717 5.75666 4.13823 5.77946 4.13319Z" fill="white"/>
<path fill-rule="evenodd" clip-rule="evenodd" d="M5.88441 4.24072C5.85871 4.27956 5.8508 4.2895 5.82207 4.30845C5.87149 4.53733 5.5449 4.59406 5.35591 4.62096C5.35393 4.65277 5.34405 4.67875 5.33508 4.70353C5.36869 4.70154 6.03874 4.68869 5.88441 4.24072Z" fill="white"/>
<path fill-rule="evenodd" clip-rule="evenodd" d="M5.88841 4.24365C5.97842 4.57605 5.68359 4.67068 5.33618 4.70248C5.32722 4.72343 5.31931 4.74529 5.3114 4.76915C5.7835 4.73628 6.02995 4.58307 5.96564 4.2626C5.93493 4.25757 5.91107 4.25054 5.88841 4.24365Z" fill="url(#paint3_linear_9421_3805)"/>
<path fill-rule="evenodd" clip-rule="evenodd" d="M3.68417 6.5723C3.72174 6.59022 3.76931 6.57828 3.79409 6.57031C3.80793 6.58332 3.79014 6.63508 3.82968 6.67197C3.80688 6.68193 3.68127 6.64304 3.68325 6.5723H3.68417Z" fill="white"/>
<path fill-rule="evenodd" clip-rule="evenodd" d="M3.63078 6.29883C3.64659 6.34959 3.69114 6.35463 3.70893 6.36549C3.70893 6.38445 3.65951 6.38338 3.65846 6.4531C3.62485 6.45005 3.57727 6.37053 3.63078 6.29989V6.29883Z" fill="white"/>
<path fill-rule="evenodd" clip-rule="evenodd" d="M3.88322 6.71685C3.94464 6.7268 3.96639 6.69389 3.98023 6.69189C3.98721 6.7118 4.01489 6.73874 4.04164 6.75268C4.02873 6.79847 3.88019 6.78851 3.88322 6.71685Z" fill="white"/>
<path fill-rule="evenodd" clip-rule="evenodd" d="M4.35735 6.54764C4.35339 6.53967 4.28314 6.54764 4.27023 6.53662C4.26127 6.54764 4.25837 6.58347 4.23267 6.59741C4.24954 6.62833 4.36723 6.61838 4.35735 6.54658V6.54764Z" fill="white"/>
<path fill-rule="evenodd" clip-rule="evenodd" d="M4.49079 5.91652C4.50173 5.91546 4.51161 5.91347 4.52044 5.91148C4.47893 5.96118 4.4096 6.04879 4.34028 6.12248C4.27095 6.19616 4.20769 6.26879 4.23141 6.33546C4.18291 6.28775 4.22641 6.2399 4.29085 6.16224C4.36216 6.07781 4.44137 5.98119 4.49079 5.91652ZM4.4038 6.45103C4.4038 6.48482 4.37507 6.51676 4.3068 6.51372C4.38403 6.42916 4.22759 6.4232 4.26529 6.38834C4.36809 6.3226 4.41171 6.42412 4.4038 6.45103ZM4.33052 6.52564C4.35333 6.53068 4.36716 6.50272 4.37204 6.51663C4.38192 6.54446 4.33145 6.5495 4.33052 6.52564ZM3.80887 6.23102C3.79306 6.23102 3.79794 6.29477 3.70396 6.29172C3.70199 6.29172 3.69303 6.29172 3.68815 6.30073C3.67721 6.32167 3.7149 6.36541 3.74957 6.36342C3.78027 6.36143 3.80505 6.34354 3.82087 6.32167C3.82785 6.3177 3.87728 6.28987 3.87332 6.30179C3.81494 6.33069 3.82983 6.34858 3.92182 6.3556C3.98021 6.34659 4.02977 6.29583 4.05046 6.28589C3.99102 6.29583 3.86436 6.25607 3.83563 6.25607C3.83168 6.24494 3.82284 6.23606 3.80887 6.23102ZM3.70502 6.55745C3.70304 6.56249 3.70001 6.56646 3.69606 6.56938C3.71293 6.58038 3.75642 6.57733 3.76143 6.57336C3.75642 6.57336 3.71991 6.57137 3.70396 6.55745H3.70502ZM4.13955 6.29278C4.06034 6.33161 4.00591 6.47197 3.80993 6.45302C3.80492 6.46998 3.79411 6.47396 3.78423 6.47886C3.74364 6.47886 3.69619 6.48787 3.69711 6.51372C3.69711 6.5446 3.74561 6.56448 3.77724 6.5605C3.80993 6.55652 3.84354 6.52564 3.84354 6.49476C3.84354 6.49476 3.84657 6.48973 3.84947 6.48973C4.06627 6.44294 4.09988 6.33055 4.14047 6.29172L4.13955 6.29278ZM4.17408 6.29676C4.16512 6.34951 3.99392 6.50775 3.98601 6.55944C3.97705 6.55242 3.96426 6.54751 3.93659 6.54844C3.9524 6.62809 3.88716 6.65195 3.86924 6.63803C3.86924 6.67382 3.92064 6.68879 3.95438 6.68177C3.99392 6.67382 4.0266 6.61312 4.0038 6.57627C4.00881 6.51054 4.09487 6.49172 4.13046 6.40703C4.16209 6.40703 4.1671 6.35733 4.20571 6.34831C4.19781 6.32247 4.16512 6.35627 4.17303 6.29451L4.17408 6.29676ZM3.66943 6.29676C3.67444 6.32764 3.68828 6.34155 3.712 6.36051C3.69316 6.35348 3.67536 6.34858 3.65454 6.33069C3.67339 6.33652 3.65955 6.29172 3.66943 6.29676ZM4.07906 6.21207C4.1157 6.22002 4.16314 6.224 4.22746 6.22002C4.13362 6.25289 4.09105 6.24202 4.07906 6.21207ZM4.19794 6.15243C4.19794 6.15746 4.19003 6.1674 4.18304 6.17337C4.22851 6.17337 4.27306 6.16343 4.30482 6.12658C4.27517 6.1405 4.24143 6.1515 4.19794 6.1515V6.15243ZM4.26225 6.04786C4.25922 6.05382 4.24736 6.06681 4.23853 6.07569C4.27609 6.07967 4.35043 6.0627 4.38298 6.02599C4.35333 6.03991 4.30575 6.04693 4.26225 6.04693V6.04786ZM4.34937 5.9474C4.34239 5.95442 4.32064 5.97629 4.31273 5.98318C4.35029 5.98716 4.43451 5.95734 4.46707 5.92142C4.43741 5.93534 4.39286 5.94727 4.35029 5.94727L4.34937 5.9474ZM4.4701 5.83594C4.46812 5.87875 4.45323 5.90658 4.43741 5.92553C4.45033 5.92155 4.46311 5.91851 4.47603 5.91254C4.47497 5.88869 4.473 5.86085 4.46904 5.83687L4.4701 5.83594Z" fill="#DFDDE2"/>
<path fill-rule="evenodd" clip-rule="evenodd" d="M5.67358 6.5047C5.71115 6.51372 5.75675 6.4897 5.77849 6.48877C5.78838 6.50868 5.79233 6.53058 5.83398 6.54464C5.8063 6.57557 5.70337 6.58552 5.67358 6.50377V6.5047Z" fill="white"/>
<path fill-rule="evenodd" clip-rule="evenodd" d="M6.09028 6.67481C6.07644 6.68874 6.06154 6.70268 6.03479 6.7186C6.08131 6.76147 6.17634 6.71356 6.17239 6.67175C6.16342 6.65583 6.1368 6.69073 6.08922 6.67481H6.09028Z" fill="white"/>
<path fill-rule="evenodd" clip-rule="evenodd" d="M6.27232 6.52558C6.27232 6.58145 6.26638 6.59632 6.2594 6.6153C6.28615 6.63321 6.35442 6.59034 6.36233 6.52465C6.35548 6.50859 6.32582 6.53646 6.27232 6.52558Z" fill="white"/>
<path fill-rule="evenodd" clip-rule="evenodd" d="M6.39802 6.21777C6.37825 6.22281 6.39011 6.2904 6.36731 6.31134C6.38616 6.32128 6.39894 6.3462 6.41186 6.36913C6.45535 6.33626 6.45337 6.24176 6.39802 6.21777Z" fill="white"/>
<path fill-rule="evenodd" clip-rule="evenodd" d="M5.72112 6.49874C5.74194 6.49278 5.76461 6.48178 5.77252 6.48482C5.78544 6.44003 5.75565 6.46587 5.72112 6.49874ZM5.69133 6.46296C5.73193 6.46296 5.78926 6.46998 5.80415 6.41524C5.86754 6.44612 5.93384 6.38741 5.91895 6.33267C5.91895 6.33267 5.89812 6.42624 5.76751 6.36753C5.74076 6.36355 5.70517 6.38052 5.70715 6.39841C5.70913 6.42134 5.75367 6.44122 5.69133 6.46415V6.46296ZM6.03875 6.4171C6.07236 6.45089 6.09318 6.48284 6.0862 6.50762C6.10702 6.4778 6.109 6.49569 6.11295 6.50762C6.13773 6.52657 6.15552 6.58422 6.0941 6.62213C6.12283 6.63008 6.12573 6.65592 6.0941 6.66494C6.09516 6.69184 6.1683 6.65791 6.17423 6.66891C6.18017 6.66693 6.18214 6.65791 6.1832 6.64996C6.18913 6.64201 6.19018 6.63207 6.1832 6.62014C6.22972 6.54155 6.17226 6.49874 6.12178 6.48973C6.09107 6.45792 6.06432 6.43897 6.03769 6.4171H6.03875ZM6.04073 6.33254C6.09015 6.36435 6.15855 6.38927 6.22287 6.43101C6.28718 6.36634 6.33476 6.47276 6.24264 6.47979C6.26636 6.5226 6.36442 6.51955 6.36139 6.48575C6.4228 6.36925 6.25648 6.34049 6.22379 6.38224C6.17331 6.35335 6.12784 6.32154 6.05549 6.30855C6.19796 6.37031 6.22274 6.38913 6.19796 6.39311C6.17529 6.39629 6.09516 6.35043 6.04073 6.33254ZM6.08422 6.24295C6.12376 6.22598 6.2089 6.22797 6.2317 6.20717C6.26926 6.13851 6.33858 6.1564 6.36139 6.2012C6.3772 6.2012 6.38906 6.20425 6.39104 6.2171C6.37615 6.24997 6.38603 6.32963 6.34452 6.30961C6.35242 6.30365 6.34847 6.29769 6.34452 6.29172C6.32672 6.30961 6.32672 6.28973 6.32672 6.28072C6.29997 6.3116 6.28718 6.30657 6.26834 6.30166C6.27335 6.29967 6.27532 6.29464 6.27427 6.28576C6.3515 6.25594 6.28415 6.16528 6.22181 6.24997C6.20099 6.25594 6.1169 6.23699 6.08527 6.24096L6.08422 6.24295ZM5.46873 5.80811L5.4657 5.81712C5.49733 5.84601 5.77147 6.14951 5.85265 6.27887C5.84079 6.25103 5.84567 6.24003 5.79717 6.18132C5.92092 6.25103 5.98221 6.18927 5.9743 6.17536C5.96442 6.17642 5.95743 6.17841 5.95255 6.17536C5.83776 6.23407 5.75262 6.13652 5.70214 6.07185C5.76646 6.12354 5.8081 6.13255 5.87532 6.13652C5.88231 6.1246 5.88323 6.11863 5.88428 6.11267C5.87835 6.11161 5.87242 6.10962 5.86847 6.1067C5.79031 6.13652 5.69726 6.07688 5.62399 5.97735C5.69331 6.02811 5.74379 6.02308 5.79123 6.02308C5.79822 6.01406 5.80903 6.00717 5.81008 5.99617C5.8031 5.99617 5.79822 5.99418 5.79229 5.9922C5.74379 6.00916 5.62306 6.0032 5.5656 5.9026C5.60514 5.92951 5.64969 5.94541 5.70609 5.93149C5.71703 5.92248 5.72982 5.91453 5.73179 5.90459C5.66155 5.92248 5.59328 5.92248 5.53094 5.86682C5.54873 5.86682 5.56758 5.86085 5.58642 5.85184C5.54978 5.85489 5.51117 5.85184 5.46768 5.80811H5.46873Z" fill="#DFDDE2"/>
<path fill-rule="evenodd" clip-rule="evenodd" d="M4.61963 3.64669C4.75617 3.72048 4.91261 3.55299 5.0224 3.64364C5.03426 3.64364 5.03624 3.63567 5.03426 3.62771C4.90655 3.51211 4.77001 3.68266 4.61963 3.64669Z" fill="#C3BDC9"/>
<path fill-rule="evenodd" clip-rule="evenodd" d="M4.57003 5.74946L4.55909 5.76046C4.54618 5.82024 4.51454 5.86901 4.47791 5.91473C4.51151 5.91977 4.55211 5.90174 4.59072 5.88385C4.56595 5.83813 4.56107 5.80725 4.56898 5.74854L4.57003 5.74946Z" fill="#C3BDC9"/>
<path fill-rule="evenodd" clip-rule="evenodd" d="M4.60865 5.66875C4.62749 5.70652 4.66413 5.64489 4.68087 5.62793C4.65807 5.70957 4.6126 5.79214 4.71158 5.86874C4.6611 5.87378 4.64726 5.89565 4.69379 5.94641C4.60166 5.90068 4.55026 5.82607 4.60865 5.66875Z" fill="#DFDDE2"/>
<path fill-rule="evenodd" clip-rule="evenodd" d="M4.68487 5.62373C4.65324 5.78503 4.7057 5.84864 4.75815 5.86362C4.73838 5.68947 4.80758 5.56409 4.90366 5.46946C4.89773 5.30724 4.87493 5.23355 4.85713 5.11719C4.85819 5.17192 4.89667 5.32023 4.87097 5.42374C4.84422 5.53228 4.76712 5.63672 4.68593 5.62479L4.68487 5.62373Z" fill="#CECAD5"/>
<path fill-rule="evenodd" clip-rule="evenodd" d="M4.36523 5.79122C4.45631 5.79719 4.53051 5.76826 4.59087 5.70654C4.55818 5.78724 4.48293 5.82612 4.37117 5.81418C4.41176 5.80714 4.41268 5.80011 4.36523 5.79122Z" fill="#C3BDC9"/>
<path fill-rule="evenodd" clip-rule="evenodd" d="M4.35422 5.69776C4.34526 5.71168 4.33841 5.71764 4.33142 5.72467C4.47495 5.74362 4.55508 5.67497 4.60951 5.61413C4.68872 5.61917 4.74408 5.56642 4.79165 5.51367C4.73814 5.55648 4.68279 5.59134 4.62045 5.58338C4.55903 5.67298 4.47205 5.71473 4.35422 5.69683V5.69776Z" fill="#C3BDC9"/>
<path fill-rule="evenodd" clip-rule="evenodd" d="M4.41064 5.5879C4.3997 5.61083 4.3968 5.60977 4.39087 5.61772C4.43937 5.62766 4.50672 5.60871 4.62046 5.51328C4.73328 5.51023 4.7798 5.43668 4.81249 5.40381C4.75305 5.4555 4.69176 5.48346 4.63034 5.48439C4.5709 5.54615 4.50566 5.59585 4.41156 5.5879H4.41064Z" fill="#C3BDC9"/>
<path fill-rule="evenodd" clip-rule="evenodd" d="M4.44734 5.49763L4.42651 5.52944C4.46605 5.52745 4.51758 5.52944 4.62737 5.42699C4.71146 5.4091 4.78777 5.34535 4.85406 5.23389C4.79857 5.30254 4.7481 5.37517 4.63726 5.38511C4.60852 5.45084 4.5334 5.47762 4.44721 5.49657V5.49763H4.44734Z" fill="#C3BDC9"/>
<path fill-rule="evenodd" clip-rule="evenodd" d="M5.37367 5.63184C5.36576 5.69055 5.35285 5.7433 5.32715 5.78412C5.33018 5.80307 5.32913 5.82295 5.3282 5.8419C5.36774 5.80108 5.39634 5.68657 5.37367 5.63184Z" fill="#C3BDC9"/>
<path fill-rule="evenodd" clip-rule="evenodd" d="M5.43103 5.65967C5.4736 5.7702 5.43498 5.91745 5.30042 5.94329C5.34193 5.96118 5.46766 5.90353 5.48546 5.7323L5.58839 5.84879C5.59432 5.82189 5.59735 5.79499 5.57851 5.75522C5.49732 5.73826 5.47056 5.70552 5.43208 5.65967H5.43103Z" fill="#C3BDC9"/>
<path fill-rule="evenodd" clip-rule="evenodd" d="M5.49731 5.6958C5.5528 5.71969 5.64967 5.75659 5.74667 5.71372C5.76157 5.71969 5.7754 5.72473 5.79017 5.72672C5.75748 5.76163 5.66443 5.76959 5.57942 5.75858C5.69633 5.74265 5.51919 5.72964 5.49731 5.6958Z" fill="#C5BDCB"/>
<path fill-rule="evenodd" clip-rule="evenodd" d="M5.30444 5.49854C5.34504 5.52743 5.38958 5.54426 5.44098 5.54426C5.4796 5.61689 5.59044 5.63783 5.65278 5.63385C5.65581 5.64379 5.66267 5.6528 5.67057 5.66076C5.61812 5.66076 5.55077 5.64379 5.44784 5.57819C5.42029 5.56825 5.32224 5.52239 5.30444 5.49854Z" fill="#C4BDCB"/>
<path fill-rule="evenodd" clip-rule="evenodd" d="M5.28357 5.38916C5.32416 5.42296 5.36766 5.43992 5.41523 5.44588C5.46373 5.49757 5.5212 5.52448 5.59632 5.53442L5.61214 5.56225C5.58841 5.56424 5.47454 5.51348 5.43303 5.47464C5.36278 5.45675 5.31032 5.4219 5.28462 5.39009L5.28357 5.38916Z" fill="#C3BDC9"/>
<path fill-rule="evenodd" clip-rule="evenodd" d="M5.29255 5.30127C5.33907 5.34699 5.39153 5.36595 5.4341 5.36595C5.46573 5.39974 5.49552 5.4346 5.56273 5.45249C5.56576 5.4615 5.56972 5.46946 5.57459 5.47542C5.52411 5.47542 5.45387 5.40372 5.44596 5.39285C5.37769 5.38291 5.30046 5.34805 5.29163 5.30233L5.29255 5.30127Z" fill="#C3BDC9"/>
<path fill-rule="evenodd" clip-rule="evenodd" d="M4.88782 5.09462C4.90271 5.08866 4.90956 5.08071 4.91655 5.07275C4.92841 5.08972 4.9462 5.09369 4.96307 5.09767C4.93039 5.09661 4.92643 5.11159 4.94225 5.13942C4.94923 5.15042 4.96004 5.31264 4.96307 5.41019C4.96307 5.50071 4.97599 5.55942 4.99378 5.59931C4.92248 5.53861 4.96215 5.17441 4.88782 5.09568V5.09462Z" fill="#DFDDE2"/>
<path fill-rule="evenodd" clip-rule="evenodd" d="M5.00647 5.10126C5.04601 5.09729 5.08568 5.0953 5.13313 5.06641L5.15 5.08629C5.11639 5.1609 5.09649 5.33611 5.07579 5.4933C5.08173 5.39284 5.0837 5.30324 5.07883 5.27833C5.06789 5.2216 5.06986 5.18781 5.07092 5.17787C5.09266 5.09927 5.03336 5.11809 5.0066 5.1002L5.00647 5.10126Z" fill="#CECAD5"/>
<path fill-rule="evenodd" clip-rule="evenodd" d="M5.16591 5.0957L5.17092 5.10074C5.10357 5.24798 5.17092 5.58542 5.02647 5.75559L5.02344 5.68985C5.13322 5.61722 5.10555 5.24494 5.16591 5.0957Z" fill="#C3BDC9"/>
<path fill-rule="evenodd" clip-rule="evenodd" d="M4.92339 5.4585C4.92339 5.69931 4.962 5.74517 4.79871 5.94622C4.87488 5.88247 4.96002 5.68751 4.94909 5.79898C4.96793 5.76319 4.98665 5.72728 4.99166 5.69653C4.92839 5.58785 4.93129 5.52516 4.92339 5.4585Z" fill="#C3BDC9"/>
<path fill-rule="evenodd" clip-rule="evenodd" d="M5.05598 5.72461L5.02527 5.76145L5.03423 6.07993C5.03818 5.94753 5.04517 5.82613 5.05598 5.72461Z" fill="#C3BDC9"/>
<path fill-rule="evenodd" clip-rule="evenodd" d="M5.12819 5.49268C5.12029 5.54238 5.11436 5.60122 5.10144 5.63396C5.12319 5.88869 5.19251 5.9136 5.24984 5.93653C5.15403 5.80015 5.13518 5.61713 5.12819 5.49268Z" fill="#DFDDE2"/>
<path fill-rule="evenodd" clip-rule="evenodd" d="M4.94423 5.8271C4.91458 5.89482 4.92446 6.02418 4.8413 6.10781C4.91062 6.07202 4.93725 5.98535 4.93922 5.91775L4.94621 5.98945C4.92341 6.13577 4.85712 6.17553 4.81165 6.18348C4.81863 6.1815 4.89086 6.19647 4.95807 6.04909C4.96005 6.1029 4.92249 6.16254 4.87399 6.18242C4.91656 6.18348 4.95913 6.14465 4.98087 6.11377C4.94621 6.00933 4.94529 5.91775 4.94621 5.82617L4.94423 5.8271Z" fill="#E0DEE2"/>
<path fill-rule="evenodd" clip-rule="evenodd" d="M4.97668 6.04575C4.98367 6.0806 4.99448 6.13136 5.03309 6.18106L5.03612 6.24282C5.05392 6.21897 5.12324 6.02189 5.12416 5.95721C5.1272 5.93627 5.12812 5.91242 5.14301 5.92832C5.14499 5.92938 5.14697 5.92938 5.14894 5.92832C5.12812 5.91334 5.10545 5.8427 5.0895 5.81885C5.10242 5.89545 5.11125 6.00493 5.03309 6.16821C5.00937 6.14037 4.9925 6.09452 4.97668 6.04773V6.04575Z" fill="#C3BDC9"/>
<path fill-rule="evenodd" clip-rule="evenodd" d="M5.31141 6.17117C5.22733 6.21491 5.1551 6.10941 5.11938 6.04474L5.1352 5.9562C5.1352 5.9562 5.14219 5.95117 5.14416 5.95514C5.158 6.05269 5.21942 6.16706 5.31049 6.1721L5.31141 6.17117Z" fill="#DFDDE2"/>
<path fill-rule="evenodd" clip-rule="evenodd" d="M5.10442 6.07861L5.09546 6.10552C5.12814 6.17815 5.16676 6.20306 5.21618 6.22201C5.11826 6.17311 5.11141 6.12646 5.10442 6.07861Z" fill="#DFDDE1"/>
<path fill-rule="evenodd" clip-rule="evenodd" d="M5.0105 6.20312L5.0362 6.24792L5.05597 6.20419C5.05201 6.32267 5.04503 6.46488 5.04107 6.59635C5.03027 6.46382 5.01537 6.32651 5.0105 6.20312Z" fill="#DFDDE2"/>
<path fill-rule="evenodd" clip-rule="evenodd" d="M5.08665 6.12939C5.08468 6.13642 5.08165 6.14238 5.07967 6.14636C5.16679 6.4708 5.06385 6.64296 5.04105 6.66881C4.98069 6.56132 4.98161 6.45583 4.96777 6.36531C4.97568 6.44695 4.96672 6.55244 5.0371 6.68378V6.73759C5.12316 6.63104 5.17562 6.4818 5.10932 6.16041C5.09944 6.15246 5.09443 6.14053 5.08652 6.13059L5.08665 6.12939Z" fill="#C3BDC9"/>
<path fill-rule="evenodd" clip-rule="evenodd" d="M5.0094 6.70774C5.01638 6.71967 5.02324 6.7316 5.03813 6.74154C5.05698 6.72166 5.06093 6.71172 5.06884 6.69873C5.05302 6.78435 5.04604 6.8689 5.03418 6.95346C5.02627 6.86983 5.02034 6.77825 5.0094 6.70668V6.70774Z" fill="#DFDDE2"/>
<path fill-rule="evenodd" clip-rule="evenodd" d="M5.16187 6.72149C5.14303 6.67974 5.12128 6.64489 5.13512 6.59903C5.13209 6.58511 5.12616 6.58313 5.12023 6.58008C5.11627 6.60499 5.10731 6.62183 5.10046 6.63879C5.13314 6.83587 5.08662 6.94137 5.03311 7.03096C4.94507 6.91155 4.96088 6.78312 4.95983 6.67272C4.93413 6.8967 4.98751 6.99425 5.03205 7.04487V7.09961C5.15779 6.91446 5.14593 6.74137 5.11812 6.65973C5.13196 6.68067 5.14487 6.70347 5.16266 6.72242L5.16187 6.72149Z" fill="#C3BDC9"/>
<path fill-rule="evenodd" clip-rule="evenodd" d="M4.68591 6.15632C4.70278 6.31854 4.90759 6.26977 4.99076 6.14638L4.98285 6.12451C4.90562 6.22497 4.74034 6.31549 4.68591 6.15632Z" fill="#C4BEC9"/>
<path fill-rule="evenodd" clip-rule="evenodd" d="M4.97191 6.21582C4.89666 6.37301 4.80559 6.4846 4.68091 6.49547C4.76605 6.50249 4.85712 6.43278 4.88572 6.40296C4.90654 6.36717 4.93224 6.35419 4.90654 6.40296C4.89666 6.41992 4.88677 6.43185 4.87096 6.44775C4.89073 6.4398 4.93238 6.37513 4.94121 6.36916C4.94516 6.30144 4.96005 6.26366 4.97191 6.21688V6.21582Z" fill="#DFDDE2"/>
<path fill-rule="evenodd" clip-rule="evenodd" d="M4.94117 6.37354C4.94012 6.39143 4.93814 6.40932 4.93814 6.4243C4.81939 6.54676 4.71738 6.58559 4.60852 6.55961C4.69867 6.5616 4.80266 6.57154 4.94117 6.37354Z" fill="#C3BECA"/>
<path fill-rule="evenodd" clip-rule="evenodd" d="M4.55722 6.44382C4.53152 6.37915 4.5414 6.3264 4.58687 6.28664C4.49382 6.28465 4.39287 6.4588 4.56512 6.5464C4.47893 6.49564 4.47498 6.39015 4.50265 6.35529C4.5215 6.32547 4.54918 6.31646 4.52941 6.35025C4.51649 6.40499 4.54035 6.4319 4.55616 6.44276L4.55722 6.44382Z" fill="#DFDDE2"/>
<path fill-rule="evenodd" clip-rule="evenodd" d="M5.11438 6.16938C5.13217 6.19722 5.15392 6.22213 5.18173 6.2391C5.17382 6.39827 5.34805 6.50284 5.46575 6.45804C5.3984 6.50774 5.1758 6.49582 5.11438 6.16846V6.16938Z" fill="#DFDDE2"/>
<path fill-rule="evenodd" clip-rule="evenodd" d="M5.14014 6.36963V6.38858C5.22132 6.52496 5.35892 6.52986 5.40043 6.52496C5.27272 6.52284 5.19259 6.4632 5.14014 6.36963Z" fill="#C5C0CE"/>
<path fill-rule="evenodd" clip-rule="evenodd" d="M5.49533 6.27002C5.60327 6.3457 5.57348 6.46312 5.45776 6.51189C5.54686 6.45318 5.59141 6.37644 5.49533 6.27002Z" fill="#E1DFE3"/>
<path fill-rule="evenodd" clip-rule="evenodd" d="M5.36865 6.54456C5.47159 6.56351 5.64477 6.48187 5.55172 6.30176C5.64582 6.41229 5.54091 6.60937 5.36865 6.54456Z" fill="#C3BDC9"/>
<path fill-rule="evenodd" clip-rule="evenodd" d="M5.14018 6.47754C5.14018 6.48748 5.13913 6.4945 5.13623 6.51134C5.22427 6.68747 5.27383 6.6994 5.33023 6.74526C5.22322 6.66574 5.16878 6.57416 5.14018 6.47754Z" fill="#E0DEE3"/>
<path fill-rule="evenodd" clip-rule="evenodd" d="M5.28467 6.80924C5.30351 6.8172 5.31735 6.81123 5.33317 6.8172C5.46773 6.86398 5.63406 6.78433 5.5845 6.62012C5.67254 6.70666 5.5103 6.9545 5.28559 6.80924H5.28467Z" fill="#C5BECC"/>
<path fill-rule="evenodd" clip-rule="evenodd" d="M5.52121 6.57227C5.62309 6.67379 5.51818 6.81414 5.38269 6.7663C5.52714 6.78618 5.58052 6.66583 5.52121 6.57227Z" fill="#C3BECA"/>
<path fill-rule="evenodd" clip-rule="evenodd" d="M4.53142 6.57137C4.39185 6.66388 4.46908 6.77733 4.5334 6.80423C4.50862 6.78634 4.48292 6.72259 4.5591 6.75745C4.58387 6.76845 4.60654 6.76938 4.62842 6.76739C4.48595 6.72061 4.51758 6.644 4.53142 6.57031V6.57137Z" fill="#DFDDE2"/>
<path fill-rule="evenodd" clip-rule="evenodd" d="M4.93918 6.44287C4.94221 6.49058 4.94814 6.52942 4.95499 6.55937C4.91044 6.64896 4.85601 6.70966 4.80066 6.75247C4.86603 6.68872 4.91651 6.62511 4.93825 6.55844C4.82438 6.73657 4.74623 6.7644 4.66504 6.76837C4.766 6.74545 4.91348 6.65784 4.94023 6.44393L4.93918 6.44287Z" fill="#DFDDE2"/>
<path fill-rule="evenodd" clip-rule="evenodd" d="M4.95602 6.56641C4.95905 6.58032 4.96301 6.5953 4.97091 6.60617C4.82739 6.88382 4.63642 6.87587 4.57104 6.85294C4.6948 6.86593 4.65223 6.843 4.61164 6.83598C4.75806 6.84102 4.88775 6.74042 4.95602 6.5672V6.56641Z" fill="#C3BEC9"/>
<path fill-rule="evenodd" clip-rule="evenodd" d="M4.83826 5.03994C4.8571 5.02693 4.86593 5.01207 4.87582 4.99707C4.87977 5.00503 4.88676 5.01101 4.89664 5.01804C4.86989 5.02706 4.86 5.06688 4.84524 5.06688C4.84327 5.05786 4.84221 5.0479 4.83826 5.03901V5.03994Z" fill="#C5BECB"/>
<path fill-rule="evenodd" clip-rule="evenodd" d="M4.89863 5.01905C4.93922 5.03405 4.98074 5.03206 5.03121 4.99609C5.03622 5.00114 5.04215 5.00605 5.04808 5.01202C4.99958 5.04692 4.91945 5.0379 4.89771 5.01905H4.89863Z" fill="#C3BDC9"/>
<path fill-rule="evenodd" clip-rule="evenodd" d="M5.07173 5.01781C5.10046 5.02286 5.1292 5.02976 5.1657 5.00879C5.17071 5.01582 5.17664 5.0218 5.18152 5.02671C5.16966 5.03865 5.10732 5.03772 5.07068 5.01768L5.07173 5.01781Z" fill="#C3BDC9"/>
<path fill-rule="evenodd" clip-rule="evenodd" d="M5.19062 4.94142C5.19958 4.94739 5.21632 4.96438 5.23213 4.97327C5.22027 4.99026 5.20841 5.0091 5.19655 5.03113C5.14304 4.98428 5.1806 4.93544 5.19062 4.94142Z" fill="#C3BDC9"/>
<path fill-rule="evenodd" clip-rule="evenodd" d="M4.80152 4.95439C4.80943 4.9654 4.81444 4.9723 4.81932 4.98027C4.852 4.95731 4.86281 4.93249 4.87375 4.90847C4.86874 4.90541 4.86479 4.90143 4.86083 4.89453C4.83513 4.94032 4.81932 4.94629 4.80139 4.95532V4.95439H4.80152Z" fill="#C3BDC9"/>
<path fill-rule="evenodd" clip-rule="evenodd" d="M4.8759 4.90919L4.87195 4.91622C4.93626 4.95312 5.04117 4.98099 5.17376 4.91317L5.16085 4.88623C5.07478 4.95405 4.97778 4.96599 4.8759 4.90919Z" fill="#C3BDC9"/>
<path fill-rule="evenodd" clip-rule="evenodd" d="M5.18457 4.90853C5.22213 4.90151 5.20935 4.85379 5.24493 4.83988C5.3024 4.92642 5.40124 4.90456 5.44091 4.83789L5.44685 4.88666C5.40928 4.91052 5.3588 4.95333 5.27459 4.91357C5.2676 4.92748 5.26668 4.94935 5.26563 4.97427C5.22912 4.96234 5.19946 4.94233 5.18457 4.90853Z" fill="#C3BDC9"/>
<path fill-rule="evenodd" clip-rule="evenodd" d="M5.30153 4.74707C5.31642 4.77494 5.30153 4.83971 5.3035 4.86174C5.27583 4.85776 5.26001 4.8348 5.24512 4.81595C5.24815 4.81595 5.25013 4.81489 5.25105 4.81197C5.25395 4.79392 5.28756 4.78582 5.30153 4.74707Z" fill="#C3BDC9"/>
<path fill-rule="evenodd" clip-rule="evenodd" d="M5.04905 4.82693L5.04602 4.83092C5.09057 4.84684 5.18164 4.85481 5.24688 4.81101L5.23502 4.79004C5.18955 4.82893 5.13116 4.8479 5.04905 4.82693Z" fill="#C3BECA"/>
<path fill-rule="evenodd" clip-rule="evenodd" d="M5.02322 4.81201C5.03113 4.81798 5.03904 4.82396 5.04602 4.82595C4.98566 4.88182 4.89762 4.86682 4.80945 4.81997C4.80945 4.81692 4.80945 4.81493 4.80945 4.81201C4.91146 4.86775 4.98276 4.85183 5.02322 4.81201Z" fill="#C3BDC9"/>
<path fill-rule="evenodd" clip-rule="evenodd" d="M4.80462 4.81201C4.82637 4.84585 4.77194 4.85687 4.77101 4.9077L4.74927 4.88076C4.74927 4.84785 4.79276 4.85289 4.8037 4.81201H4.80462Z" fill="#C3BEC9"/>
<path fill-rule="evenodd" clip-rule="evenodd" d="M4.74515 4.86977L4.70363 4.80602C4.66014 4.74824 4.80459 4.73737 4.78877 4.62988C4.79774 4.63691 4.80762 4.64685 4.81645 4.65175C4.81144 4.7383 4.73527 4.73631 4.73434 4.79502C4.72446 4.79104 4.71945 4.78203 4.71747 4.7701C4.71352 4.77315 4.71246 4.77315 4.70851 4.77713C4.69072 4.80006 4.71747 4.81291 4.7441 4.86871L4.74515 4.86977Z" fill="#C3BEC9"/>
<path fill-rule="evenodd" clip-rule="evenodd" d="M4.78479 4.75316C4.82736 4.75913 4.86888 4.75316 4.90855 4.71533C4.91553 4.72237 4.92041 4.72927 4.93029 4.73524C4.87982 4.76603 4.81141 4.77001 4.78479 4.75316Z" fill="#C3BDC9"/>
<path fill-rule="evenodd" clip-rule="evenodd" d="M4.93238 4.73604L4.92737 4.74002C4.99762 4.7809 5.09567 4.77984 5.14813 4.744C5.14022 4.74002 5.13429 4.73405 5.12836 4.729C5.06496 4.77585 4.97099 4.76086 4.93238 4.73697V4.73604Z" fill="#C5BECB"/>
<path fill-rule="evenodd" clip-rule="evenodd" d="M5.15007 4.7441L5.14612 4.74915C5.19554 4.76906 5.25801 4.76706 5.30045 4.74318C5.29742 4.73521 5.29452 4.72725 5.28859 4.72021C5.24207 4.75711 5.19554 4.75406 5.14902 4.7441H5.15007Z" fill="#C4BEC9"/>
<path fill-rule="evenodd" clip-rule="evenodd" d="M4.82434 4.65674C4.89762 4.69456 4.97775 4.66975 5.02124 4.63086C5.02915 4.64081 5.03614 4.64586 5.04405 4.65077C4.98961 4.69868 4.84912 4.69271 4.82434 4.65674Z" fill="#C4BEC9"/>
<path fill-rule="evenodd" clip-rule="evenodd" d="M5.04607 4.65177L5.04211 4.65482C5.10841 4.70061 5.20936 4.67274 5.23612 4.65482C5.23309 4.64381 5.22913 4.63492 5.22623 4.62695C5.17971 4.66677 5.11038 4.67978 5.04607 4.65084V4.65177Z" fill="#C3BDC9"/>
<path fill-rule="evenodd" clip-rule="evenodd" d="M4.63831 4.55792L4.64819 4.56295C4.65807 4.54798 4.66704 4.54506 4.67099 4.55103C4.67494 4.55699 4.66704 4.56693 4.67798 4.57687C4.71158 4.54997 4.79079 4.53115 4.79976 4.49125C4.81465 4.53207 4.86315 4.533 4.90269 4.60271C4.89373 4.54997 4.83929 4.53499 4.81663 4.49921C4.79488 4.46342 4.80766 4.41862 4.82559 4.36084C4.78895 4.41054 4.81768 4.48224 4.75732 4.51405C4.7187 4.53393 4.64648 4.52995 4.63857 4.55686L4.63831 4.55792Z" fill="#C3BDC9"/>
<path fill-rule="evenodd" clip-rule="evenodd" d="M4.95497 4.30518L4.95695 4.35289C4.89461 4.3778 4.94311 4.53499 4.91833 4.56985C4.90845 4.43546 4.85296 4.38668 4.95497 4.3061V4.30518Z" fill="#C3BDC9"/>
<path fill-rule="evenodd" clip-rule="evenodd" d="M5.0055 4.41992H5.0134C5.02131 4.50753 5.11331 4.51641 5.12925 4.60308C5.10948 4.54331 5.05795 4.52542 5.02935 4.49361C5.01354 4.56134 4.93235 4.58122 4.91258 4.61899C4.90652 4.58811 5.02434 4.54437 5.0055 4.41992Z" fill="#C3BDC9"/>
<path fill-rule="evenodd" clip-rule="evenodd" d="M5.14504 4.33491C5.09654 4.41151 5.19249 4.46028 5.14108 4.58765C5.16784 4.42145 5.05199 4.43444 5.12527 4.31396C5.15097 4.33888 5.23809 4.36366 5.24599 4.40555C5.21634 4.3638 5.17179 4.36075 5.14504 4.33384V4.33491Z" fill="#C3BDC9"/>
<path fill-rule="evenodd" clip-rule="evenodd" d="M5.24504 4.41748C5.25401 4.4473 5.26191 4.4583 5.26982 4.47818C5.24307 4.56473 5.13921 4.59468 5.13328 4.62649C5.11536 4.58567 5.24597 4.5638 5.24504 4.41748Z" fill="#C3BDC9"/>
<path fill-rule="evenodd" clip-rule="evenodd" d="M5.34394 4.32901C5.32707 4.32503 5.31231 4.32901 5.29346 4.31006C5.29649 4.33789 5.29148 4.35486 5.28845 4.37182C5.32206 4.3917 5.34486 4.57579 5.3587 4.58374C5.35171 4.50515 5.35475 4.40058 5.3073 4.34385L5.30928 4.33391C5.32417 4.33895 5.33511 4.33789 5.34394 4.32901Z" fill="#C3BDC9"/>
<path fill-rule="evenodd" clip-rule="evenodd" d="M4.70557 4.47265C4.73825 4.42388 4.76698 4.36609 4.8085 4.33627C4.85002 4.30645 4.87677 4.31838 4.96086 4.24867L4.99249 4.16504C4.92119 4.26948 4.8371 4.34224 4.71637 4.31732C4.72336 4.3213 4.72731 4.33124 4.77779 4.33428C4.75209 4.3592 4.73034 4.41394 4.70557 4.47265Z" fill="#C3BDC9"/>
<path fill-rule="evenodd" clip-rule="evenodd" d="M4.68787 4.24042C4.75126 4.27222 4.82942 4.28919 4.96306 4.09715C4.99179 4.0892 5.01947 4.07422 5.04517 4.04639C4.95897 4.2534 4.71554 4.38077 4.68787 4.24042Z" fill="#DFDDE2"/>
<path fill-rule="evenodd" clip-rule="evenodd" d="M4.9718 4.35971C5.07368 3.9735 5.38248 3.74263 5.11533 3.5376C5.30933 3.87503 5.00053 4.01843 4.9718 4.35971Z" fill="#F1EEF0"/>
<path fill-rule="evenodd" clip-rule="evenodd" d="M4.89856 4.02663C4.90357 4.12829 5.03115 4.05251 5.06186 3.98682C5.01045 4.02159 4.95892 4.05357 4.89856 4.02663Z" fill="#DFDDE2"/>
<path fill-rule="evenodd" clip-rule="evenodd" d="M5.08965 3.86948C5.10151 3.85251 5.10349 3.86842 5.12326 3.87253C5.07674 3.97007 4.99753 3.99698 4.95496 3.99896C5.01334 3.96808 5.06685 3.93323 5.08952 3.86855L5.08965 3.86948Z" fill="#DFDDE2"/>
<path fill-rule="evenodd" clip-rule="evenodd" d="M5.05896 3.70527L5.06884 3.71521C5.08268 3.71521 5.09652 3.71521 5.11142 3.7013C5.11142 3.71323 5.10746 3.71919 5.10048 3.72224C5.10838 3.79288 5.10048 3.83476 5.09059 3.86657C5.10245 3.85358 5.11234 3.8716 5.1242 3.8716C5.14199 3.84377 5.17165 3.74623 5.1242 3.6626C5.12525 3.68645 5.09942 3.71137 5.05988 3.70541L5.05896 3.70527Z" fill="#C3BDC9"/>
<path fill-rule="evenodd" clip-rule="evenodd" d="M4.8927 3.67431C4.96993 3.64251 5.01448 3.69817 5.04901 3.70321C5.1045 3.78485 5.04703 3.85549 5.01039 3.89922C5.03517 3.85748 5.07076 3.6873 4.89362 3.67431H4.8927Z" fill="#C3BDC9"/>
<path fill-rule="evenodd" clip-rule="evenodd" d="M4.96204 4.40592C5.04612 4.44568 5.08579 4.3492 5.12533 4.31235C5.10556 4.26663 5.11149 4.22873 5.10952 4.18896C5.03624 4.22873 5.03821 4.37411 4.96204 4.40592Z" fill="#CECAD5"/>
<path fill-rule="evenodd" clip-rule="evenodd" d="M5.24907 3.72412C5.24209 3.72717 5.24117 3.755 5.2322 3.75394C5.22627 3.94903 5.05006 4.05652 5.00854 4.33815C5.03425 4.30833 5.05309 4.18892 5.11846 4.08037C5.18779 3.96692 5.255 3.90225 5.24815 3.72412H5.24907Z" fill="#CECAD5"/>
<path fill-rule="evenodd" clip-rule="evenodd" d="M5.1589 4.09229C5.08865 4.28234 5.22822 4.28433 5.24008 4.34609C5.09564 4.29731 5.08575 4.19182 5.1589 4.09229Z" fill="#DFDDE2"/>
<path fill-rule="evenodd" clip-rule="evenodd" d="M5.18456 3.54688C5.4181 3.69916 5.21724 4.00664 5.13013 4.09026C5.16479 4.01273 5.37461 3.79869 5.18456 3.54688Z" fill="#DFDDE2"/>
<path fill-rule="evenodd" clip-rule="evenodd" d="M5.26373 3.4624C5.28745 3.50614 5.32607 3.57585 5.26966 3.56194C5.36864 3.78287 5.25977 3.89738 5.20534 4.02077C5.09055 4.32228 5.2806 4.20287 5.25885 4.41294C5.32317 4.33726 5.23908 4.22686 5.24304 4.18803C5.23803 4.13223 5.27269 4.01388 5.28455 3.94125C5.29839 3.98101 5.31921 4.005 5.34492 4.0209C5.30037 3.86372 5.43994 3.55518 5.26478 3.46253H5.26373V3.4624Z" fill="#CECAD5"/>
<path fill-rule="evenodd" clip-rule="evenodd" d="M5.28659 3.98193C5.29753 3.99784 5.30544 4.01573 5.32415 4.02673C5.33312 4.08849 5.24797 4.28252 5.37661 4.2975C5.2717 4.35025 5.21423 4.19902 5.28659 3.98299V3.98193Z" fill="#CECAD5"/>
<path fill-rule="evenodd" clip-rule="evenodd" d="M5.23022 3.40137C5.25197 3.40336 5.30443 3.44025 5.35398 3.40137C5.38759 3.44716 5.32525 3.48604 5.25896 3.4522C5.24209 3.44118 5.29652 3.43627 5.23022 3.40243V3.40137Z" fill="#C3BDC9"/>
<path fill-rule="evenodd" clip-rule="evenodd" d="M4.84021 3.41846C4.85998 3.44036 4.87975 3.4523 4.8986 3.50512C4.91243 3.50512 4.92627 3.50711 4.94011 3.51109C4.91744 3.4742 4.88871 3.44036 4.84021 3.41846Z" fill="#DFDDE2"/>
<path fill-rule="evenodd" clip-rule="evenodd" d="M5.05298 3.35515C5.25581 3.40997 5.2371 3.31534 5.27374 3.30127C5.30932 3.35913 5.21034 3.43492 5.05298 3.35515Z" fill="#C3BDC9"/>
<path fill-rule="evenodd" clip-rule="evenodd" d="M4.80461 3.39471C4.79275 3.39072 4.78286 3.39165 4.77588 3.39271C4.79367 3.24619 4.95499 3.33883 5.04211 3.39378C4.93219 3.34095 4.79473 3.27313 4.80461 3.39378V3.39471Z" fill="#C3BEC9"/>
<path fill-rule="evenodd" clip-rule="evenodd" d="M4.80554 3.39474C4.79658 3.22831 5.03513 3.41863 5.14505 3.4246C5.06782 3.43363 4.81543 3.26414 4.81741 3.39673L4.80554 3.39368V3.39474Z" fill="#F1EEF0"/>
<path fill-rule="evenodd" clip-rule="evenodd" d="M4.82043 3.3995L4.8402 3.40745C4.84218 3.39247 4.84811 3.37657 4.8551 3.37458C4.90162 3.36557 4.85813 3.38956 4.86604 3.39751C4.875 3.40347 4.88488 3.4105 4.89477 3.41646C4.89477 3.40944 4.89477 3.40149 4.89582 3.39155C4.89582 3.35377 5.00469 3.41447 5.08086 3.43926C5.08877 3.46219 5.03829 3.49002 4.99876 3.48207C5.03434 3.51096 5.11065 3.49704 5.14426 3.45026C5.20264 3.45423 5.21556 3.44522 5.22834 3.43038C5.1838 3.42137 5.16297 3.44337 5.05121 3.41249C4.94815 3.38253 4.82347 3.29493 4.82043 3.3995Z" fill="#C3BDC9"/>
<path fill-rule="evenodd" clip-rule="evenodd" d="M4.91342 3.38081C4.92634 3.37975 4.93715 3.38386 4.94901 3.38878C4.92621 3.42461 4.95995 3.45859 4.97866 3.45261C4.98459 3.45859 4.99158 3.46456 5.01227 3.4696C4.98262 3.47557 4.88166 3.44465 4.91329 3.37988L4.91342 3.38081Z" fill="#B6B1BF"/>
<path fill-rule="evenodd" clip-rule="evenodd" d="M4.6473 3.58556C4.53449 3.36755 4.86016 3.32885 4.89376 3.50989C4.89376 3.50989 4.97495 3.51294 5.04612 3.55164C5.18464 3.65316 5.10055 3.71081 5.07288 3.70683C5.00856 3.70789 4.99564 3.64507 4.90167 3.66906C4.87887 3.67807 4.87795 3.68894 4.86806 3.68894C4.81165 3.67502 4.91459 3.56052 5.02635 3.64322C5.03624 3.65024 5.05798 3.63619 5.03927 3.61432C4.96507 3.53865 4.83538 3.58053 4.8077 3.58742C4.77212 3.52871 4.69185 3.5417 4.64941 3.58742L4.6473 3.58556Z" fill="#F1EEF0"/>
<path fill-rule="evenodd" clip-rule="evenodd" d="M4.97074 3.40771C4.98458 3.41873 5.0568 3.43068 5.05878 3.43758C5.03611 3.49239 4.96085 3.47553 4.97074 3.40771Z" fill="#AAA3B5"/>
<path fill-rule="evenodd" clip-rule="evenodd" d="M5.45181 4.88449C5.45181 4.88449 5.44983 4.88648 5.45181 4.88847C5.46868 4.89748 5.49042 4.90239 5.5152 4.90437L5.57464 5.25373C5.56963 5.16321 5.5637 5.06858 5.56172 4.98204C5.55474 4.96507 5.54986 4.93433 5.54591 4.90345C5.55382 4.90345 5.5608 4.90146 5.56871 4.89947C5.60627 5.1204 5.69734 5.16414 5.71514 5.18216C5.66663 5.1314 5.60126 5.0597 5.58057 4.89457C5.61326 4.87667 5.62802 4.85481 5.63803 4.85083C5.64107 4.84182 5.63909 4.81902 5.635 4.80908C5.60232 4.83996 5.57359 4.87681 5.50729 4.87177C5.50334 4.87177 5.50729 4.87773 5.50729 4.87773C5.53299 4.91153 5.48159 4.89072 5.45378 4.88476L5.45181 4.88449Z" fill="#C3BDC9"/>
<path fill-rule="evenodd" clip-rule="evenodd" d="M5.57764 5.29056L5.58067 5.34331C5.61335 5.32237 5.64406 5.31548 5.68756 5.21489C5.70535 5.39407 5.70732 5.56822 5.81131 5.60401C5.7578 5.48062 5.7578 5.34623 5.75385 5.21581C5.74792 5.22377 5.74093 5.22973 5.735 5.23569C5.69243 5.21078 5.67952 5.1909 5.65685 5.16797C5.64301 5.21277 5.6351 5.25955 5.57869 5.29043L5.57764 5.29056Z" fill="#CECAD5"/>
<path fill-rule="evenodd" clip-rule="evenodd" d="M5.65466 4.85742C5.6685 4.86246 5.68537 4.86445 5.70211 4.86445L5.7199 5.12421L5.65466 4.85742Z" fill="#DFDDE2"/>
<path fill-rule="evenodd" clip-rule="evenodd" d="M5.7785 4.83848L5.78746 4.83252C5.80828 4.88023 5.83688 4.92211 5.87853 4.95498L5.99042 5.70936L5.82911 4.95299C5.82911 5.08341 5.79247 5.16995 5.73408 5.22866L5.72815 5.17896C5.78957 5.09533 5.82607 4.99487 5.77955 4.83862L5.7785 4.83848Z" fill="#C3BDC9"/>
<path fill-rule="evenodd" clip-rule="evenodd" d="M5.94879 5.01318C5.96566 5.02312 5.98543 5.03214 6.00718 5.0381C6.07452 5.26606 6.10023 5.71482 6.01113 5.87704L6.00322 5.81528C5.84784 5.69587 5.8083 5.36241 5.77759 5.17527L5.7826 5.16626C5.81225 5.33643 5.84797 5.66485 6.00032 5.79818C6.028 5.71058 6.08744 5.45876 5.98055 5.03982C5.97251 5.03108 5.9596 5.02206 5.94879 5.01318Z" fill="#C4BEC9"/>
<path fill-rule="evenodd" clip-rule="evenodd" d="M5.85376 4.77012C5.8676 4.76814 5.87458 4.77012 5.89633 4.76416L6.04473 4.98708L5.85376 4.77012Z" fill="#DFDDE2"/>
<path fill-rule="evenodd" clip-rule="evenodd" d="M6.01307 5.03955C6.03482 5.04658 6.06157 5.05347 6.08925 5.05943C6.08925 5.06646 6.30605 5.62575 6.45736 5.66856C6.26441 5.70739 6.1674 5.36704 6.04167 5.16599C6.03271 5.12318 6.02282 5.08143 6.01294 5.04061L6.01307 5.03955Z" fill="#DFDDE2"/>
<path fill-rule="evenodd" clip-rule="evenodd" d="M5.98733 4.70312C5.98733 4.70312 5.98338 4.70909 5.98035 4.71108C6.06839 4.84838 6.07036 4.93201 6.0585 5.00663L6.09409 5.05341C6.11188 4.94898 6.09303 4.87131 6.06733 4.79762L6.50582 5.43763L6.11886 4.81459L6.20097 4.82651C6.1327 4.80372 6.06351 4.79577 5.98733 4.70312Z" fill="#C3BDC9"/>
<path fill-rule="evenodd" clip-rule="evenodd" d="M6.25159 4.82771C6.26846 4.82771 6.28322 4.82771 6.29508 4.82373C6.3822 4.96607 6.60586 5.22385 6.5791 5.57613L6.55142 5.52232C6.34358 5.4746 6.19913 5.21179 6.12585 5.10536C6.24763 5.26666 6.3851 5.47659 6.54642 5.50946C6.55933 5.24665 6.36335 4.98993 6.25159 4.82771Z" fill="#C3BDC9"/>
<path fill-rule="evenodd" clip-rule="evenodd" d="M6.29712 4.82263L6.30503 4.83562C6.49705 4.93807 6.7128 5.14217 6.84645 4.99187C6.70793 5.04767 6.48427 4.85152 6.33679 4.77783L6.34378 4.80964C6.32796 4.81759 6.31307 4.81958 6.29831 4.82263H6.29712Z" fill="#DFDDE2"/>
<path fill-rule="evenodd" clip-rule="evenodd" d="M6.02486 4.58175C6.02486 4.58772 6.02486 4.59169 6.0238 4.59567L6.26235 4.7449L6.04463 4.56982C6.03975 4.57579 6.03171 4.57778 6.02486 4.58175Z" fill="#DFDDE2"/>
<path fill-rule="evenodd" clip-rule="evenodd" d="M6.32275 4.72217C6.32671 4.73807 6.33172 4.75398 6.33462 4.77094C6.62061 4.90427 6.79182 4.8714 6.87498 4.81865L6.83043 4.80275C6.70483 4.88638 6.39999 4.77386 6.32275 4.72217Z" fill="#C3BDC9"/>
<path fill-rule="evenodd" clip-rule="evenodd" d="M6.09519 4.49524C6.09519 4.49524 6.09322 4.5032 6.09216 4.50717C6.21394 4.57185 6.29803 4.69126 6.295 4.77396L6.33651 4.80776C6.3207 4.67045 6.27114 4.61863 6.22172 4.56787L6.80268 4.79676L6.23859 4.53103C6.31384 4.51406 6.392 4.50916 6.45737 4.43057L6.58996 4.42553C6.70383 4.40764 6.83246 4.3419 6.84525 4.28027L6.80268 4.28531C6.74824 4.40671 6.53342 4.40273 6.42165 4.40671C6.37025 4.50426 6.2059 4.51115 6.09401 4.4963L6.09519 4.49524Z" fill="#C3BDC9"/>
<path fill-rule="evenodd" clip-rule="evenodd" d="M6.41974 4.46838C6.40484 4.48031 6.39008 4.48826 6.37427 4.49529C6.43463 4.50827 6.49104 4.52511 6.54349 4.54499C6.69387 4.56089 6.84241 4.53796 6.84926 4.40967C6.78587 4.51212 6.60583 4.4933 6.42066 4.46838H6.41974Z" fill="#DFDDE2"/>
<path fill-rule="evenodd" clip-rule="evenodd" d="M6.09314 4.37891C6.09709 4.39191 6.09907 4.4028 6.10105 4.41474L6.40879 4.40678C6.30401 4.39788 6.19607 4.38992 6.09314 4.37891Z" fill="#DFDDE2"/>
<path fill-rule="evenodd" clip-rule="evenodd" d="M6.24158 4.25439C6.30392 4.28333 6.36138 4.31518 6.40685 4.35208L6.36626 4.31425C6.49792 4.30324 6.63156 4.29235 6.77996 4.28439L6.31182 4.28134L6.24158 4.25439Z" fill="#C3BDC9"/>
<path fill-rule="evenodd" clip-rule="evenodd" d="M6.14267 4.26543C6.14162 4.27246 6.13767 4.27842 6.13477 4.28531L6.2377 4.25549C6.39203 4.14403 6.39902 4.08929 6.41879 4.02859L6.65338 3.88135L6.3861 4.01468C6.24165 4.01574 6.20396 4.03655 6.16047 4.04847C6.28317 4.02157 6.36435 4.01759 6.4089 4.03151L6.38017 4.0494C6.34353 4.17279 6.20501 4.24449 6.14162 4.26636L6.14267 4.26543Z" fill="#C3BDC9"/>
<path fill-rule="evenodd" clip-rule="evenodd" d="M6.14172 4.16416C6.14568 4.17213 6.14673 4.18208 6.14871 4.1911C6.22199 4.15129 6.29118 4.10736 6.35945 4.0625C6.28723 4.09833 6.21395 4.13523 6.14172 4.16509V4.16416Z" fill="#DFDDE2"/>
<path fill-rule="evenodd" clip-rule="evenodd" d="M6.3396 4.17973C6.42276 4.17271 6.50593 4.17072 6.59291 4.17774C6.61268 4.16674 6.8225 4.10511 6.77202 3.99365C6.71166 4.11611 6.488 4.15786 6.47021 4.1678C6.43462 4.17178 6.34843 4.17483 6.3396 4.18079V4.17973Z" fill="#DFDDE2"/>
<path fill-rule="evenodd" clip-rule="evenodd" d="M6.68507 3.86558L6.73159 3.8457C6.7366 3.85472 6.70286 3.91833 6.64355 3.985C6.5654 4.07154 6.51979 4.10945 6.37231 4.13622C6.37535 4.13224 6.37825 4.12827 6.38022 4.12429C6.49502 4.09341 6.65238 3.98102 6.68507 3.86651V3.86558Z" fill="#DFDCE1"/>
<path fill-rule="evenodd" clip-rule="evenodd" d="M6.19304 3.98796L6.1792 4.0089C6.31086 3.91335 6.41577 3.85463 6.49485 3.82972C6.57406 3.74609 6.59185 3.66246 6.55917 3.61475C6.56418 3.76994 6.31864 3.88644 6.19198 3.98796H6.19304Z" fill="#DFDDE2"/>
<path fill-rule="evenodd" clip-rule="evenodd" d="M6.1081 4.04757L6.10309 4.08733C6.20102 4.01563 6.25347 3.88535 6.23963 3.77588L6.20497 3.81166L6.05261 3.93611C6.06052 3.94314 6.06948 3.95109 6.07541 3.95798L6.2051 3.81564C6.21393 3.9332 6.13472 4.02478 6.1081 4.04757Z" fill="#C3BEC9"/>
<path fill-rule="evenodd" clip-rule="evenodd" d="M6.24065 3.86314L6.23169 3.896C6.29508 3.85624 6.33858 3.81436 6.37812 3.77156C6.48698 3.64419 6.50082 3.53366 6.5107 3.47998L6.46418 3.51775C6.47209 3.67997 6.291 3.83517 6.2425 3.86208L6.24065 3.86314Z" fill="#DFDDE2"/>
<path fill-rule="evenodd" clip-rule="evenodd" d="M6.18713 3.77168C6.20493 3.77168 6.22377 3.77062 6.24157 3.77168L6.45534 3.5249L6.18713 3.77168Z" fill="#C3BDC9"/>
<path fill-rule="evenodd" clip-rule="evenodd" d="M6.02984 3.63232L6.00308 3.6632C6.01402 3.72391 6.01402 3.80555 5.92493 3.90508L5.92796 3.91012L5.93389 3.90813C6.00519 3.81959 6.07939 3.79667 6.15359 3.7748C6.1101 3.7858 6.06648 3.79269 6.01798 3.81853C6.05158 3.71701 6.03682 3.66533 6.02984 3.63338V3.63232Z" fill="#C3BDC9"/>
<path fill-rule="evenodd" clip-rule="evenodd" d="M6.0398 3.71302V3.7329C6.11598 3.68519 6.19322 3.62846 6.26346 3.54974C6.30406 3.49699 6.35651 3.42237 6.36336 3.32178L6.32277 3.35359C6.31486 3.52177 6.09911 3.6661 6.03967 3.71381L6.0398 3.71302Z" fill="#DFDDE2"/>
<path fill-rule="evenodd" clip-rule="evenodd" d="M5.86652 3.69142C5.92886 3.66452 5.98923 3.63867 6.03087 3.63072L6.30013 3.37891C6.22791 3.43165 6.07647 3.563 6.00517 3.6168C5.9804 3.63576 5.95575 3.6347 5.8656 3.69142H5.86652Z" fill="#DFDDE2"/>
<path fill-rule="evenodd" clip-rule="evenodd" d="M6.31481 3.35498C5.6329 3.47439 5.25478 4.30141 5.71105 4.22679L5.68535 4.22082C5.59428 4.22878 5.57056 4.14912 5.57939 4.09836C5.5873 4.04363 5.63975 4.01275 5.65465 4.00784C5.65069 3.95907 5.64871 3.9103 5.69616 3.87054C5.71501 3.82481 5.73675 3.80082 5.7585 3.77697C5.8298 3.51627 6.19198 3.38586 6.31468 3.35604L6.31481 3.35498Z" fill="#F1EEF0"/>
<path fill-rule="evenodd" clip-rule="evenodd" d="M5.99728 3.66162C5.91214 3.67461 5.79537 3.76911 5.77758 3.80887C5.7756 3.81284 5.77758 3.81881 5.74792 3.83471V3.83975C5.77863 3.82676 5.85784 3.83975 5.78351 3.85764C5.83201 3.85658 5.87458 3.87553 5.90331 3.94127C6.06067 3.91741 6.10021 4.03285 6.06067 4.10945C6.16453 4.19997 6.09929 4.31647 6.04183 4.33834C6.07649 4.416 6.09428 4.51845 5.98832 4.55835C5.98832 4.627 5.97843 4.73448 5.81606 4.73356C5.79629 4.78034 5.73883 4.85999 5.6409 4.81718C5.6409 4.81718 5.6409 4.82023 5.6409 4.82315C5.63893 4.82818 5.6815 4.83905 5.68242 4.83706C5.71603 4.84104 5.71998 4.86291 5.67939 4.85297C5.66449 4.84899 5.65171 4.84502 5.64077 4.83998C5.64077 4.83998 5.64077 4.847 5.63879 4.85098C5.74476 4.88782 5.80604 4.82315 5.83873 4.76841C5.96539 4.76139 6.01692 4.69181 6.02377 4.58233C6.1267 4.51766 6.11287 4.41905 6.08123 4.35146C6.17323 4.28175 6.16637 4.16035 6.09705 4.10362C6.1445 3.94339 6.00308 3.90058 5.92782 3.91158C5.90305 3.86877 5.88631 3.86281 5.86838 3.85088L6.00202 3.66878L5.83965 3.83696C5.82384 3.831 5.80209 3.82901 5.77626 3.82994C5.81092 3.74339 5.94548 3.67673 5.99899 3.66175H5.99728V3.66162Z" fill="#C3BDC9"/>
<path fill-rule="evenodd" clip-rule="evenodd" d="M4.7561 3.47012C4.77587 3.50105 4.81054 3.4611 4.86694 3.52188L4.87393 3.51883C4.86101 3.46707 4.82648 3.43615 4.77495 3.43018C4.7967 3.44915 4.78088 3.45008 4.77996 3.46309C4.77983 3.47411 4.77983 3.48711 4.7561 3.47012Z" fill="#D0CCD5"/>
<path fill-rule="evenodd" clip-rule="evenodd" d="M4.66611 3.56394C4.69682 3.54695 4.76404 3.52213 4.80661 3.58186C4.94117 3.54204 5.0362 3.5788 5.04911 3.63269C5.05702 3.61769 5.01946 3.53607 4.86605 3.55C4.73544 3.45736 4.66124 3.54098 4.66519 3.56394H4.66611Z" fill="#AAA3B5"/>
<path fill-rule="evenodd" clip-rule="evenodd" d="M4.87091 3.68044C4.84719 3.68044 4.92033 3.59271 5.03922 3.67539C5.08179 3.69238 5.10261 3.67035 5.0947 3.63452C5.09167 3.60864 5.07783 3.59364 5.069 3.57373C5.12936 3.61859 5.13635 3.67539 5.09576 3.69729C5.03236 3.72914 4.98781 3.6166 4.87104 3.67937L4.87091 3.68044Z" fill="#C3BDC9"/>
<path fill-rule="evenodd" clip-rule="evenodd" d="M4.77188 4.91245L4.79863 4.95022L4.79164 4.94519C4.71639 4.98097 4.67777 4.96706 4.64126 4.95022L4.63731 4.94718C4.56008 4.96215 4.51158 4.94214 4.47006 4.91139C4.47309 4.93432 4.48891 4.95221 4.5096 4.96812L4.42841 5.32344L4.46703 4.98998C4.42051 5.1204 4.36014 5.1811 4.27698 5.21794L4.28291 5.1811C4.35909 5.14227 4.42446 5.06765 4.45517 4.90636C4.42446 4.91033 4.39375 4.91431 4.36317 4.90636L4.287 5.1701L4.32364 4.89734C4.29095 4.87547 4.26327 4.84764 4.2356 4.81968V4.81464C4.2435 4.82657 4.25247 4.79079 4.25141 4.77979C4.30887 4.87335 4.38901 4.89032 4.46822 4.86341C4.46822 4.87243 4.46822 4.88038 4.46426 4.89323H4.46822C4.46822 4.89323 4.47322 4.88422 4.4752 4.87733C4.47322 4.87534 4.47217 4.87229 4.47125 4.86938V4.86633C4.51579 4.94492 4.6236 4.90808 4.63757 4.9151C4.6356 4.91908 4.63757 4.93101 4.64061 4.94095L4.64258 4.94399C4.64258 4.94399 4.64456 4.93299 4.64258 4.92504L4.63863 4.91802L4.64166 4.92001C4.6783 4.94784 4.72878 4.94585 4.77135 4.91099L4.77188 4.91245Z" fill="#C3BDC9"/>
<path fill-rule="evenodd" clip-rule="evenodd" d="M4.52157 4.9751C4.54635 4.98703 4.57205 4.99604 4.60078 5.002C4.58787 5.16926 4.50378 5.35931 4.41468 5.41604L4.41666 5.36925C4.39492 5.33241 4.37805 5.27476 4.37317 5.15521L4.38015 5.14819C4.38213 5.23182 4.39109 5.30736 4.41877 5.36621C4.46134 5.3344 4.55241 5.22784 4.56717 5.02387C4.56717 5.01088 4.56414 5.00399 4.55729 5.00001C4.54042 4.991 4.53053 4.98305 4.52065 4.97616L4.52157 4.9751Z" fill="#C1C1C9"/>
<path fill-rule="evenodd" clip-rule="evenodd" d="M4.20088 5.68047C4.29683 5.70631 4.36023 5.52024 4.39581 5.39579C4.37894 5.36199 4.35522 5.32713 4.35324 5.17578L4.34533 5.18373C4.33545 5.37882 4.33347 5.59379 4.19983 5.68034L4.20088 5.68047Z" fill="#C3BDC9"/>
<path fill-rule="evenodd" clip-rule="evenodd" d="M4.24649 4.83252L4.25242 4.83848C4.24544 4.87533 4.19602 5.00866 4.25743 5.13907C4.22277 5.08831 4.19509 5.00773 4.24755 4.83252H4.24649Z" fill="#DFDDE3"/>
<path fill-rule="evenodd" clip-rule="evenodd" d="M4.1949 4.91406L4.17605 4.94388L3.97322 5.77394L4.18897 5.08331C4.19991 5.12307 4.21269 5.16495 4.2691 5.23055C4.18989 5.51219 4.06429 5.764 3.9574 5.83067L3.96729 5.79687C3.92182 5.65758 3.95833 5.36388 4.03661 5.06833C3.98614 5.23055 3.8832 5.58389 3.94857 5.84167L3.92775 5.90542C4.1406 5.7591 4.2662 5.39185 4.31378 5.20471C4.30192 5.21372 4.289 5.21863 4.27622 5.22366C4.20887 5.16296 4.17724 5.06648 4.19503 4.91512L4.1949 4.91406Z" fill="#C3BDC9"/>
<path fill-rule="evenodd" clip-rule="evenodd" d="M4.06723 4.68262C4.07223 4.70846 4.10189 4.73841 4.11665 4.76426C4.12456 4.77725 4.13352 4.78321 4.14433 4.76731L4.15329 4.75233C4.17504 4.77725 4.20574 4.79116 4.25029 4.78321L4.19678 4.90766C4.13444 5.02906 4.05233 5.05491 3.97009 5.0838L3.99579 5.03609C4.10268 5.02615 4.17886 4.91959 4.21853 4.82204C4.19177 4.81608 4.16607 4.80508 4.13642 4.78626L4.01069 5.00627L4.09385 4.78334C4.11085 4.74835 4.0663 4.72052 4.06723 4.68262Z" fill="#C3BDC9"/>
<path fill-rule="evenodd" clip-rule="evenodd" d="M4.01578 5.0688C4.00089 5.07476 3.98507 5.08073 3.96833 5.0847C3.83074 5.39417 3.75456 5.66997 3.50916 5.75652C3.73084 5.79933 3.88029 5.44109 3.93473 5.3336C3.97426 5.23606 3.99812 5.14554 4.01591 5.06787V5.0688H4.01578Z" fill="#CECAD5"/>
<path fill-rule="evenodd" clip-rule="evenodd" d="M4.04653 4.69149C4.02175 4.72131 3.93661 4.84072 3.99012 5.03979L3.99513 5.03382C3.95651 4.90142 3.9971 4.75418 4.04653 4.69043V4.69149Z" fill="#E0DEE4"/>
<path fill-rule="evenodd" clip-rule="evenodd" d="M3.95541 4.86758C3.94843 4.91927 3.95041 4.96009 3.95344 5.00091C3.78711 5.29752 3.50902 5.5712 3.34875 5.58207C3.55357 5.3064 3.75746 5.02172 3.9624 4.74114C3.97531 4.73518 3.98915 4.72616 4.00194 4.71729C3.98019 4.74909 3.97031 4.77507 3.96635 4.79893L3.40424 5.52442C3.59231 5.50851 3.90006 5.06068 3.94658 4.94021C3.94658 4.90442 3.95159 4.88441 3.95647 4.86758H3.95541Z" fill="#C3BDC9"/>
<path fill-rule="evenodd" clip-rule="evenodd" d="M3.38235 5.53427L3.39526 5.51837C3.37945 5.23872 3.69418 4.90633 3.77932 4.80176C3.76548 4.83158 3.36363 5.1869 3.38248 5.5352V5.53427H3.38235Z" fill="#DFDCE1"/>
<path fill-rule="evenodd" clip-rule="evenodd" d="M3.15381 5.03347C3.20126 5.10809 3.28046 5.15394 3.57846 4.97277C3.6379 4.90703 3.6972 4.83944 3.75664 4.78271H3.74175C3.64185 4.82354 3.38248 5.09616 3.15381 5.03453V5.03347Z" fill="#DFDDE2"/>
<path fill-rule="evenodd" clip-rule="evenodd" d="M3.92773 4.5083C3.88912 4.5242 3.74269 4.57801 3.7278 4.74421L3.69617 4.7621C3.89702 4.82877 4.04951 4.67649 4.07917 4.64865C4.04754 4.62877 4.01577 4.61181 3.98915 4.5641L3.9624 4.57709C3.89808 4.63089 3.81992 4.68364 3.74467 4.73427L3.97821 4.61486C3.99205 4.62983 4.00694 4.64574 4.03963 4.66562C3.89808 4.76316 3.78724 4.75813 3.73386 4.74421C3.74164 4.64773 3.79897 4.56609 3.92773 4.5083Z" fill="#C3BDC9"/>
<path fill-rule="evenodd" clip-rule="evenodd" d="M3.70199 4.70654C3.69804 4.72645 3.69211 4.74835 3.69303 4.76335C3.62963 4.7883 3.55846 4.80913 3.47925 4.82214C3.47425 4.8232 3.45355 4.83117 3.44565 4.81617C3.43668 4.8102 3.42588 4.80913 3.41599 4.8102C3.41402 4.80515 3.40413 4.80714 3.40308 4.80316C3.59708 4.76932 3.68512 4.72247 3.70199 4.70747V4.70654Z" fill="#CECAD5"/>
<path fill-rule="evenodd" clip-rule="evenodd" d="M3.48534 4.56299C3.43394 4.5879 3.22109 4.70135 3.18445 4.81083C3.2883 4.84263 3.36554 4.8148 3.41311 4.81083C3.41114 4.80778 3.40218 4.80884 3.40125 4.8038C3.32402 4.8148 3.23097 4.82077 3.20527 4.80486L3.22412 4.79492C3.23005 4.70241 3.44975 4.58698 3.48442 4.56299H3.48534Z" fill="#DFDDE1"/>
<path fill-rule="evenodd" clip-rule="evenodd" d="M3.23694 4.79116C3.5833 4.6618 3.7516 4.55829 3.93665 4.49561V4.50157C3.92175 4.51058 3.8001 4.53934 3.75253 4.60905L3.23694 4.79116Z" fill="#C3BDC9"/>
<path fill-rule="evenodd" clip-rule="evenodd" d="M3.87729 4.51434C3.85356 4.52428 3.82984 4.53223 3.80506 4.54614C3.69224 4.52918 3.6734 4.50135 3.6249 4.47749L3.63478 4.47351C3.65257 4.4865 3.67537 4.49644 3.6962 4.50731C3.72981 4.51831 3.73771 4.50532 3.7041 4.49339C3.66457 4.48041 3.63979 4.46357 3.61804 4.44661C3.65666 4.37093 3.74865 4.33409 3.76051 4.32812C3.71004 4.36099 3.6506 4.39081 3.63583 4.44157C3.71504 4.42965 3.79913 4.41573 3.90206 4.3928C3.90997 4.40672 3.91696 4.42063 3.93172 4.43959L3.92869 4.44263L3.91287 4.42368L3.63676 4.44462C3.71294 4.49737 3.79504 4.50241 3.87623 4.51129L3.87729 4.51434Z" fill="#C3BDC9"/>
<path fill-rule="evenodd" clip-rule="evenodd" d="M3.16663 4.40771C3.19826 4.51535 3.46646 4.48748 3.62488 4.47646L3.63279 4.47341C3.61987 4.46439 3.60907 4.45549 3.60208 4.44647C3.53671 4.43267 3.23687 4.49637 3.16663 4.40771Z" fill="#DFDDE2"/>
<path fill-rule="evenodd" clip-rule="evenodd" d="M3.67143 4.34899L3.67446 4.35204C3.65561 4.36794 3.6369 4.38186 3.61805 4.40479C3.37067 4.40479 3.21422 4.30631 3.16968 4.24853C3.23109 4.19883 3.3082 4.1808 3.39044 4.17285C3.32019 4.19379 3.23808 4.20572 3.20039 4.25052H3.18246C3.29726 4.37987 3.60408 4.43765 3.67037 4.35005L3.67143 4.34899Z" fill="#DFDDE2"/>
<path fill-rule="evenodd" clip-rule="evenodd" d="M3.21606 4.25439C3.38041 4.27735 3.54173 4.29819 3.71096 4.32513C3.73376 4.30523 3.77528 4.29129 3.83867 4.28731C3.81692 4.28731 3.79913 4.28426 3.76447 4.2893C3.5764 4.29235 3.39821 4.26846 3.21606 4.25439Z" fill="#C3BDC9"/>
<path fill-rule="evenodd" clip-rule="evenodd" d="M3.92175 4.22872C3.90594 4.24462 3.89803 4.26848 3.8921 4.29446C3.71101 4.23468 3.68136 4.12123 3.67529 4.10931C3.78416 4.03363 3.84953 4.06159 3.93954 4.05961C3.74752 4.05059 3.69704 4.10135 3.68913 4.11129C3.76136 4.13117 3.81183 4.14907 3.9663 4.17504C3.95141 4.18604 3.94258 4.19492 3.93559 4.20486C3.87615 4.17995 3.76531 4.14615 3.68715 4.11527C3.70007 4.16802 3.7802 4.24661 3.84847 4.26755C3.86732 4.27259 3.88801 4.28253 3.89592 4.25761C3.89895 4.24767 3.91371 4.23177 3.9207 4.22872H3.92175Z" fill="#C3BDC9"/>
<path fill-rule="evenodd" clip-rule="evenodd" d="M3.23299 3.98975C3.26765 4.0246 3.39931 4.14004 3.64077 4.11115C3.64973 4.135 3.65961 4.14402 3.66844 4.1529C3.60413 4.14296 3.53981 4.13593 3.47444 4.14097C3.36847 4.10916 3.2716 4.07033 3.23193 3.98975H3.23299Z" fill="#DFDDE2"/>
<path fill-rule="evenodd" clip-rule="evenodd" d="M3.72583 4.03944C3.72583 4.03944 3.73282 4.04448 3.73769 4.04541C3.69815 4.06131 3.66744 4.07828 3.64372 4.09617C3.52194 4.0584 3.34982 3.96774 3.28748 3.85429C3.36273 3.8205 3.49031 3.8364 3.56464 3.85429C3.48253 3.85429 3.38356 3.8364 3.33505 3.86927L3.29749 3.85628C3.31239 3.90506 3.57163 4.13195 3.72504 4.03944H3.72583Z" fill="#DFDDE2"/>
<path fill-rule="evenodd" clip-rule="evenodd" d="M3.34778 3.87646C3.50211 3.9312 3.64959 3.98501 3.77243 4.0367C3.81104 4.02769 3.8486 4.02967 3.8863 4.0367C3.87734 4.02769 3.86851 4.02079 3.86152 4.00887H3.85849L3.8743 4.03073C3.66448 3.95903 3.51015 3.91927 3.34883 3.87753L3.34778 3.87646Z" fill="#C3BDC9"/>
<path fill-rule="evenodd" clip-rule="evenodd" d="M3.83475 3.938C3.82289 3.91614 3.81195 3.89228 3.81103 3.85941C3.75264 3.88724 3.48733 3.77088 3.42407 3.62549C3.42803 3.75285 3.65472 3.85345 3.83475 3.93694V3.938Z" fill="#DFDDE2"/>
<path fill-rule="evenodd" clip-rule="evenodd" d="M3.98812 4.01765C3.98021 4.02667 3.97323 4.03753 3.96334 4.04257C3.95834 4.04562 3.95346 4.04562 3.94845 4.04257C3.85448 3.98187 3.83563 3.8773 3.83853 3.85649C3.91076 3.84456 4.01079 3.84549 4.14931 3.93217C4.1186 3.92514 4.01672 3.8496 3.85237 3.86352C3.84934 3.92024 3.89191 4.02879 3.98694 4.01779L3.98812 4.01765Z" fill="#C3BDC9"/>
<path fill-rule="evenodd" clip-rule="evenodd" d="M3.86523 3.87305L4.03156 3.99462C4.05331 3.99568 4.07413 3.99462 4.09588 4.00563C4.09693 4.00165 4.09891 3.99568 4.10286 3.98772C4.01179 3.94989 3.94444 3.911 3.86523 3.87305Z" fill="#C3BDC9"/>
<path fill-rule="evenodd" clip-rule="evenodd" d="M3.49121 3.48389L3.53576 3.51079C3.52983 3.61125 3.70802 3.80833 3.90597 3.82331C3.87329 3.82635 3.8377 3.82529 3.812 3.83722C3.71803 3.77851 3.65569 3.71675 3.60324 3.66201C3.5923 3.664 3.58347 3.63617 3.56568 3.64505C3.5152 3.57931 3.49543 3.52855 3.4924 3.48481L3.49121 3.48389Z" fill="#DFDDE2"/>
<path fill-rule="evenodd" clip-rule="evenodd" d="M3.78027 3.56255C3.71398 3.53671 3.65361 3.50675 3.53882 3.51179C3.71793 3.6422 3.81493 3.72371 3.9466 3.82629C4.00696 3.83531 4.06442 3.86208 4.12281 3.88501C4.1149 3.8691 4.10897 3.8532 4.10594 3.83623C4.10594 3.85015 4.10594 3.86314 4.1149 3.87705C4.03674 3.85412 3.71608 3.62524 3.55872 3.52279C3.6179 3.50384 3.70198 3.53869 3.78027 3.56255Z" fill="#C5BECB"/>
<path fill-rule="evenodd" clip-rule="evenodd" d="M3.87133 3.56883C3.79911 3.50615 3.71897 3.43445 3.70105 3.33398C3.78514 3.34392 3.94949 3.40065 4.0772 3.49316C3.95845 3.42451 3.84655 3.37374 3.75548 3.37467C3.74757 3.4583 3.82375 3.51304 3.87225 3.5687H3.87133V3.56883Z" fill="#DFDDE2"/>
<path fill-rule="evenodd" clip-rule="evenodd" d="M3.76042 3.37793L3.75647 3.38098C3.87825 3.4715 3.96629 3.55712 4.06224 3.64472C4.08899 3.66765 4.08596 3.69243 4.08899 3.71735C4.09888 3.70542 4.08596 3.66659 4.10678 3.66155C4.12655 3.65758 4.20273 3.69734 4.20774 3.69137C4.02863 3.61172 3.90883 3.48343 3.76135 3.37793H3.76042Z" fill="#C3BDC9"/>
<path fill-rule="evenodd" clip-rule="evenodd" d="M4.14242 3.8602C4.12555 3.83237 4.09893 3.74675 4.11567 3.68896C4.34631 3.73867 4.38585 3.92183 4.38981 3.95867C4.3562 3.82627 4.23046 3.70593 4.14335 3.72183C4.1958 3.77061 4.26117 3.87107 4.30071 3.91387C4.28186 3.91387 4.2621 3.91586 4.25023 3.9209C4.21755 3.91692 4.20279 3.92395 4.18592 3.92885C4.16812 3.90791 4.16114 3.89201 4.15033 3.87504C4.17406 3.90791 4.2078 3.90287 4.24233 3.89293C4.20674 3.82826 4.17102 3.78147 4.13544 3.72568C4.11765 3.73867 4.13544 3.80825 4.14045 3.86007L4.14242 3.8602Z" fill="#E0DEE4"/>
<path fill-rule="evenodd" clip-rule="evenodd" d="M4.23547 3.61328C4.62836 3.87596 4.65801 4.30696 4.37992 4.23632C4.7135 4.19656 4.32259 3.69797 4.23547 3.61328Z" fill="#DFDDE2"/>
<path fill-rule="evenodd" clip-rule="evenodd" d="M4.25439 3.92217C4.28708 3.90825 4.37314 3.91024 4.3771 4.04463L4.34837 4.0665C4.34837 4.02965 4.3543 3.94708 4.25439 3.92323V3.92217Z" fill="#C3BDC9"/>
<path fill-rule="evenodd" clip-rule="evenodd" d="M4.34839 4.06825L4.37804 4.04639C4.52157 4.10112 4.45132 4.25632 4.35129 4.23154C4.47017 4.21961 4.44434 4.06627 4.34839 4.06825Z" fill="#C3BDC9"/>
<path fill-rule="evenodd" clip-rule="evenodd" d="M4.80945 3.06029C4.82922 3.09409 4.77479 3.19667 4.86783 3.18169C4.89947 3.20157 4.92727 3.1907 4.94204 3.1907C5.00345 3.16883 5.00148 3.12603 5.00543 3.11503C4.95192 3.03935 5.01241 3.0245 5.01835 3.02053C5.05103 3.0245 5.06882 3.08627 5.02428 3.10509C5.02823 3.10813 5.03324 3.10707 5.04009 3.10403C5.04009 3.2025 5.10942 3.20952 5.15686 3.19362C5.25189 3.21946 5.20536 3.10906 5.25083 3.02742C5.20036 3.11794 5.23304 3.19958 5.15884 3.18871C5.17769 3.14193 5.12721 3.10615 5.15291 3.05539C5.11429 3.08825 5.17861 3.14988 5.15291 3.18182C5.12721 3.20475 5.10151 3.1858 5.10045 3.17586C5.08952 3.14206 5.16583 3.10217 5.12022 3.04054C5.13604 3.07341 5.13011 3.08825 5.1222 3.11025C5.11429 3.13119 5.08161 3.15001 5.0965 3.19282C5.06289 3.1858 5.04602 3.1471 5.05498 3.11516C5.06395 3.08428 5.07976 3.03259 5.02138 3.01562C4.9481 3.03749 4.98579 3.09621 4.99462 3.10615C5.01241 3.12603 4.97973 3.18474 4.93821 3.18474C4.95706 3.15585 4.93426 3.14988 4.90658 3.1031C4.90461 3.12801 4.96207 3.16088 4.92938 3.18076C4.91251 3.19468 4.88879 3.18673 4.8789 3.17679C4.86006 3.15585 4.90461 3.13106 4.8967 3.08918C4.88484 3.14895 4.86704 3.14591 4.86994 3.17374C4.8482 3.1797 4.8254 3.18765 4.81854 3.14591C4.81841 3.08918 4.81841 3.05432 4.80945 3.06029Z" fill="#F1EEF0"/>
<path fill-rule="evenodd" clip-rule="evenodd" d="M5.19058 3.29181V3.29778C5.07776 3.30481 4.96191 3.28278 4.85107 3.28079V3.27588C4.96389 3.2788 5.05299 3.29871 5.19058 3.29181Z" fill="#DFDDE2"/>
<path fill-rule="evenodd" clip-rule="evenodd" d="M5.01538 3.31104V3.31608C5.08075 3.32603 5.14599 3.33705 5.20042 3.33108V3.3259C5.13518 3.33386 5.07574 3.32099 5.01538 3.31104Z" fill="#DFDDE2"/>
<path fill-rule="evenodd" clip-rule="evenodd" d="M4.85991 3.2175C4.84212 3.22348 4.85002 3.25042 4.85991 3.24936C4.88073 3.25042 4.90142 3.25334 4.92225 3.24936C4.93411 3.24338 4.93806 3.22241 4.92423 3.21445C4.90248 3.2114 4.88073 3.2114 4.85991 3.21644V3.2175ZM4.85596 3.21352C4.89154 3.20649 4.92423 3.21153 4.94307 3.21458C4.95994 3.21856 4.95994 3.24843 4.94307 3.2544C4.92423 3.25639 4.88363 3.25546 4.85596 3.25334C4.83816 3.23834 4.84712 3.21949 4.85596 3.21352Z" fill="#C3BDC9"/>
<path fill-rule="evenodd" clip-rule="evenodd" d="M4.98476 3.24605C5.03128 3.25202 5.07082 3.256 5.06094 3.21911C5.04802 3.21924 4.95695 3.19933 4.98476 3.24605ZM4.9837 3.25109C4.97777 3.24406 4.96881 3.23012 4.98568 3.21221C5.01138 3.21022 5.03813 3.21221 5.06581 3.21619C5.09059 3.22614 5.08861 3.2491 5.06779 3.25799C5.0243 3.25813 5.00057 3.25507 4.9837 3.25109Z" fill="#C3BDC9"/>
<path fill-rule="evenodd" clip-rule="evenodd" d="M5.11146 3.25224C5.15799 3.26219 5.1966 3.27122 5.18962 3.23326C5.1767 3.23326 5.08866 3.2034 5.11146 3.25224ZM5.10948 3.25715C5.10355 3.25011 5.09657 3.23525 5.11449 3.21826C5.18079 3.22131 5.16998 3.22224 5.1937 3.22822C5.21743 3.24016 5.21347 3.26312 5.19265 3.27002C5.13518 3.27108 5.1253 3.26206 5.10948 3.25609V3.25715Z" fill="#C3BDC9"/>
<path fill-rule="evenodd" clip-rule="evenodd" d="M4.26908 3.98486L4.1958 4.20288C4.21662 4.20288 4.23336 4.20394 4.26908 4.19692C4.30282 4.12826 4.30967 4.03072 4.26908 3.98486Z" fill="#C3BDC9"/>
<path fill-rule="evenodd" clip-rule="evenodd" d="M4.3286 4.40965L4.19601 4.20264C4.19601 4.20264 4.1624 4.28825 4.15845 4.31609C4.17519 4.36181 4.25334 4.40859 4.3286 4.40965Z" fill="white"/>
<path fill-rule="evenodd" clip-rule="evenodd" d="M4.30685 4.25081C4.35337 4.23382 4.36234 4.20595 4.36326 4.18896L4.26929 4.19693C4.28207 4.21405 4.29591 4.2309 4.30685 4.25081Z" fill="#C3BDC9"/>
<path fill-rule="evenodd" clip-rule="evenodd" d="M4.1514 4.09343C4.13255 4.08042 4.07127 4.07644 4.05835 4.08746L4.1365 4.16019C4.13954 4.13922 4.14441 4.1144 4.1514 4.09343Z" fill="#C3BDC9"/>
<path fill-rule="evenodd" clip-rule="evenodd" d="M3.97517 4.3171L4.19395 4.20365C4.19896 4.20166 4.16719 4.29019 4.15731 4.3171C4.13161 4.33101 4.02274 4.35686 3.97424 4.3171H3.97517Z" fill="#C3BDC9"/>
<defs>
<linearGradient id="paint0_linear_9421_3805" x1="3.5" y1="24" x2="40.5427" y2="3.47974" gradientUnits="userSpaceOnUse">
<stop stop-color="#165EF8"/>
<stop offset="1" stop-color="#54BEFF"/>
</linearGradient>
<linearGradient id="paint1_linear_9421_3805" x1="4.13477" y1="4.35852" x2="4.57012" y2="4.70051" gradientUnits="userSpaceOnUse">
<stop stop-color="#C3BDC9"/>
<stop offset="1" stop-color="#C3BDC9" stop-opacity="0"/>
</linearGradient>
<linearGradient id="paint2_linear_9421_3805" x1="5.43579" y1="5.14286" x2="4.11937" y2="4.46513" gradientUnits="userSpaceOnUse">
<stop stop-color="#C3BDC9"/>
<stop offset="1" stop-color="#C3BDC9" stop-opacity="0"/>
</linearGradient>
<linearGradient id="paint3_linear_9421_3805" x1="6.13849" y1="4.2227" x2="5.34944" y2="4.82257" gradientUnits="userSpaceOnUse">
<stop stop-color="#C3BDC9"/>
<stop offset="1" stop-color="#C3BDC9" stop-opacity="0"/>
</linearGradient>
</defs>
</svg>