<?xml version="1.0" encoding="UTF-8"?>
<svg width="24" height="24" viewBox="0 0 24 24" fill="none" xmlns="http://www.w3.org/2000/svg">
<path d="M1 21.1668L1.00065 16.5835H6.5V21.1668C6.5 21.6731 5.99488 22.0835 5.37179 22.0835H2.12821C1.50512 22.0835 1 21.6731 1 21.1668Z" fill="#1C1C1E"/>
<path d="M17.5 21.1668L17.5007 16.5835H23V21.1668C23 21.6731 22.4949 22.0835 21.8718 22.0835H18.6282C18.0051 22.0835 17.5 21.6731 17.5 21.1668Z" fill="#1C1C1E"/>
<path fill-rule="evenodd" clip-rule="evenodd" d="M1.29433 9.88977C1.10164 10.2021 1 10.5583 1 10.9212V16.1223C1 17.7116 2.34315 19.0001 4 19.0001H20C21.6568 19.0001 23 17.7116 23 16.1223V10.9071C23 10.5531 22.9033 10.2053 22.7195 9.89836L21.5 7.86213L19.1615 3.20645C18.7911 2.46892 18.013 2.00006 17.1596 2.00006H6.72195C5.84375 2.00006 5.04791 2.49617 4.69124 3.26597L2.61111 7.75554L1.29433 9.88977ZM8.40049 3.84813C7.37977 3.84813 6.45481 4.43489 6.04031 5.34534C5.56596 6.38724 6.34732 7.56076 7.51542 7.56076H16.3242C17.5066 7.56076 18.2906 6.36412 17.7945 5.31644C17.3706 4.42125 16.4523 3.84813 15.442 3.84813H8.40049ZM8.61111 12.8425C8.61111 12.3514 9.00929 11.9532 9.50047 11.9532H14.5191C14.9995 11.9532 15.3889 12.3426 15.3889 12.823C15.3889 13.3007 15.0036 13.689 14.5259 13.6927L9.50741 13.7319C9.01354 13.7357 8.61111 13.3364 8.61111 12.8425Z" fill="url(#paint0_linear_9421_3825)"/>
<path d="M7.99305 15.2595C8.05314 15.6655 7.7152 16 7.30524 16H3.81651C3.36556 16 3 15.634 3 15.1825C3 14.731 3.36556 14.3649 3.81651 14.3649H5.80404C5.91618 14.3649 5.98707 14.2455 5.9272 14.1505C5.79114 13.9346 5.63065 13.7328 5.4475 13.5494C4.98706 13.0884 4.41027 12.7707 3.78621 12.625C3.35965 12.5253 3 12.1788 3 11.7403C3 11.3017 3.35726 10.9398 3.78991 11.0084C4.83595 11.1743 5.81078 11.6671 6.56912 12.4264C7.19372 13.0517 7.63767 13.8241 7.8675 14.6622C7.92118 14.858 7.96318 15.0575 7.99305 15.2595Z" fill="white"/>
<path d="M16.007 15.2595C15.9469 15.6655 16.2848 16 16.6948 16H20.1835C20.6344 16 21 15.634 21 15.1825C21 14.731 20.6344 14.3649 20.1835 14.3649H18.196C18.0838 14.3649 18.0129 14.2455 18.0728 14.1505C18.2089 13.9346 18.3694 13.7328 18.5525 13.5494C19.0129 13.0884 19.5897 12.7707 20.2138 12.625C20.6403 12.5253 21 12.1788 21 11.7403C21 11.3017 20.6427 10.9398 20.2101 11.0084C19.164 11.1743 18.1892 11.6671 17.4309 12.4264C16.8063 13.0517 16.3623 13.8241 16.1325 14.6622C16.0788 14.858 16.0368 15.0575 16.007 15.2595Z" fill="white"/>
<defs>
<linearGradient id="paint0_linear_9421_3825" x1="12" y1="2" x2="12" y2="19" gradientUnits="userSpaceOnUse">
<stop stop-color="#1768D4"/>
<stop offset="1" stop-color="#007AFF"/>
</linearGradient>
</defs>
</svg>