<?xml version="1.0" encoding="UTF-8"?>
<svg width="24" height="24" viewBox="0 0 24 24" fill="none" xmlns="http://www.w3.org/2000/svg">
<g clip-path="url(#clip0_9421_3820)">
<path d="M1.90142 2.9338C4.60332 0.213927 9.00046 0.211983 11.7152 2.94473L21.7302 13.0264L11.9274 22.8945L1.91228 12.8128C-0.795609 10.0869 -0.800481 5.65367 1.90142 2.9338Z" fill="url(#paint0_linear_9421_3820)"/>
<path d="M16.9684 14.9368C20.817 14.9368 23.9368 11.817 23.9368 7.96842C23.9368 4.11987 20.817 1 16.9684 1C13.1199 1 10 4.11987 10 7.96842C10 11.817 13.1199 14.9368 16.9684 14.9368Z" fill="url(#paint1_linear_9421_3820)"/>
<path fill-rule="evenodd" clip-rule="evenodd" d="M11.9444 3L21.808 12.9292C20.554 14.1147 18.8619 14.8416 17 14.8416C13.134 14.8416 10 11.7076 10 7.84163C10 5.96305 10.74 4.2573 11.9444 3Z" fill="#E34D40"/>
<path fill-rule="evenodd" clip-rule="evenodd" d="M2.8067 5.42266C3.2533 4.78109 4.16583 4.91136 4.63775 5.53452C4.87372 5.8461 4.80091 6.28604 4.57226 6.60302C4.49931 6.70415 4.43422 6.81116 4.37774 6.92315C4.21451 7.24678 4.12745 7.60345 4.12323 7.96588C4.11901 8.32832 4.19774 8.68692 4.35338 9.01426C4.40725 9.12754 4.46983 9.23603 4.5404 9.33883C4.76161 9.66106 4.82414 10.1026 4.58099 10.4086C4.09468 11.0206 3.17936 11.1295 2.74783 10.4778C2.63138 10.3019 2.52712 10.1175 2.43603 9.92595C2.14135 9.30623 1.99231 8.62732 2.00031 7.94116C2.0083 7.25499 2.17311 6.57974 2.48213 5.96705C2.57766 5.77766 2.68619 5.59579 2.8067 5.42266Z" fill="white"/>
</g>
<defs>
<linearGradient id="paint0_linear_9421_3820" x1="10.8042" y1="0.894531" x2="10.8042" y2="22.8945" gradientUnits="userSpaceOnUse">
<stop stop-color="#D53627"/>
<stop offset="1" stop-color="#EA475B"/>
</linearGradient>
<linearGradient id="paint1_linear_9421_3820" x1="16.9684" y1="1" x2="16.9684" y2="14.9368" gradientUnits="userSpaceOnUse">
<stop stop-color="#D53627"/>
<stop offset="1" stop-color="#EA475B"/>
</linearGradient>
<clipPath id="clip0_9421_3820">
<rect width="24" height="24" fill="white"/>
</clipPath>
</defs>
</svg>