<?xml version="1.0" encoding="UTF-8"?>
<svg width="24" height="24" viewBox="0 0 24 24" fill="none" xmlns="http://www.w3.org/2000/svg">
<path d="M1 7C1 5.89543 1.89543 5 3 5H21C22.1046 5 23 5.89543 23 7V21C23 22.1046 22.1046 23 21 23H3C1.89543 23 1 22.1046 1 21V7Z" fill="#8E4304"/>
<path d="M0 6C0 4.89543 0.895431 4 2 4H22C23.1046 4 24 4.89543 24 6V12.3057C24 13.2834 23.2932 14.1178 22.3288 14.2785L12.1644 15.9726C12.0556 15.9907 11.9444 15.9907 11.8356 15.9726L1.6712 14.2785C0.706825 14.1178 0 13.2834 0 12.3057V6Z" fill="#984E10"/>
<path d="M8 2C8 1.44772 8.44772 1 9 1H15C15.5523 1 16 1.44772 16 2C16 2.55228 15.5523 3 15 3H9C8.44772 3 8 2.55228 8 2Z" fill="#4E3328"/>
<path d="M14 14C14.5523 14 15 14.4477 15 15V17C15 17.5523 14.5523 18 14 18H10C9.44772 18 9 17.5523 9 17L9 15C9 14.4477 9.44772 14 10 14L14 14Z" fill="#EFAA00"/>
</svg>