<?xml version="1.0" encoding="UTF-8"?>
<svg width="24" height="24" viewBox="0 0 24 24" fill="none" xmlns="http://www.w3.org/2000/svg">
<g clip-path="url(#clip0_9421_3823)">
<path fill-rule="evenodd" clip-rule="evenodd" d="M19.3183 16.0219C18.8788 16.4901 18.8966 17.2311 19.3581 17.677C19.8195 18.123 20.5499 18.1049 20.9894 17.6367C25.0035 13.3601 25.0035 6.63987 20.9894 2.36333C20.5499 1.89512 19.8196 1.87705 19.3581 2.32296C18.8966 2.76888 18.8788 3.50992 19.3183 3.97813C22.4836 7.35038 22.4836 12.6496 19.3183 16.0219ZM15.3465 13.0303C14.8845 13.4809 14.8845 14.2114 15.3465 14.662C15.8086 15.1127 16.5578 15.1127 17.0198 14.662C19.6601 12.0873 19.6601 7.91273 17.0198 5.33796C16.5578 4.88735 15.8086 4.88735 15.3465 5.33795C14.8845 5.78856 14.8845 6.51913 15.3465 6.96974C17.0627 8.64331 17.0627 11.3567 15.3465 13.0303Z" fill="#EF316A"/>
<path d="M9 7H13.0226C13.5624 7 14 7.43762 14 7.97745V12.0226C14 12.5624 13.5624 13 13.0226 13H9V7Z" fill="#101317"/>
<path d="M8.49342 12.9964C8.57364 13.0179 8.62125 13.1003 8.59975 13.1805L6.51222 20.9713C6.19951 22.1384 4.81406 22.6296 3.83598 21.9203C2.96903 21.2915 2.57959 20.1933 2.85677 19.1588L4.77497 12L8.49342 12.9964Z" fill="url(#paint0_linear_9421_3823)"/>
<path d="M0 5.97745C0 5.43762 0.437618 5 0.977447 5H10.4818C11.0217 5 11.4593 5.43762 11.4593 5.97745V15C11.4593 15.5399 11.0217 15.9775 10.4818 15.9775H2C0.89543 15.9775 0 15.0821 0 13.9775V5.97745Z" fill="url(#paint1_linear_9421_3823)"/>
<path d="M0 5C0 4.44772 0.447715 4 1 4H11.4384C12.7396 4 13.6943 5.22278 13.3787 6.48507L12.5681 9.72761C12.2342 11.0631 11.0343 12 9.65767 12H0V5Z" fill="url(#paint2_linear_9421_3823)"/>
</g>
<defs>
<linearGradient id="paint0_linear_9421_3823" x1="3.32069" y1="22.7096" x2="2.21083" y2="16.1402" gradientUnits="userSpaceOnUse">
<stop stop-color="#1768D4"/>
<stop offset="1" stop-color="#007AFF"/>
</linearGradient>
<linearGradient id="paint1_linear_9421_3823" x1="5.76604" y1="9.97363" x2="5.76604" y2="23.9736" gradientUnits="userSpaceOnUse">
<stop stop-color="#1768D4"/>
<stop offset="1" stop-color="#007AFF"/>
</linearGradient>
<linearGradient id="paint2_linear_9421_3823" x1="7" y1="4" x2="7" y2="12" gradientUnits="userSpaceOnUse">
<stop stop-color="#1768D4"/>
<stop offset="1" stop-color="#007AFF"/>
</linearGradient>
<clipPath id="clip0_9421_3823">
<rect width="24" height="24" fill="white"/>
</clipPath>
</defs>
</svg>