<?xml version="1.0" encoding="UTF-8"?>
<svg width="24" height="24" viewBox="0 0 24 24" fill="none" xmlns="http://www.w3.org/2000/svg">
<path d="M3 0C1.89543 0 1 0.895431 1 2V21.6766C1 23.3722 2.97771 24.2986 4.28037 23.213L5.90873 21.856C6.56221 21.3115 7.48866 21.2399 8.21809 21.6775L10.971 23.3293C11.6044 23.7093 12.3956 23.7093 13.029 23.3293L15.7819 21.6775C16.5113 21.2399 17.4378 21.3115 18.0913 21.8561L19.7196 23.213C21.0223 24.2986 23 23.3722 23 21.6765L22.9999 1.99999C22.9999 0.895425 22.1045 0 20.9999 0H3Z" fill="url(#paint0_linear_9421_3824)"/>
<path d="M16.4061 7.65517C16.4595 8.13613 16.866 8.5 17.3499 8.5V8.5C17.8338 8.5 18.2404 8.13616 18.2938 7.65523L18.5509 5.34182C18.6305 4.62603 18.0702 4 17.35 4V4C16.6298 4 16.0695 4.62598 16.1491 5.34175L16.4061 7.65517Z" fill="white"/>
<path d="M16.4102 10.1502C16.4102 10.6749 16.8355 11.1002 17.3602 11.1002V11.1002C17.8848 11.1002 18.3102 10.6749 18.3102 10.1502V10.1502C18.3102 9.62552 17.8848 9.2002 17.3602 9.2002V9.2002C16.8355 9.2002 16.4102 9.62552 16.4102 10.1502V10.1502Z" fill="white"/>
<path fill-rule="evenodd" clip-rule="evenodd" d="M5 5C5 4.44772 5.44772 4 6 4H11C11.5523 4 12 4.44772 12 5C12 5.55229 11.5523 6 11 6L6 6C5.44772 6 5 5.55228 5 5ZM5 10C5 9.44772 5.44772 9 6 9L11 9C11.5523 9 12 9.44772 12 10C12 10.5523 11.5523 11 11 11L6 11C5.44772 11 5 10.5523 5 10ZM6 14C5.44772 14 5 14.4477 5 15C5 15.5523 5.44772 16 6 16L18 16C18.5523 16 19 15.5523 19 15C19 14.4477 18.5523 14 18 14L6 14Z" fill="white"/>
<defs>
<linearGradient id="paint0_linear_9421_3824" x1="12" y1="0" x2="12" y2="23.6804" gradientUnits="userSpaceOnUse">
<stop stop-color="#4B5F68"/>
<stop offset="1" stop-color="#7FA2B0"/>
</linearGradient>
</defs>
</svg>