<?xml version="1.0" encoding="UTF-8"?>
<svg width="24" height="24" viewBox="0 0 24 24" fill="none" xmlns="http://www.w3.org/2000/svg">
<path fill-rule="evenodd" clip-rule="evenodd" d="M8.91608 4.24572L5.376 10.6706C4.41028 12.4232 3.92742 13.2996 4.00884 14.0171C4.07989 14.6431 4.40779 15.2097 4.91205 15.578C5.49003 16 6.48 16 8.45993 16H15.5401C17.52 16 18.51 16 19.0879 15.578C19.5922 15.2097 19.9201 14.6431 19.9912 14.0171C20.0726 13.2996 19.5897 12.4233 18.624 10.6706L15.0839 4.24572C14.0763 2.41701 13.5725 1.50266 12.9094 1.19872C12.3313 0.933759 11.6687 0.933759 11.0906 1.19872C10.4275 1.50265 9.92369 2.41701 8.91608 4.24572Z" fill="url(#paint0_linear_9421_3828)"/>
<path d="M11.0062 9.35512C11.0596 9.83608 11.4661 10.2 11.95 10.2C12.4339 10.2 12.8405 9.83611 12.8939 9.35518L13.151 7.04177C13.2306 6.32598 12.6703 5.69995 11.9501 5.69995C11.2299 5.69995 10.6696 6.32593 10.7492 7.0417L11.0062 9.35512Z" fill="white"/>
<path d="M11.0103 11.85C11.0103 12.3747 11.4356 12.8 11.9603 12.8C12.4849 12.8 12.9103 12.3747 12.9103 11.85C12.9103 11.3253 12.4849 10.9 11.9603 10.9C11.4356 10.9 11.0103 11.3253 11.0103 11.85Z" fill="white"/>
<path d="M24 21.7061C24 22.5787 23.0039 23.0767 22.3059 22.5532L20.4284 21.1451C20.0386 20.8528 19.4997 20.8641 19.1226 21.1727L17.2233 22.7266C16.4433 23.3649 15.3214 23.3649 14.5414 22.7266L12.6705 21.1959C12.2805 20.8768 11.7195 20.8768 11.3295 21.1959L9.45862 22.7266C8.67855 23.3649 7.55674 23.3649 6.77667 22.7266L4.87738 21.1727C4.50031 20.8641 3.96137 20.8528 3.5716 21.1451L1.69412 22.5532C0.996105 23.0767 -7.62763e-08 22.5787 0 21.7061C2.91375e-08 21.3729 0.156912 21.059 0.42353 20.8591L2.90791 18.9958C3.68744 18.4111 4.76531 18.4339 5.51947 19.0509L7.44716 20.6281C7.8372 20.9473 8.3981 20.9473 8.78814 20.6281L10.659 19.0974C11.4391 18.4592 12.5609 18.4592 13.341 19.0974L15.2119 20.6281C15.6019 20.9473 16.1628 20.9473 16.5528 20.6281L18.4805 19.0509C19.2347 18.4339 20.3126 18.4111 21.0921 18.9958L23.5765 20.8591C23.8431 21.059 24 21.3729 24 21.7061Z" fill="url(#paint1_linear_9421_3828)"/>
<defs>
<linearGradient id="paint0_linear_9421_3828" x1="12" y1="1" x2="12" y2="16" gradientUnits="userSpaceOnUse">
<stop stop-color="#00B55D"/>
<stop offset="1" stop-color="#00DB89"/>
</linearGradient>
<linearGradient id="paint1_linear_9421_3828" x1="12" y1="18.5723" x2="12" y2="23.2053" gradientUnits="userSpaceOnUse">
<stop stop-color="#00B55D"/>
<stop offset="1" stop-color="#00DB89"/>
</linearGradient>
</defs>
</svg>