<?xml version="1.0" encoding="UTF-8"?>
<svg width="24" height="24" viewBox="0 0 24 24" fill="none" xmlns="http://www.w3.org/2000/svg">
<path d="M3.62756 2.85932C2.04965 3.45021 1 4.9889 1 6.71108V14.7975C1 16.0231 1.53141 17.1831 2.47616 17.9342C4.35817 19.4302 7.72982 21.9934 10.742 23.6715C11.5281 24.1095 12.4719 24.1095 13.258 23.6715C16.2702 21.9934 19.6418 19.4302 21.5238 17.9341C22.4686 17.1831 23 16.0231 23 14.7975V6.84554C23 5.14394 21.9749 3.61913 20.4238 3.01343L13.3945 0.26858C12.4951 -0.082635 11.5023 -0.0896112 10.5983 0.24893L3.62756 2.85932Z" fill="url(#paint0_linear_9421_3838)"/>
<path fill-rule="evenodd" clip-rule="evenodd" d="M10.3413 6.50669C10.1254 6.77466 10 7.23232 10 8C10 8.55228 9.55228 9 9 9C8.44772 9 8 8.55228 8 8C8 7.11268 8.12459 6.07034 8.78373 5.25206C9.4805 4.38707 10.5788 4 12 4C13.4212 4 14.5195 4.38707 15.2163 5.25206C15.8754 6.07034 16 7.11268 16 8C16 8.55228 15.5523 9 15 9C14.4477 9 14 8.55228 14 8C14 7.23232 13.8746 6.77466 13.6587 6.50669C13.4805 6.28543 13.0788 6 12 6C10.9212 6 10.5195 6.28543 10.3413 6.50669Z" fill="white"/>
<path d="M6 12C6 10.8954 6.89543 10 8 10H16C17.1046 10 18 10.8954 18 12V15C18 16.1046 17.1046 17 16 17H8C6.89543 17 6 16.1046 6 15V12Z" fill="white"/>
<path d="M12.7364 14.3071C13.1922 14.0497 13.5 13.5608 13.5 13C13.5 12.1716 12.8284 11.5 12 11.5C11.1716 11.5 10.5 12.1716 10.5 13C10.5 13.5608 10.8078 14.0497 11.2636 14.3071C11.2547 14.3533 11.25 14.4011 11.25 14.45V14.95C11.25 15.3642 11.5858 15.7 12 15.7C12.4142 15.7 12.75 15.3642 12.75 14.95V14.45C12.75 14.4011 12.7453 14.3533 12.7364 14.3071Z" fill="#A856E9"/>
<defs>
<linearGradient id="paint0_linear_9421_3838" x1="12" y1="0" x2="12" y2="24" gradientUnits="userSpaceOnUse">
<stop stop-color="#9145DF"/>
<stop offset="1" stop-color="#BA62F0"/>
</linearGradient>
</defs>
</svg>