<?xml version="1.0" encoding="UTF-8"?>
<svg width="24" height="24" viewBox="0 0 24 24" fill="none" xmlns="http://www.w3.org/2000/svg">
<g clip-path="url(#clip0_9421_3829)">
<path d="M22.6324 7.56487L14.3177 0.790275C13.0339 -0.261378 10.9582 -0.261378 9.68637 0.778046L1.37163 7.56487C0.435768 8.32304 -0.164142 9.92498 0.0398277 11.1234L1.63559 20.8573C1.92354 22.5937 3.5553 24 5.28304 24H18.721C20.4367 24 22.0805 22.5815 22.3685 20.8573L23.9642 11.1234C24.1562 9.92498 23.5563 8.32304 22.6324 7.56487Z" fill="url(#paint0_linear_9421_3829)"/>
<path fill-rule="evenodd" clip-rule="evenodd" d="M6.28165 13.0274C6.82022 13.2731 7.37071 13.4825 7.92958 13.6556C7.92919 13.6119 7.92902 13.5682 7.92908 13.5244C7.93178 11.6519 8.35358 9.9287 9.00927 8.63085C7.49527 9.55648 6.4434 11.1643 6.28165 13.0274ZM12.0088 6.1919C7.95599 6.18605 4.66577 9.46679 4.65992 13.5196C4.65407 17.5725 7.93481 20.8627 11.9877 20.8685C16.0405 20.8744 19.3307 17.5937 19.3366 13.5408C19.3424 9.48797 16.0617 6.19775 12.0088 6.1919ZM12.0065 7.7919C11.856 7.79168 11.6299 7.86065 11.3422 8.10928C11.056 8.35656 10.754 8.74569 10.4774 9.27448C9.92498 10.3307 9.53152 11.8356 9.52908 13.5267C9.52883 13.7033 9.53284 13.8779 9.54087 14.0502C11.1647 14.3458 12.8294 14.3482 14.4541 14.0573C14.4626 13.885 14.4672 13.7104 14.4674 13.5338C14.4698 11.8427 14.0807 10.3367 13.5314 9.27888C13.2563 8.7493 12.9554 8.3593 12.67 8.11119C12.383 7.86173 12.157 7.79212 12.0065 7.7919ZM16.0665 13.6673C16.067 13.6237 16.0673 13.5799 16.0674 13.5361C16.0701 11.6637 15.6533 9.93923 15.0013 8.6395C16.5127 9.56949 17.5599 11.1803 17.7163 13.0439C17.177 13.2881 16.6259 13.4959 16.0665 13.6673ZM14.2408 15.7127C12.7516 15.9296 11.238 15.9274 9.74942 15.7062C9.9162 16.5019 10.1671 17.2077 10.4651 17.7816C10.7402 18.3111 11.0411 18.7011 11.3265 18.9493C11.6135 19.1987 11.8395 19.2683 11.99 19.2685C12.1404 19.2688 12.3666 19.1998 12.6543 18.9512C12.9404 18.7039 13.2425 18.3148 13.5191 17.786C13.8188 17.213 14.0717 16.5079 14.2408 15.7127ZM14.9872 18.4296C15.4217 17.5696 15.7535 16.5228 15.9287 15.3695C16.4891 15.2226 17.0432 15.0435 17.5882 14.8323C17.2357 16.3516 16.2799 17.6393 14.9872 18.4296ZM8.99514 18.421C8.56314 17.5597 8.23437 16.5119 8.0625 15.3582C7.50251 15.2096 6.94894 15.0289 6.40455 14.8161C6.75263 16.3365 7.70471 17.6269 8.99514 18.421Z" fill="white"/>
</g>
<defs>
<linearGradient id="paint0_linear_9421_3829" x1="12" y1="0" x2="12" y2="24" gradientUnits="userSpaceOnUse">
<stop stop-color="#9145DF"/>
<stop offset="1" stop-color="#BA62F0"/>
</linearGradient>
<clipPath id="clip0_9421_3829">
<rect width="24" height="24" fill="white"/>
</clipPath>
</defs>
</svg>